<svg width="950" height="372" viewBox="0 0 950 372" fill="none" xmlns="http://www.w3.org/2000/svg">
<path d="M852.656 308.741L818.875 288.998L875.025 256.66L931.292 288.868L897.524 308.611L897.563 300.592L918.164 288.803L875.09 263.977L832.107 288.803L852.617 301.008L852.656 308.741Z" stroke="#62D14B" stroke-width="2" stroke-miterlimit="10"/>
<path d="M831.704 193.79L865.264 174.06V239.152L808.906 271.503L808.503 233.056L815.561 237.072L815.418 260.52L858.557 235.5V185.654L838.086 197.417L831.704 193.79Z" stroke="#62D14B" stroke-width="2" stroke-miterlimit="10"/>
<path d="M918.411 193.79L884.852 174.06V239.152L941.196 271.503L941.599 233.056L934.541 237.072L934.684 260.52L891.558 235.5V185.654L912.017 197.417L918.411 193.79Z" stroke="#62D14B" stroke-width="2" stroke-miterlimit="10"/>
<path d="M852.059 189.384L858.557 185.654V235.5L852.059 231.431V189.384Z" stroke="#62D14B" stroke-width="2" stroke-miterlimit="10"/>
<path d="M897.979 189.254L891.48 185.524V235.37L897.979 231.301V189.254Z" stroke="#62D14B" stroke-width="2" stroke-miterlimit="10"/>
<path d="M818.875 193.179V201.316L875.09 233.459V225.725L818.875 193.179Z" fill="#F6F5F1" stroke="#62D14B" stroke-width="2" stroke-miterlimit="10"/>
<path d="M931.344 193.374V201.511L875.129 233.654V225.92L931.344 193.374Z" fill="#F6F5F1" stroke="#62D14B" stroke-width="2" stroke-miterlimit="10"/>
<path d="M858.558 235.5L815.418 260.52V252.994L852.059 231.431L858.558 235.5Z" stroke="#62D14B" stroke-width="2" stroke-miterlimit="10"/>
<path d="M891.35 235.63L934.476 260.65V253.124L897.849 231.561L891.35 235.63Z" stroke="#62D14B" stroke-width="2" stroke-miterlimit="10"/>
<path d="M838.762 292.754L832.107 288.803L875.09 263.977L918.164 288.803L911.249 292.754L877.898 273.128V370.376H872.205V273.128L838.762 292.754Z" stroke="#62D14B" stroke-width="2" stroke-miterlimit="10"/>
<path d="M802.811 222.073L858.557 254.619L864.25 250.759L809.114 218.408L802.811 222.073Z" fill="#F6F5F1" stroke="#62D14B" stroke-width="2" stroke-miterlimit="10"/>
<path d="M947.435 222.073L891.688 254.619L885.995 250.759L941.131 218.408L947.435 222.073Z" fill="#F6F5F1" stroke="#62D14B" stroke-width="2" stroke-miterlimit="10"/>
<path d="M864.25 250.759V316.059L858.96 319.308L858.557 254.619L864.25 250.759Z" fill="#F6F5F1" stroke="#62D14B" stroke-width="2" stroke-miterlimit="10"/>
<path d="M885.917 250.759V316.059L891.208 319.308L891.61 254.619L885.917 250.759Z" fill="#F6F5F1" stroke="#62D14B" stroke-width="2" stroke-miterlimit="10"/>
<path d="M802.811 268.046V222.073L858.557 254.619L858.96 319.308L818.876 296.328V288.998L852.656 308.741L852.448 258.076L808.504 233.056L808.906 271.503L802.811 268.046Z" fill="#F6F5F1" stroke="#62D14B" stroke-width="2" stroke-miterlimit="10"/>
<path d="M947.37 267.916V221.943L891.623 254.489L891.22 319.178L931.292 296.198V288.868L897.524 308.611L897.732 257.946L941.677 232.926L941.261 271.373L947.37 267.916Z" fill="#F6F5F1" stroke="#62D14B" stroke-width="2" stroke-miterlimit="10"/>
<path d="M864.25 174.463L858.557 171.213L819.902 193.387L875.09 225.725L930.369 193.79L891.61 171.213L885.995 174.255L917.748 193.582L875.129 218.408L831.704 193.79L864.25 174.463Z" fill="#F6F5F1" stroke="#62D14B" stroke-width="2" stroke-miterlimit="10"/>
<path d="M692.656 308.741L658.875 288.998L715.025 256.66L771.292 288.868L737.524 308.611L737.563 300.592L758.164 288.803L715.09 263.977L672.107 288.803L692.617 301.008L692.656 308.741Z" stroke="#62D14B" stroke-width="2" stroke-miterlimit="10"/>
<path d="M671.704 193.79L705.264 174.06V239.152L648.906 271.503L648.503 233.056L655.561 237.072L655.418 260.52L698.557 235.5V185.654L678.086 197.417L671.704 193.79Z" stroke="#62D14B" stroke-width="2" stroke-miterlimit="10"/>
<path d="M758.411 193.79L724.852 174.06V239.152L781.196 271.503L781.599 233.056L774.541 237.072L774.684 260.52L731.558 235.5V185.654L752.017 197.417L758.411 193.79Z" stroke="#62D14B" stroke-width="2" stroke-miterlimit="10"/>
<path d="M692.059 189.384L698.557 185.654V235.5L692.059 231.431V189.384Z" stroke="#62D14B" stroke-width="2" stroke-miterlimit="10"/>
<path d="M737.979 189.254L731.48 185.524V235.37L737.979 231.301V189.254Z" stroke="#62D14B" stroke-width="2" stroke-miterlimit="10"/>
<path d="M658.875 193.179V201.316L715.09 233.459V225.725L658.875 193.179Z" fill="#F6F5F1" stroke="#62D14B" stroke-width="2" stroke-miterlimit="10"/>
<path d="M771.344 193.374V201.511L715.129 233.654V225.92L771.344 193.374Z" fill="#F6F5F1" stroke="#62D14B" stroke-width="2" stroke-miterlimit="10"/>
<path d="M698.558 235.5L655.418 260.52V252.994L692.059 231.431L698.558 235.5Z" stroke="#62D14B" stroke-width="2" stroke-miterlimit="10"/>
<path d="M731.35 235.63L774.476 260.65V253.124L737.849 231.561L731.35 235.63Z" stroke="#62D14B" stroke-width="2" stroke-miterlimit="10"/>
<path d="M678.762 292.754L672.107 288.803L715.09 263.977L758.164 288.803L751.249 292.754L717.898 273.128V370.376H712.205V273.128L678.762 292.754Z" stroke="#62D14B" stroke-width="2" stroke-miterlimit="10"/>
<path d="M642.811 222.073L698.557 254.619L704.25 250.759L649.114 218.408L642.811 222.073Z" fill="#F6F5F1" stroke="#62D14B" stroke-width="2" stroke-miterlimit="10"/>
<path d="M787.435 222.073L731.688 254.619L725.995 250.759L781.131 218.408L787.435 222.073Z" fill="#F6F5F1" stroke="#62D14B" stroke-width="2" stroke-miterlimit="10"/>
<path d="M704.25 250.759V316.059L698.96 319.308L698.557 254.619L704.25 250.759Z" fill="#F6F5F1" stroke="#62D14B" stroke-width="2" stroke-miterlimit="10"/>
<path d="M725.917 250.759V316.059L731.208 319.308L731.61 254.619L725.917 250.759Z" fill="#F6F5F1" stroke="#62D14B" stroke-width="2" stroke-miterlimit="10"/>
<path d="M642.811 268.046V222.073L698.557 254.619L698.96 319.308L658.876 296.328V288.998L692.656 308.741L692.448 258.076L648.504 233.056L648.906 271.503L642.811 268.046Z" fill="#F6F5F1" stroke="#62D14B" stroke-width="2" stroke-miterlimit="10"/>
<path d="M787.37 267.916V221.943L731.623 254.489L731.22 319.178L771.292 296.198V288.868L737.524 308.611L737.732 257.946L781.677 232.926L781.261 271.373L787.37 267.916Z" fill="#F6F5F1" stroke="#62D14B" stroke-width="2" stroke-miterlimit="10"/>
<path d="M704.25 174.463L698.557 171.213L659.902 193.387L715.09 225.725L770.369 193.79L731.61 171.213L725.995 174.255L757.748 193.582L715.129 218.408L671.704 193.79L704.25 174.463Z" fill="#F6F5F1" stroke="#62D14B" stroke-width="2" stroke-miterlimit="10"/>
<path d="M852.656 138.741L818.875 118.998L875.025 86.6597L931.292 118.868L897.524 138.611L897.563 130.592L918.164 118.803L875.09 93.9773L832.107 118.803L852.617 131.008L852.656 138.741Z" stroke="#62D14B" stroke-width="2" stroke-miterlimit="10"/>
<path d="M831.704 23.7902L865.264 4.05981V69.1519L808.906 101.503L808.503 63.056L815.561 67.0723L815.418 90.52L858.557 65.4996V15.6537L838.086 27.4165L831.704 23.7902Z" stroke="#62D14B" stroke-width="2" stroke-miterlimit="10"/>
<path d="M918.411 23.7902L884.852 4.05981V69.1519L941.196 101.503L941.599 63.056L934.541 67.0723L934.684 90.52L891.558 65.4996V15.6537L912.017 27.4165L918.411 23.7902Z" stroke="#62D14B" stroke-width="2" stroke-miterlimit="10"/>
<path d="M852.059 19.384L858.557 15.6537V65.4996L852.059 61.4313V19.384Z" stroke="#62D14B" stroke-width="2" stroke-miterlimit="10"/>
<path d="M897.979 19.254L891.48 15.5237V65.3696L897.979 61.3013V19.254Z" stroke="#62D14B" stroke-width="2" stroke-miterlimit="10"/>
<path d="M818.875 23.1793V31.3158L875.09 63.4589V55.7253L818.875 23.1793Z" fill="#F6F5F1" stroke="#62D14B" stroke-width="2" stroke-miterlimit="10"/>
<path d="M931.344 23.3743V31.5108L875.129 63.6539V55.9203L931.344 23.3743Z" fill="#F6F5F1" stroke="#62D14B" stroke-width="2" stroke-miterlimit="10"/>
<path d="M858.558 65.4995L815.418 90.5199V82.9943L852.059 61.4313L858.558 65.4995Z" stroke="#62D14B" stroke-width="2" stroke-miterlimit="10"/>
<path d="M891.35 65.6295L934.476 90.65V83.1243L897.849 61.5613L891.35 65.6295Z" stroke="#62D14B" stroke-width="2" stroke-miterlimit="10"/>
<path d="M838.762 122.754L832.107 118.803L875.09 93.9774L918.164 118.803L911.249 122.754L877.898 103.128V200.376H872.205V103.128L838.762 122.754Z" stroke="#62D14B" stroke-width="2" stroke-miterlimit="10"/>
<path d="M802.811 52.073L858.557 84.619L864.25 80.7587L809.114 48.4077L802.811 52.073Z" fill="#F6F5F1" stroke="#62D14B" stroke-width="2" stroke-miterlimit="10"/>
<path d="M947.435 52.073L891.688 84.619L885.995 80.7587L941.131 48.4077L947.435 52.073Z" fill="#F6F5F1" stroke="#62D14B" stroke-width="2" stroke-miterlimit="10"/>
<path d="M864.25 80.7587V146.059L858.96 149.308L858.557 84.619L864.25 80.7587Z" fill="#F6F5F1" stroke="#62D14B" stroke-width="2" stroke-miterlimit="10"/>
<path d="M885.917 80.7587V146.059L891.208 149.308L891.61 84.619L885.917 80.7587Z" fill="#F6F5F1" stroke="#62D14B" stroke-width="2" stroke-miterlimit="10"/>
<path d="M802.811 98.0455V52.0729L858.557 84.619L858.96 149.308L818.876 126.328V118.998L852.656 138.741L852.448 88.0763L808.504 63.0559L808.906 101.503L802.811 98.0455Z" fill="#F6F5F1" stroke="#62D14B" stroke-width="2" stroke-miterlimit="10"/>
<path d="M947.37 97.9156V51.9431L891.623 84.4891L891.22 149.178L931.292 126.198V118.868L897.524 138.611L897.732 87.9465L941.677 62.926L941.261 101.373L947.37 97.9156Z" fill="#F6F5F1" stroke="#62D14B" stroke-width="2" stroke-miterlimit="10"/>
<path d="M864.25 4.46272L858.557 1.21332L819.902 23.3873L875.09 55.7253L930.369 23.7902L891.61 1.21332L885.995 4.25476L917.748 23.5822L875.129 48.4077L831.704 23.7902L864.25 4.46272Z" fill="#F6F5F1" stroke="#62D14B" stroke-width="2" stroke-miterlimit="10"/>
<path d="M692.656 138.741L658.875 118.998L715.025 86.6597L771.292 118.868L737.524 138.611L737.563 130.592L758.164 118.803L715.09 93.9773L672.107 118.803L692.617 131.008L692.656 138.741Z" stroke="#62D14B" stroke-width="2" stroke-miterlimit="10"/>
<path d="M671.704 23.7902L705.264 4.05981V69.1519L648.906 101.503L648.503 63.056L655.561 67.0723L655.418 90.52L698.557 65.4996V15.6537L678.086 27.4165L671.704 23.7902Z" stroke="#62D14B" stroke-width="2" stroke-miterlimit="10"/>
<path d="M758.411 23.7902L724.852 4.05981V69.1519L781.196 101.503L781.599 63.056L774.541 67.0723L774.684 90.52L731.558 65.4996V15.6537L752.017 27.4165L758.411 23.7902Z" stroke="#62D14B" stroke-width="2" stroke-miterlimit="10"/>
<path d="M692.059 19.384L698.557 15.6537V65.4996L692.059 61.4313V19.384Z" stroke="#62D14B" stroke-width="2" stroke-miterlimit="10"/>
<path d="M737.979 19.254L731.48 15.5237V65.3696L737.979 61.3013V19.254Z" stroke="#62D14B" stroke-width="2" stroke-miterlimit="10"/>
<path d="M658.875 23.1793V31.3158L715.09 63.4589V55.7253L658.875 23.1793Z" fill="#F6F5F1" stroke="#62D14B" stroke-width="2" stroke-miterlimit="10"/>
<path d="M771.344 23.3743V31.5108L715.129 63.6539V55.9203L771.344 23.3743Z" fill="#F6F5F1" stroke="#62D14B" stroke-width="2" stroke-miterlimit="10"/>
<path d="M698.558 65.4995L655.418 90.5199V82.9943L692.059 61.4313L698.558 65.4995Z" stroke="#62D14B" stroke-width="2" stroke-miterlimit="10"/>
<path d="M731.35 65.6295L774.476 90.65V83.1243L737.849 61.5613L731.35 65.6295Z" stroke="#62D14B" stroke-width="2" stroke-miterlimit="10"/>
<path d="M678.762 122.754L672.107 118.803L715.09 93.9774L758.164 118.803L751.249 122.754L717.898 103.128V200.376H712.205V103.128L678.762 122.754Z" stroke="#62D14B" stroke-width="2" stroke-miterlimit="10"/>
<path d="M642.811 52.073L698.557 84.619L704.25 80.7587L649.114 48.4077L642.811 52.073Z" fill="#F6F5F1" stroke="#62D14B" stroke-width="2" stroke-miterlimit="10"/>
<path d="M787.435 52.073L731.688 84.619L725.995 80.7587L781.131 48.4077L787.435 52.073Z" fill="#F6F5F1" stroke="#62D14B" stroke-width="2" stroke-miterlimit="10"/>
<path d="M704.25 80.7587V146.059L698.96 149.308L698.557 84.619L704.25 80.7587Z" fill="#F6F5F1" stroke="#62D14B" stroke-width="2" stroke-miterlimit="10"/>
<path d="M725.917 80.7587V146.059L731.208 149.308L731.61 84.619L725.917 80.7587Z" fill="#F6F5F1" stroke="#62D14B" stroke-width="2" stroke-miterlimit="10"/>
<path d="M642.811 98.0455V52.0729L698.557 84.619L698.96 149.308L658.876 126.328V118.998L692.656 138.741L692.448 88.0763L648.504 63.0559L648.906 101.503L642.811 98.0455Z" fill="#F6F5F1" stroke="#62D14B" stroke-width="2" stroke-miterlimit="10"/>
<path d="M787.37 97.9156V51.9431L731.623 84.4891L731.22 149.178L771.292 126.198V118.868L737.524 138.611L737.732 87.9465L781.677 62.926L781.261 101.373L787.37 97.9156Z" fill="#F6F5F1" stroke="#62D14B" stroke-width="2" stroke-miterlimit="10"/>
<path d="M704.25 4.46272L698.557 1.21332L659.902 23.3873L715.09 55.7253L770.369 23.7902L731.61 1.21332L725.995 4.25476L757.748 23.5822L715.129 48.4077L671.704 23.7902L704.25 4.46272Z" fill="#F6F5F1" stroke="#62D14B" stroke-width="2" stroke-miterlimit="10"/>
<path d="M532.656 138.741L498.875 118.998L555.025 86.6597L611.292 118.868L577.524 138.611L577.563 130.592L598.164 118.803L555.09 93.9773L512.107 118.803L532.617 131.008L532.656 138.741Z" stroke="#62D14B" stroke-width="2" stroke-miterlimit="10"/>
<path d="M511.704 23.7902L545.264 4.05981V69.1519L488.906 101.503L488.503 63.056L495.561 67.0723L495.418 90.52L538.557 65.4996V15.6537L518.086 27.4165L511.704 23.7902Z" stroke="#62D14B" stroke-width="2" stroke-miterlimit="10"/>
<path d="M598.411 23.7902L564.852 4.05981V69.1519L621.196 101.503L621.599 63.056L614.541 67.0723L614.684 90.52L571.558 65.4996V15.6537L592.017 27.4165L598.411 23.7902Z" stroke="#62D14B" stroke-width="2" stroke-miterlimit="10"/>
<path d="M532.059 19.384L538.557 15.6537V65.4996L532.059 61.4313V19.384Z" stroke="#62D14B" stroke-width="2" stroke-miterlimit="10"/>
<path d="M577.979 19.254L571.48 15.5237V65.3696L577.979 61.3013V19.254Z" stroke="#62D14B" stroke-width="2" stroke-miterlimit="10"/>
<path d="M498.875 23.1793V31.3158L555.09 63.4589V55.7253L498.875 23.1793Z" fill="#F6F5F1" stroke="#62D14B" stroke-width="2" stroke-miterlimit="10"/>
<path d="M611.344 23.3743V31.5108L555.129 63.6539V55.9203L611.344 23.3743Z" fill="#F6F5F1" stroke="#62D14B" stroke-width="2" stroke-miterlimit="10"/>
<path d="M538.558 65.4995L495.418 90.5199V82.9943L532.059 61.4313L538.558 65.4995Z" stroke="#62D14B" stroke-width="2" stroke-miterlimit="10"/>
<path d="M571.35 65.6295L614.476 90.65V83.1243L577.849 61.5613L571.35 65.6295Z" stroke="#62D14B" stroke-width="2" stroke-miterlimit="10"/>
<path d="M518.762 122.754L512.107 118.803L555.09 93.9774L598.164 118.803L591.249 122.754L557.898 103.128V200.376H552.205V103.128L518.762 122.754Z" stroke="#62D14B" stroke-width="2" stroke-miterlimit="10"/>
<path d="M482.811 52.073L538.557 84.619L544.25 80.7587L489.114 48.4077L482.811 52.073Z" fill="#F6F5F1" stroke="#62D14B" stroke-width="2" stroke-miterlimit="10"/>
<path d="M627.435 52.073L571.688 84.619L565.995 80.7587L621.131 48.4077L627.435 52.073Z" fill="#F6F5F1" stroke="#62D14B" stroke-width="2" stroke-miterlimit="10"/>
<path d="M544.25 80.7587V146.059L538.96 149.308L538.557 84.619L544.25 80.7587Z" fill="#F6F5F1" stroke="#62D14B" stroke-width="2" stroke-miterlimit="10"/>
<path d="M565.917 80.7587V146.059L571.208 149.308L571.61 84.619L565.917 80.7587Z" fill="#F6F5F1" stroke="#62D14B" stroke-width="2" stroke-miterlimit="10"/>
<path d="M482.811 98.0455V52.0729L538.557 84.619L538.96 149.308L498.876 126.328V118.998L532.656 138.741L532.448 88.0763L488.504 63.0559L488.906 101.503L482.811 98.0455Z" fill="#F6F5F1" stroke="#62D14B" stroke-width="2" stroke-miterlimit="10"/>
<path d="M627.37 97.9156V51.9431L571.623 84.4891L571.22 149.178L611.292 126.198V118.868L577.524 138.611L577.732 87.9465L621.677 62.926L621.261 101.373L627.37 97.9156Z" fill="#F6F5F1" stroke="#62D14B" stroke-width="2" stroke-miterlimit="10"/>
<path d="M544.25 4.46272L538.557 1.21332L499.902 23.3873L555.09 55.7253L610.369 23.7902L571.61 1.21332L565.995 4.25476L597.748 23.5822L555.129 48.4077L511.704 23.7902L544.25 4.46272Z" fill="#F6F5F1" stroke="#62D14B" stroke-width="2" stroke-miterlimit="10"/>
<path d="M372.656 138.741L338.875 118.998L395.025 86.6597L451.292 118.868L417.524 138.611L417.563 130.592L438.164 118.803L395.09 93.9773L352.107 118.803L372.617 131.008L372.656 138.741Z" stroke="#62D14B" stroke-width="2" stroke-miterlimit="10"/>
<path d="M351.704 23.7902L385.264 4.05981V69.1519L328.906 101.503L328.503 63.056L335.561 67.0723L335.418 90.52L378.557 65.4996V15.6537L358.086 27.4165L351.704 23.7902Z" stroke="#62D14B" stroke-width="2" stroke-miterlimit="10"/>
<path d="M438.411 23.7902L404.852 4.05981V69.1519L461.196 101.503L461.599 63.056L454.541 67.0723L454.684 90.52L411.558 65.4996V15.6537L432.017 27.4165L438.411 23.7902Z" stroke="#62D14B" stroke-width="2" stroke-miterlimit="10"/>
<path d="M372.059 19.384L378.557 15.6537V65.4996L372.059 61.4313V19.384Z" stroke="#62D14B" stroke-width="2" stroke-miterlimit="10"/>
<path d="M417.979 19.254L411.48 15.5237V65.3696L417.979 61.3013V19.254Z" stroke="#62D14B" stroke-width="2" stroke-miterlimit="10"/>
<path d="M338.875 23.1793V31.3158L395.09 63.4589V55.7253L338.875 23.1793Z" fill="#F6F5F1" stroke="#62D14B" stroke-width="2" stroke-miterlimit="10"/>
<path d="M451.344 23.3743V31.5108L395.129 63.6539V55.9203L451.344 23.3743Z" fill="#F6F5F1" stroke="#62D14B" stroke-width="2" stroke-miterlimit="10"/>
<path d="M378.558 65.4995L335.418 90.5199V82.9943L372.059 61.4313L378.558 65.4995Z" stroke="#62D14B" stroke-width="2" stroke-miterlimit="10"/>
<path d="M411.35 65.6295L454.476 90.65V83.1243L417.849 61.5613L411.35 65.6295Z" stroke="#62D14B" stroke-width="2" stroke-miterlimit="10"/>
<path d="M358.762 122.754L352.107 118.803L395.09 93.9774L438.164 118.803L431.249 122.754L397.898 103.128V200.376H392.205V103.128L358.762 122.754Z" stroke="#62D14B" stroke-width="2" stroke-miterlimit="10"/>
<path d="M322.811 52.073L378.557 84.619L384.25 80.7587L329.114 48.4077L322.811 52.073Z" fill="#F6F5F1" stroke="#62D14B" stroke-width="2" stroke-miterlimit="10"/>
<path d="M467.435 52.073L411.688 84.619L405.995 80.7587L461.131 48.4077L467.435 52.073Z" fill="#F6F5F1" stroke="#62D14B" stroke-width="2" stroke-miterlimit="10"/>
<path d="M384.25 80.7587V146.059L378.96 149.308L378.557 84.619L384.25 80.7587Z" fill="#F6F5F1" stroke="#62D14B" stroke-width="2" stroke-miterlimit="10"/>
<path d="M405.917 80.7587V146.059L411.208 149.308L411.61 84.619L405.917 80.7587Z" fill="#F6F5F1" stroke="#62D14B" stroke-width="2" stroke-miterlimit="10"/>
<path d="M322.811 98.0455V52.0729L378.557 84.619L378.96 149.308L338.876 126.328V118.998L372.656 138.741L372.448 88.0763L328.504 63.0559L328.906 101.503L322.811 98.0455Z" fill="#F6F5F1" stroke="#62D14B" stroke-width="2" stroke-miterlimit="10"/>
<path d="M467.37 97.9156V51.9431L411.623 84.4891L411.22 149.178L451.292 126.198V118.868L417.524 138.611L417.732 87.9465L461.677 62.926L461.261 101.373L467.37 97.9156Z" fill="#F6F5F1" stroke="#62D14B" stroke-width="2" stroke-miterlimit="10"/>
<path d="M384.25 4.46272L378.557 1.21332L339.902 23.3873L395.09 55.7253L450.369 23.7902L411.61 1.21332L405.995 4.25476L437.748 23.5822L395.129 48.4077L351.704 23.7902L384.25 4.46272Z" fill="#F6F5F1" stroke="#62D14B" stroke-width="2" stroke-miterlimit="10"/>
<path d="M212.656 138.741L178.875 118.998L235.025 86.6597L291.292 118.868L257.524 138.611L257.563 130.592L278.164 118.803L235.09 93.9773L192.107 118.803L212.617 131.008L212.656 138.741Z" stroke="#62D14B" stroke-width="2" stroke-miterlimit="10"/>
<path d="M191.704 23.7902L225.264 4.05981V69.1519L168.906 101.503L168.503 63.056L175.561 67.0723L175.418 90.52L218.557 65.4996V15.6537L198.086 27.4165L191.704 23.7902Z" stroke="#62D14B" stroke-width="2" stroke-miterlimit="10"/>
<path d="M278.411 23.7902L244.852 4.05981V69.1519L301.196 101.503L301.599 63.056L294.541 67.0723L294.684 90.52L251.558 65.4996V15.6537L272.017 27.4165L278.411 23.7902Z" stroke="#62D14B" stroke-width="2" stroke-miterlimit="10"/>
<path d="M212.059 19.384L218.557 15.6537V65.4996L212.059 61.4313V19.384Z" stroke="#62D14B" stroke-width="2" stroke-miterlimit="10"/>
<path d="M257.979 19.254L251.48 15.5237V65.3696L257.979 61.3013V19.254Z" stroke="#62D14B" stroke-width="2" stroke-miterlimit="10"/>
<path d="M178.875 23.1793V31.3158L235.09 63.4589V55.7253L178.875 23.1793Z" fill="#F6F5F1" stroke="#62D14B" stroke-width="2" stroke-miterlimit="10"/>
<path d="M291.344 23.3743V31.5108L235.129 63.6539V55.9203L291.344 23.3743Z" fill="#F6F5F1" stroke="#62D14B" stroke-width="2" stroke-miterlimit="10"/>
<path d="M218.558 65.4995L175.418 90.5199V82.9943L212.059 61.4313L218.558 65.4995Z" stroke="#62D14B" stroke-width="2" stroke-miterlimit="10"/>
<path d="M251.35 65.6295L294.476 90.65V83.1243L257.849 61.5613L251.35 65.6295Z" stroke="#62D14B" stroke-width="2" stroke-miterlimit="10"/>
<path d="M198.762 122.754L192.107 118.803L235.09 93.9774L278.164 118.803L271.249 122.754L237.898 103.128V200.376H232.205V103.128L198.762 122.754Z" stroke="#62D14B" stroke-width="2" stroke-miterlimit="10"/>
<path d="M162.811 52.073L218.557 84.619L224.25 80.7587L169.114 48.4077L162.811 52.073Z" fill="#F6F5F1" stroke="#62D14B" stroke-width="2" stroke-miterlimit="10"/>
<path d="M307.435 52.073L251.688 84.619L245.995 80.7587L301.131 48.4077L307.435 52.073Z" fill="#F6F5F1" stroke="#62D14B" stroke-width="2" stroke-miterlimit="10"/>
<path d="M224.25 80.7587V146.059L218.96 149.308L218.557 84.619L224.25 80.7587Z" fill="#F6F5F1" stroke="#62D14B" stroke-width="2" stroke-miterlimit="10"/>
<path d="M245.917 80.7587V146.059L251.208 149.308L251.61 84.619L245.917 80.7587Z" fill="#F6F5F1" stroke="#62D14B" stroke-width="2" stroke-miterlimit="10"/>
<path d="M162.811 98.0455V52.0729L218.557 84.619L218.96 149.308L178.876 126.328V118.998L212.656 138.741L212.448 88.0763L168.504 63.0559L168.906 101.503L162.811 98.0455Z" fill="#F6F5F1" stroke="#62D14B" stroke-width="2" stroke-miterlimit="10"/>
<path d="M307.37 97.9156V51.9431L251.623 84.4891L251.22 149.178L291.292 126.198V118.868L257.524 138.611L257.732 87.9465L301.677 62.926L301.261 101.373L307.37 97.9156Z" fill="#F6F5F1" stroke="#62D14B" stroke-width="2" stroke-miterlimit="10"/>
<path d="M224.25 4.46272L218.557 1.21332L179.902 23.3873L235.09 55.7253L290.369 23.7902L251.61 1.21332L245.995 4.25476L277.748 23.5822L235.129 48.4077L191.704 23.7902L224.25 4.46272Z" fill="#F6F5F1" stroke="#62D14B" stroke-width="2" stroke-miterlimit="10"/>
<path d="M52.6563 138.741L18.8755 118.998L75.0252 86.6597L131.292 118.868L97.5241 138.611L97.5631 130.592L118.164 118.803L75.0902 93.9773L32.1071 118.803L52.6173 131.008L52.6563 138.741Z" stroke="#62D14B" stroke-width="2" stroke-miterlimit="10"/>
<path d="M31.7042 23.7902L65.264 4.05981V69.1519L8.90635 101.503L8.50342 63.056L15.5611 67.0723L15.4182 90.52L58.5573 65.4996V15.6537L38.086 27.4165L31.7042 23.7902Z" stroke="#62D14B" stroke-width="2" stroke-miterlimit="10"/>
<path d="M118.411 23.7902L84.8516 4.05981V69.1519L141.196 101.503L141.599 63.056L134.541 67.0723L134.684 90.52L91.5583 65.4996V15.6537L112.017 27.4165L118.411 23.7902Z" stroke="#62D14B" stroke-width="2" stroke-miterlimit="10"/>
<path d="M52.0586 19.384L58.5574 15.6537V65.4996L52.0586 61.4313V19.384Z" stroke="#62D14B" stroke-width="2" stroke-miterlimit="10"/>
<path d="M97.9793 19.254L91.4805 15.5237V65.3696L97.9793 61.3013V19.254Z" stroke="#62D14B" stroke-width="2" stroke-miterlimit="10"/>
<path d="M18.8755 23.1793V31.3158L75.0902 63.4589V55.7253L18.8755 23.1793Z" fill="#F6F5F1" stroke="#62D14B" stroke-width="2" stroke-miterlimit="10"/>
<path d="M131.344 23.3743V31.5108L75.1294 63.6539V55.9203L131.344 23.3743Z" fill="#F6F5F1" stroke="#62D14B" stroke-width="2" stroke-miterlimit="10"/>
<path d="M58.5576 65.4995L15.4185 90.5199V82.9943L52.0588 61.4313L58.5576 65.4995Z" stroke="#62D14B" stroke-width="2" stroke-miterlimit="10"/>
<path d="M91.3501 65.6295L134.476 90.65V83.1243L97.8489 61.5613L91.3501 65.6295Z" stroke="#62D14B" stroke-width="2" stroke-miterlimit="10"/>
<path d="M38.7617 122.754L32.1069 118.803L75.0901 93.9774L118.164 118.803L111.249 122.754L77.8975 103.128V200.376H72.2046V103.128L38.7617 122.754Z" stroke="#62D14B" stroke-width="2" stroke-miterlimit="10"/>
<path d="M2.81055 52.073L58.5573 84.619L64.2503 80.7587L9.11439 48.4077L2.81055 52.073Z" fill="#F6F5F1" stroke="#62D14B" stroke-width="2" stroke-miterlimit="10"/>
<path d="M147.435 52.073L91.6881 84.619L85.9951 80.7587L141.131 48.4077L147.435 52.073Z" fill="#F6F5F1" stroke="#62D14B" stroke-width="2" stroke-miterlimit="10"/>
<path d="M64.2501 80.7587V146.059L58.9601 149.308L58.5571 84.619L64.2501 80.7587Z" fill="#F6F5F1" stroke="#62D14B" stroke-width="2" stroke-miterlimit="10"/>
<path d="M85.9175 80.7587V146.059L91.2075 149.308L91.6104 84.619L85.9175 80.7587Z" fill="#F6F5F1" stroke="#62D14B" stroke-width="2" stroke-miterlimit="10"/>
<path d="M2.81055 98.0455V52.0729L58.5573 84.619L58.9603 149.308L18.8756 126.328V118.998L52.6564 138.741L52.4485 88.0763L8.5035 63.0559L8.90643 101.503L2.81055 98.0455Z" fill="#F6F5F1" stroke="#62D14B" stroke-width="2" stroke-miterlimit="10"/>
<path d="M147.37 97.9156V51.9431L91.6232 84.4891L91.2202 149.178L131.292 126.198V118.868L97.5241 138.611L97.732 87.9465L141.677 62.926L141.261 101.373L147.37 97.9156Z" fill="#F6F5F1" stroke="#62D14B" stroke-width="2" stroke-miterlimit="10"/>
<path d="M64.2502 4.46272L58.5573 1.21332L19.9023 23.3873L75.0902 55.7253L130.369 23.7902L91.6102 1.21332L85.9952 4.25476L117.748 23.5822L75.1292 48.4077L31.7042 23.7902L64.2502 4.46272Z" fill="#F6F5F1" stroke="#62D14B" stroke-width="2" stroke-miterlimit="10"/>
</svg>
