<svg width="241" height="241" viewBox="0 0 241 241" fill="none" xmlns="http://www.w3.org/2000/svg">
<path d="M182.193 186.3L192.215 184.629" stroke="#FEFA02" stroke-width="2"/>
<path d="M86.0223 205.033L91.2718 212.192L89.6016 220.783L86.0223 224.601H80.5334L74.8064 220.783H69.795H66.2148" stroke="#FEFA02" stroke-width="3"/>
<path d="M109.408 212.669L115.136 219.351V226.749L111.556 232.715L103.92 234.862" stroke="#FEFA02" stroke-width="3"/>
<path d="M118 213.624L124.443 217.919L126.591 223.885V226.749L124.443 230.567L118 235.101H113.466" stroke="#FEFA02" stroke-width="3"/>
<path d="M166.442 198.59L167.636 207.658L172.17 211.715L175.988 215.533L180.761 211.715H184.579" stroke="#FEFA02" stroke-width="3"/>
<path d="M148.306 208.374L146.397 214.578V220.783L149.5 223.885L152.363 226.271H159.522L162.625 223.885H164.295" stroke="#FEFA02" stroke-width="3"/>
<path d="M130.17 227.226L132.556 221.021L135.182 216.726L137.329 210.76" stroke="#FEFA02" stroke-width="3"/>
<path d="M143.057 216.249L138.522 217.681L132.795 221.021" stroke="#FEFA02" stroke-width="3"/>
<path d="M195.795 169.357L204.505 168.163" stroke="#FEFA02" stroke-width="3"/>
<path d="M215.722 157.425L212.977 144.3L219.54 135.59H223.954L224.67 140.959L223.954 145.97" stroke="#FEFA02" stroke-width="3"/>
<path d="M214.647 143.226L218.943 154.68" stroke="#FEFA02" stroke-width="3"/>
<path d="M31.0165 138.334L28.1529 143.703L25.1699 151.578" stroke="#FEFA02" stroke-width="3"/>
<path d="M30.7777 138.453L29.8235 135.709L25.2892 128.311H21.1129L17.8913 134.754V139.885L17.0566 141.794" stroke="#FEFA02" stroke-width="3"/>
<path d="M29.3464 135.709L20.7559 148.834" stroke="#FEFA02" stroke-width="3"/>
<path d="M81.489 48.7261L69.5565 39.4192H52.6137L29.4664 58.0328V66.6237L15.1479 78.3169L7.51143 97.4078L1.54541 108.624V118.646L13.9543 135.828L17.7725 143.465L23.0225 160.885L31.6134 190.715L58.3406 217.442L67.6474 220.783L77.9088 225.556L90.3179 231.999H97.477L105.829 235.817L111.079 234.146L118 237.01L122.295 235.817L125.636 229.135H129.693L130.886 235.817L139 239.158L148.307 234.146L152.602 229.135L161.431 227.703L168.352 220.783L178.613 215.533L193.238 207.181L204.386 195.965L212.977 179.499L214.17 160.885L217.272 158.737L220.375 153.01L223.954 147.283L235.886 135.828L238.988 131.294V123.658L233.5 115.306L218.466 87.8624L199.613 69.9647L200.806 66.6237L204.386 61.3738V53.976L188.636 37.9874L166.681 36.5555L154.272 45.1465" stroke="#FEFA02" stroke-width="3"/>
<path d="M42.3521 176.754H51.3012" stroke="#FEFA02" stroke-width="2"/>
<path d="M57.3857 195.368L74.0902 196.68" stroke="#FEFA02" stroke-width="2"/>
<path d="M30.4204 66.3851L50.4659 51.1123" stroke="#FEFA02" stroke-width="4"/>
<path d="M68.6021 48.9646L75.2842 51.5897" stroke="#FEFA02" stroke-width="4"/>
<path d="M3.93115 106.476L11.5675 103.612" stroke="#FEFA02" stroke-width="4"/>
<path d="M35.4319 112.203L25.4087 103.135" stroke="#FEFA02" stroke-width="4"/>
<path d="M45.4541 72.5896L46.8859 79.7487" stroke="#FEFA02" stroke-width="3"/>
<path d="M179.329 60.1805L198.658 70.2033" stroke="#FEFA02" stroke-width="4"/>
<path d="M208.92 83.8055L216.318 87.1464" stroke="#FEFA02" stroke-width="4"/>
<path d="M208.204 125.567L215.602 117.453L222.522 115.783" stroke="#FEFA02" stroke-width="4"/>
<path d="M21.5908 150.146L27.3179 153.726H31.3746L37.3405 147.521" stroke="#FEFA02" stroke-width="4"/>
<path d="M212.977 160.646L207.726 157.544L203.431 152.533" stroke="#FEFA02" stroke-width="4"/>
<circle cx="121.341" cy="125.328" r="84.8409" stroke="#FEFA02" stroke-width="5"/>
<path d="M77.3125 53.9761L76.4772 52.5443L92.2271 45.2659L90.4374 48.6067L92.2271 49.442L97.3578 48.6067L99.7442 51.2318H102.846H108.574L110.363 53.2602L113.108 55.05L113.943 59.5841L111.437 63.0443H109.051L106.665 59.5841L108.574 57.4363L106.068 55.05L103.682 56.1238L102.131 59.5841L100.579 61.4931L98.7896 59.5841L91.1533 63.0443L90.4374 65.7886L95.568 69.0102L94.8521 72.4704L96.0453 73.6636L98.0737 70.5613L100.579 69.0102L101.176 64.8341L105.233 63.0443L108.574 65.7886L112.392 66.6238L113.108 69.0102L118.596 72.4704V75.692L119.79 77.1238V81.4193L114.54 79.1522L115.852 75.692L106.665 77.8397L109.648 78.5556L110.363 81.4193H113.108V82.8511L106.068 84.9988V82.8511L94.3749 90.6068L92.2271 95.6181L87.5737 98.0045L85.6646 100.391L86.6192 108.147L85.6646 109.578L84.1135 108.147V104.328L79.1021 100.391L76.4771 101.226L73.2556 100.391L66.8124 102.897L64.3068 112.919L65.9771 115.902L68.9601 116.976L71.1078 114.948L73.2556 112.919L75.8806 114.351L73.2556 119.72V121.749L77.6703 122.703L79.1021 124.493V129.862L81.3692 132.368L84.1135 131.533L85.068 136.067L83.2783 134.754L82.0851 136.067L75.8806 131.533L73.2556 125.328L68.0056 122.703L65.9771 119.72L61.4431 118.289L56.7896 111.607V105.402L54.9999 101.226L54.0455 105.402L52.2554 101.942L54.0455 89.5329L56.7896 77.8397L64.3068 71.3965L72.301 59.5841L77.3125 53.9761Z" stroke="#FEFA02" stroke-width="2"/>
<path d="M114.778 48.9646V50.1579L118.716 51.2317L120.744 56.8397L118.716 58.7488L126.949 65.0726L128.261 60.0613L134.585 55.4078L133.75 53.3794V50.1579L130.886 48.9646L128.261 45.2658H123.727L114.778 48.9646Z" stroke="#FEFA02" stroke-width="2"/>
<path d="M142.341 56.1238L136.971 57.7942L142.341 60.8965L143.653 58.7488L142.341 56.1238Z" stroke="#FEFA02" stroke-width="2"/>
<path d="M136.971 43.834H133.75L135.182 45.2658L139.835 46.9363L140.67 46.1011L136.971 43.834Z" stroke="#FEFA02" stroke-width="2"/>
<path d="M151.886 46.9363L151.17 46.1011L151.886 44.6692L158.807 48.9646L168.71 53.3794L184.102 66.1465L190.784 73.7829L194.483 80.1067L199.971 90.4874L207.608 119.482L206.892 133.8L205.102 144.896L201.165 157.783L195.318 167.806V166.493L196.75 160.766L199.971 151.578V142.033L198.54 135.59V129.624L196.034 130.34L194.483 128.073H192.216L189.829 132.01H186.727L184.937 134.277L181.119 133.8L175.153 130.34L171.932 126.999V122.584V119.482V116.021L170.023 113.516L167.636 109.578V105.402L170.023 103.016L172.648 100.391L174.437 98.2431V96.6919L172.648 95.4988L171.932 92.8738V90.4874H173.841L176.346 89.6522L178.255 87.2658L179.568 84.8794L181.119 83.209L184.937 83.9249L187.562 87.2658H189.829H192.216V84.8794L194.483 82.4931L193.238 79.2715L190.784 76.7658L188.875 75.0954L186.727 72.351L187.562 70.6806L182.432 66.1465L184.937 73.7829L187.562 77.8397L186.727 79.2715L184.102 75.8113V78.5556L176.346 75.0954L173.841 80.1067L174.437 84.8794L170.619 87.2658L165.011 80.8226V79.2715L168.71 77.8397V75.8113L162.983 72.351L165.011 71.5158L165.846 69.1294H163.818H160.716L158.807 66.1465L158.091 70.6806H156.659L155.227 67.817L152.721 62.8056L154.034 60.8965L166.562 67.817V66.1465L167.636 62.8056L168.71 60.0613L162.983 56.1238H161.67L163.818 58.7488L165.011 61.851H162.983L161.67 60.0613L158.091 58.7488L155.227 56.8397V55.4078L150.096 51.2317L149.261 48.1295L151.886 46.9363Z" stroke="#FEFA02" stroke-width="2"/>
<path d="M91.6312 131.414L87.8126 132.607L87.0964 139.885L81.4888 147.641V153.129L91.0342 167.686L95.8069 171.266L98.4319 174.965L99.7444 192.385L99.1479 197.516L103.682 206.465L111.318 209.567V208.016L108.813 205.033L109.529 202.527L108.813 200.857L112.631 197.516L117.761 195.368L116.21 192.385L118.358 193.459L121.58 192.385L127.546 187.612L129.335 183.794L132.318 181.05L137.807 179.976L142.938 171.266L143.534 167.686L145.563 165.061L147.949 157.305L142.222 153.129L135.659 152.533L130.409 149.311H126.591V147.044L124.085 143.465L123.011 141.794L113.466 137.976L107.619 132.607H105.949L103.682 133.561L100.341 132.607L96.5229 130.101L94.7331 129.266L91.6312 131.414Z" stroke="#FEFA02" stroke-width="2"/>
<path d="M103.132 34.3533C100.973 34.4148 99.0103 34.2186 97.2447 33.7646C95.5031 33.31 93.9822 32.597 92.682 31.6256C91.4058 30.6535 90.4107 29.4334 89.6966 27.9651C88.9825 26.4968 88.5978 24.7911 88.5425 22.8479C88.4865 20.8807 88.7849 19.1315 89.4375 17.6003C90.1135 16.0444 91.0843 14.7202 92.3497 13.6278C93.6391 12.5346 95.1759 11.6986 96.9602 11.1196C98.7677 10.5159 100.775 10.1826 102.982 10.1198C105.597 10.0453 107.863 10.353 109.779 11.0427C111.695 11.7085 113.211 12.6857 114.328 13.9745C115.47 15.2625 116.138 16.8161 116.334 18.6353L111.728 18.7664C111.389 17.8157 110.849 17.0027 110.11 16.3275C109.393 15.6276 108.454 15.1021 107.292 14.751C106.129 14.376 104.731 14.2117 103.1 14.2581C101.013 14.3175 99.2351 14.7043 97.7668 15.4183C96.3225 16.1317 95.234 17.1111 94.5011 18.3565C93.7683 19.6018 93.4254 21.0522 93.4725 22.7075C93.5183 24.3149 93.8938 25.6967 94.599 26.8531C95.3035 27.9855 96.3603 28.8438 97.7695 29.4279C99.2027 30.0114 101.011 30.272 103.194 30.2099C104.873 30.1621 106.343 29.9042 107.602 29.4361C108.884 28.9435 109.947 28.313 110.789 27.5447C111.631 26.7524 112.218 25.8833 112.552 24.9375L114.403 24.2005C114.18 27.3041 113.073 29.7486 111.083 31.5339C109.117 33.3186 106.466 34.2584 103.132 34.3533ZM113.446 33.5915C113.425 32.8478 113.449 31.9948 113.518 31.0324C113.586 30.0461 113.677 29.0591 113.793 28.0714C113.909 27.0597 114.014 26.1323 114.11 25.2892L103.459 25.5925L103.372 22.5337L117.262 22.1383L117.585 33.4737L113.446 33.5915Z" fill="#FEFA02"/>
<path d="M138.208 10.6887C140.823 10.7652 142.996 11.1408 144.729 11.8158C146.463 12.4907 147.829 13.383 148.829 14.4927C149.854 15.5792 150.562 16.8244 150.953 18.2284C151.368 19.6331 151.553 21.1032 151.508 22.6385C151.463 24.1739 151.168 25.6419 150.623 27.0425C150.102 28.4439 149.285 29.6806 148.174 30.7525C147.086 31.8012 145.658 32.6238 143.888 33.2203C142.142 33.7936 140.022 34.0437 137.527 33.9707L124.213 33.5814L124.893 10.2994L138.208 10.6887ZM129.118 29.6191L137.539 29.8653C139.266 29.9158 140.7 29.7537 141.839 29.3788C143.003 28.9807 143.932 28.4316 144.624 27.7315C145.317 27.0315 145.821 26.2298 146.135 25.3266C146.45 24.4234 146.621 23.4801 146.65 22.4965C146.679 21.5129 146.562 20.5731 146.3 19.6771C146.038 18.781 145.582 17.9753 144.93 17.26C144.279 16.5446 143.384 15.9662 142.244 15.5247C141.128 15.0839 139.707 14.8383 137.98 14.7878L129.559 14.5416L129.118 29.6191Z" fill="#FEFA02"/>
</svg>
