<svg width="146" height="146" viewBox="0 0 146 146" fill="none" xmlns="http://www.w3.org/2000/svg">
<path d="M109.528 109.439C97.9663 81.1154 91.3156 66.9962 72.8408 73.8896C66.0382 92.3456 84.2008 97.9367 109.528 109.439Z" stroke="#62D14B" stroke-width="2"/>
<path d="M109.012 37.1928C80.689 48.7541 66.5698 55.4049 73.4632 73.8797C91.9192 80.6823 97.5103 62.5197 109.012 37.1928Z" fill="black" stroke="#62D14B" stroke-width="2"/>
<path d="M37.3337 110.004C47.9974 81.3308 54.2003 67.0091 72.8829 73.3174C80.2634 91.55 62.2858 97.7103 37.3337 110.004Z" fill="black" stroke="#62D14B" stroke-width="2"/>
<path d="M35.6682 37.8695C64.3417 48.5332 78.6634 54.736 72.3551 73.4187C54.1225 80.7991 47.9622 62.8216 35.6682 37.8695Z" fill="black" stroke="#62D14B" stroke-width="2"/>
<path d="M63.873 82.941L46.4529 100.919" stroke="#62D14B" stroke-width="2"/>
<path d="M59.373 87.5855L60.8004 93.9067" stroke="#62D14B" stroke-width="2"/>
<path d="M55.7412 91.3334L49.3782 90.1058" stroke="#62D14B" stroke-width="2"/>
<path d="M51.103 96.4196L51.2947 99.2197" stroke="#62D14B" stroke-width="2"/>
<path d="M48.4346 98.4816L45.6298 98.3782" stroke="#62D14B" stroke-width="2"/>
<path d="M77.2495 69.136L98.5182 47.1868" stroke="#62D14B" stroke-width="2"/>
<path d="M82.7441 63.4658L81.0015 55.7482" stroke="#62D14B" stroke-width="2"/>
<path d="M87.1782 58.8898L94.9469 60.3886" stroke="#62D14B" stroke-width="2"/>
<path d="M92.8413 52.6801L92.6072 49.2614" stroke="#62D14B" stroke-width="2"/>
<path d="M96.0991 50.1625L99.5235 50.2888" stroke="#62D14B" stroke-width="2"/>
<path d="M77.8301 78.7576L101.029 101.237" stroke="#62D14B" stroke-width="2"/>
<path d="M83.8228 84.5647L91.9797 82.7228" stroke="#62D14B" stroke-width="2"/>
<path d="M88.6592 89.2512L87.0751 97.4621" stroke="#62D14B" stroke-width="2"/>
<path d="M95.2227 95.2363L98.8359 94.9889" stroke="#62D14B" stroke-width="2"/>
<path d="M97.8833 98.68L97.7498 102.299" stroke="#62D14B" stroke-width="2"/>
<path d="M71.9634 72.5291L46.2612 47.6239" stroke="#62D14B" stroke-width="2"/>
<path d="M65.3237 66.0952L67.0788 56.9981" stroke="#62D14B" stroke-width="2"/>
<path d="M59.9653 60.9028L50.9281 62.9435" stroke="#62D14B" stroke-width="2"/>
<path d="M53.1084 53.8436L53.2563 49.8338" stroke="#62D14B" stroke-width="2"/>
<path d="M49.2021 51.0177L45.1989 51.2918" stroke="#62D14B" stroke-width="2"/>
<path d="M49.4205 50.9661C67.3609 57.6382 76.3216 61.5192 72.3747 73.2085C60.9669 77.8263 57.1126 66.5781 49.4205 50.9661Z" fill="black" stroke="#62D14B" stroke-width="2"/>
<path d="M95.9093 96.0134C88.6756 78.292 84.5144 69.4579 72.9551 73.771C68.6989 85.3185 80.0628 88.8167 95.9093 96.0134Z" fill="black" stroke="#62D14B" stroke-width="2"/>
<path d="M89.4872 56.4146C76.3507 61.7768 69.8022 64.8615 72.9994 73.4301C81.5593 76.5852 84.1525 68.1613 89.4872 56.4146Z" fill="black" stroke="#62D14B" stroke-width="2"/>
<path d="M56.3163 90.6467C61.2622 77.3479 64.1391 70.7054 72.8041 73.6312C76.2272 82.0876 67.8892 84.9447 56.3163 90.6467Z" fill="black" stroke="#62D14B" stroke-width="2"/>
<path d="M72.0371 72.4526L58.4494 59.2862" stroke="#62D14B" stroke-width="2"/>
<path d="M68.5273 69.0515L63.7497 70.1303" stroke="#62D14B" stroke-width="2"/>
<path d="M65.6943 66.3065L66.6222 61.4972" stroke="#62D14B" stroke-width="2"/>
<path d="M61.8501 62.8008L59.7338 62.9457" stroke="#62D14B" stroke-width="2"/>
<path d="M60.292 60.7837L60.3702 58.6638" stroke="#62D14B" stroke-width="2"/>
<path d="M73.4858 74.2915L87.0735 87.4579" stroke="#62D14B" stroke-width="2"/>
<path d="M76.9956 77.6926L76.0678 82.5018" stroke="#62D14B" stroke-width="2"/>
<path d="M79.8286 80.4379L84.6062 79.3591" stroke="#62D14B" stroke-width="2"/>
<path d="M83.4536 84.1698L83.3754 86.2897" stroke="#62D14B" stroke-width="2"/>
<path d="M85.5186 85.6637L87.6349 85.5188" stroke="#62D14B" stroke-width="2"/>
<path d="M72.9785 73.3644L83.432 62.5764" stroke="#62D14B" stroke-width="2"/>
<path d="M75.6792 70.5778L79.4975 71.3144" stroke="#62D14B" stroke-width="2"/>
<path d="M77.8584 68.3283L77.0019 64.5351" stroke="#62D14B" stroke-width="2"/>
<path d="M80.8213 65.4506L82.5044 65.5127" stroke="#62D14B" stroke-width="2"/>
<path d="M82.0078 63.8108L81.8928 62.1305" stroke="#62D14B" stroke-width="2"/>
<path d="M72.3203 74.0439L61.8668 84.832" stroke="#62D14B" stroke-width="2"/>
<path d="M69.6196 76.831L70.4762 80.6242" stroke="#62D14B" stroke-width="2"/>
<path d="M67.4404 79.0801L63.6221 78.3435" stroke="#62D14B" stroke-width="2"/>
<path d="M64.6572 82.1321L64.7723 83.8124" stroke="#62D14B" stroke-width="2"/>
<path d="M63.0557 83.3695L61.3726 83.3074" stroke="#62D14B" stroke-width="2"/>
</svg>
