<svg width="1005" height="1080" viewBox="0 0 1005 1080" fill="none" xmlns="http://www.w3.org/2000/svg">
<rect x="195.5" y="144.5" width="640" height="798" rx="50.5" stroke="#62D14B" stroke-width="5"/>
<path d="M868.713 37.2805C812.186 102.132 785.129 136.689 825.803 174.38C880.763 168.132 871.843 115.441 868.713 37.2805Z" stroke="#62D14B" stroke-width="5"/>
<path d="M687.891 129.917C752.742 186.445 787.3 213.502 824.99 172.828C818.743 117.868 766.052 126.787 687.891 129.917Z" fill="white" stroke="#62D14B" stroke-width="5"/>
<path d="M961.411 217.908C875.904 227.375 832.087 229.902 824.312 174.997C860.778 133.406 898.982 170.775 961.411 217.908Z" fill="white" stroke="#62D14B" stroke-width="5"/>
<path d="M782.324 313.294C772.856 227.788 770.33 183.971 825.234 176.195C866.825 212.662 829.456 250.865 782.324 313.294Z" fill="white" stroke="#62D14B" stroke-width="5"/>
<path d="M859.878 185.461L927.061 206.488" stroke="#62D14B" stroke-width="3"/>
<path d="M877.233 190.893L891.307 179.315" stroke="#62D14B" stroke-width="3"/>
<path d="M891.24 195.277L896.202 212.812" stroke="#62D14B" stroke-width="3"/>
<path d="M909.88 200.496L916.671 196.475" stroke="#62D14B" stroke-width="3"/>
<path d="M918.433 204.593L921.719 211.769" stroke="#62D14B" stroke-width="3"/>
<path d="M808.289 169.314L726.264 143.641" stroke="#62D14B" stroke-width="3"/>
<path d="M787.099 162.682L769.917 176.817" stroke="#62D14B" stroke-width="3"/>
<path d="M769.998 157.329L763.941 135.92" stroke="#62D14B" stroke-width="3"/>
<path d="M747.24 150.957L738.949 155.867" stroke="#62D14B" stroke-width="3"/>
<path d="M736.797 145.955L732.785 137.194" stroke="#62D14B" stroke-width="3"/>
<path d="M831.722 155.693L858.856 68.9993" stroke="#62D14B" stroke-width="3"/>
<path d="M838.732 133.297L823.792 115.137" stroke="#62D14B" stroke-width="3"/>
<path d="M844.389 115.223L867.017 108.82" stroke="#62D14B" stroke-width="3"/>
<path d="M851.124 91.1688L845.934 82.4055" stroke="#62D14B" stroke-width="3"/>
<path d="M856.411 80.1323L865.671 75.8916" stroke="#62D14B" stroke-width="3"/>
<path d="M823.494 178.303L793.432 274.353" stroke="#62D14B" stroke-width="3"/>
<path d="M815.728 203.116L790.658 210.209" stroke="#62D14B" stroke-width="3"/>
<path d="M809.46 223.141L826.012 243.262" stroke="#62D14B" stroke-width="3"/>
<path d="M800.398 249.29L790.139 253.988" stroke="#62D14B" stroke-width="3"/>
<path d="M798.238 262.674L803.988 272.384" stroke="#62D14B" stroke-width="3"/>
<path d="M797.833 262.19C791.909 208.691 790.329 181.276 824.681 176.41C850.704 199.227 827.323 223.13 797.833 262.19Z" fill="white" stroke="#62D14B" stroke-width="5"/>
<path d="M852.208 88.4612C816.84 129.037 799.911 150.659 825.36 174.241C859.747 170.332 854.167 137.365 852.208 88.4612Z" fill="white" stroke="#62D14B" stroke-width="5"/>
<path d="M760.861 154.66C790.939 180.878 806.967 193.427 824.448 174.562C821.55 149.072 797.112 153.209 760.861 154.66Z" fill="white" stroke="#62D14B" stroke-width="5"/>
<path d="M888.787 194.7C849.129 199.091 828.806 200.263 825.2 174.798C842.113 155.508 859.832 172.84 888.787 194.7Z" fill="white" stroke="#62D14B" stroke-width="5"/>
<path d="M823.209 178.214L807.316 228.991" stroke="#62D14B" stroke-width="3"/>
<path d="M819.104 191.331L827.854 201.968" stroke="#62D14B" stroke-width="3"/>
<path d="M815.79 201.918L802.537 205.668" stroke="#62D14B" stroke-width="3"/>
<path d="M811.845 216.006L814.884 221.139" stroke="#62D14B" stroke-width="3"/>
<path d="M808.749 222.471L803.325 224.954" stroke="#62D14B" stroke-width="3"/>
<path d="M825.997 172.252L841.89 121.475" stroke="#62D14B" stroke-width="3"/>
<path d="M830.103 159.134L843.356 155.385" stroke="#62D14B" stroke-width="3"/>
<path d="M833.416 148.548L824.666 137.911" stroke="#62D14B" stroke-width="3"/>
<path d="M838.207 134.725L843.631 132.241" stroke="#62D14B" stroke-width="3"/>
<path d="M839.349 127.648L836.309 122.516" stroke="#62D14B" stroke-width="3"/>
<path d="M824.31 174.697L783.995 162.079" stroke="#62D14B" stroke-width="3"/>
<path d="M813.895 171.437L810.918 160.915" stroke="#62D14B" stroke-width="3"/>
<path d="M805.49 168.807L797.045 175.754" stroke="#62D14B" stroke-width="3"/>
<path d="M794.515 165.003L792.543 160.697" stroke="#62D14B" stroke-width="3"/>
<path d="M788.896 164.096L784.821 166.51" stroke="#62D14B" stroke-width="3"/>
<path d="M826.848 175.492L867.163 188.11" stroke="#62D14B" stroke-width="3"/>
<path d="M837.263 178.752L845.708 171.804" stroke="#62D14B" stroke-width="3"/>
<path d="M845.668 181.382L848.646 191.905" stroke="#62D14B" stroke-width="3"/>
<path d="M856.854 184.514L860.929 182.101" stroke="#62D14B" stroke-width="3"/>
<path d="M861.986 186.973L863.958 191.279" stroke="#62D14B" stroke-width="3"/>
<path d="M322.595 841.666C237.237 852.39 194.038 860.146 199.274 915.35C244.43 947.296 272.871 902.052 322.595 841.666Z" stroke="#62D14B" stroke-width="5"/>
<path d="M126.018 790.33C136.741 875.689 144.497 918.888 199.702 913.652C231.647 868.496 186.403 840.054 126.018 790.33Z" fill="white" stroke="#62D14B" stroke-width="5"/>
<path d="M271.434 1038.14C201.348 988.25 166.982 960.951 197.75 914.818C252.653 908.083 256.26 961.402 271.434 1038.14Z" fill="white" stroke="#62D14B" stroke-width="5"/>
<path d="M74.3191 990.01C124.209 919.924 151.508 885.557 197.641 916.326C204.375 971.228 151.056 974.836 74.3191 990.01Z" fill="white" stroke="#62D14B" stroke-width="5"/>
<path d="M217.31 946.311L253.417 1006.74" stroke="#62D14B" stroke-width="3"/>
<path d="M226.638 961.923L244.846 962.66" stroke="#62D14B" stroke-width="3"/>
<path d="M234.166 974.522L226.187 990.906" stroke="#62D14B" stroke-width="3"/>
<path d="M244.593 990.83L252.337 992.353" stroke="#62D14B" stroke-width="3"/>
<path d="M248.244 999.583L245.916 1007.12" stroke="#62D14B" stroke-width="3"/>
<path d="M189.583 899.907L145.499 826.125" stroke="#62D14B" stroke-width="3"/>
<path d="M178.195 880.847L155.964 879.946" stroke="#62D14B" stroke-width="3"/>
<path d="M169.004 865.464L178.745 845.46" stroke="#62D14B" stroke-width="3"/>
<path d="M156.273 845.553L146.818 843.693" stroke="#62D14B" stroke-width="3"/>
<path d="M151.815 834.866L154.658 825.659" stroke="#62D14B" stroke-width="3"/>
<path d="M216.136 905.354L294.117 858.761" stroke="#62D14B" stroke-width="3"/>
<path d="M236.281 893.318L237.233 869.821" stroke="#62D14B" stroke-width="3"/>
<path d="M252.539 883.604L273.681 893.899" stroke="#62D14B" stroke-width="3"/>
<path d="M273.583 870.148L275.549 860.154" stroke="#62D14B" stroke-width="3"/>
<path d="M284.877 865.436L294.609 868.441" stroke="#62D14B" stroke-width="3"/>
<path d="M194.938 916.74L108.542 968.361" stroke="#62D14B" stroke-width="3"/>
<path d="M172.619 930.075L149.195 918.669" stroke="#62D14B" stroke-width="3"/>
<path d="M154.606 940.838L153.552 966.87" stroke="#62D14B" stroke-width="3"/>
<path d="M130.431 954.306L119.649 950.977" stroke="#62D14B" stroke-width="3"/>
<path d="M119.905 962.852L117.727 973.923" stroke="#62D14B" stroke-width="3"/>
<path d="M119.925 962.221C151.139 918.369 168.22 896.867 197.084 916.118C201.298 950.469 167.937 952.726 119.925 962.221Z" fill="white" stroke="#62D14B" stroke-width="5"/>
<path d="M276.195 868.85C222.788 875.559 195.76 880.412 199.036 914.952C227.289 934.94 245.084 906.632 276.195 868.85Z" fill="white" stroke="#62D14B" stroke-width="5"/>
<path d="M163.967 857.387C168.94 896.977 172.537 917.012 198.141 914.584C212.958 893.64 191.974 880.449 163.967 857.387Z" fill="white" stroke="#62D14B" stroke-width="5"/>
<path d="M232.721 972.458C200.214 949.319 184.275 936.658 198.546 915.261C224.01 912.137 225.683 936.867 232.721 972.458Z" fill="white" stroke="#62D14B" stroke-width="5"/>
<path d="M194.785 916.483L149.111 943.773" stroke="#62D14B" stroke-width="3"/>
<path d="M182.986 923.533L182.428 937.295" stroke="#62D14B" stroke-width="3"/>
<path d="M173.463 929.222L161.08 923.192" stroke="#62D14B" stroke-width="3"/>
<path d="M161.137 937.103L159.986 942.957" stroke="#62D14B" stroke-width="3"/>
<path d="M154.522 939.863L148.822 938.103" stroke="#62D14B" stroke-width="3"/>
<path d="M200.836 913.893L246.51 886.602" stroke="#62D14B" stroke-width="3"/>
<path d="M212.635 906.843L225.018 912.873" stroke="#62D14B" stroke-width="3"/>
<path d="M222.158 901.153L222.715 887.391" stroke="#62D14B" stroke-width="3"/>
<path d="M234.938 894.033L240.638 895.793" stroke="#62D14B" stroke-width="3"/>
<path d="M240.503 889.515L241.654 883.662" stroke="#62D14B" stroke-width="3"/>
<path d="M197.948 914.593L176.281 878.329" stroke="#62D14B" stroke-width="3"/>
<path d="M192.351 905.224L197.139 895.393" stroke="#62D14B" stroke-width="3"/>
<path d="M187.833 897.664L176.907 897.221" stroke="#62D14B" stroke-width="3"/>
<path d="M182.181 887.517L183.578 882.991" stroke="#62D14B" stroke-width="3"/>
<path d="M178.594 883.098L173.947 882.184" stroke="#62D14B" stroke-width="3"/>
<path d="M199.313 916.876L220.98 953.14" stroke="#62D14B" stroke-width="3"/>
<path d="M204.911 926.245L215.837 926.687" stroke="#62D14B" stroke-width="3"/>
<path d="M209.428 933.805L204.641 943.637" stroke="#62D14B" stroke-width="3"/>
<path d="M215.685 943.591L220.332 944.505" stroke="#62D14B" stroke-width="3"/>
<path d="M217.876 948.844L216.479 953.369" stroke="#62D14B" stroke-width="3"/>
</svg>
