<svg width="267" height="267" viewBox="0 0 267 267" fill="none" xmlns="http://www.w3.org/2000/svg">
<path d="M37.0448 76.1464L39.9441 77.9603L37.5415 81.8006L34.6422 79.9867L37.0448 76.1464Z" fill="#FEFA02"/>
<path d="M236.604 81.9495L233.705 83.7633L231.303 79.9229L234.202 78.1091L236.604 81.9495Z" fill="#FEFA02"/>
<path d="M134.462 250.748V254.168H129.932V250.748H134.462Z" fill="#FEFA02"/>
<path d="M123.908 243.413L120.338 242.953C120.207 242.251 119.832 241.638 119.214 241.115C118.573 240.609 117.697 240.284 116.586 240.141C115.833 240.044 115.239 240.038 114.804 240.123C114.37 240.208 114.057 240.369 113.865 240.607C113.67 240.864 113.551 241.161 113.508 241.499C113.454 241.915 113.542 242.249 113.772 242.501C113.999 242.772 114.372 243.011 114.889 243.219C115.407 243.427 116.075 243.644 116.892 243.871C117.708 244.117 118.489 244.389 119.237 244.687C119.985 244.985 120.636 245.331 121.191 245.725C121.742 246.139 122.165 246.617 122.458 247.159C122.729 247.718 122.817 248.364 122.722 249.098C122.63 249.812 122.38 250.426 121.971 250.937C121.542 251.447 120.996 251.85 120.333 252.148C119.649 252.443 118.878 252.636 118.02 252.727C117.141 252.816 116.216 252.797 115.244 252.672C113.776 252.483 112.584 252.108 111.669 251.546C110.75 251.004 110.103 250.316 109.727 249.481C109.328 248.663 109.192 247.758 109.32 246.767L112.742 247.207C112.806 247.962 113.056 248.528 113.491 248.907C113.923 249.306 114.636 249.569 115.627 249.697C116.599 249.822 117.353 249.768 117.887 249.534C118.421 249.3 118.721 248.926 118.788 248.41C118.841 247.993 118.735 247.647 118.468 247.371C118.179 247.111 117.746 246.874 117.168 246.659C116.571 246.441 115.827 246.193 114.935 245.917C114.182 245.659 113.471 245.386 112.802 245.098C112.113 244.807 111.512 244.468 110.997 244.079C110.48 243.71 110.096 243.247 109.845 242.69C109.572 242.151 109.485 241.494 109.585 240.721C109.708 239.769 110.089 239.001 110.729 238.418C111.349 237.833 112.187 237.426 113.245 237.2C114.3 236.993 115.532 236.98 116.94 237.162C118.19 237.323 119.254 237.591 120.133 237.966C120.99 238.359 121.689 238.802 122.231 239.295C122.77 239.808 123.177 240.325 123.453 240.844C123.706 241.381 123.865 241.875 123.927 242.327C123.99 242.779 123.984 243.141 123.908 243.413Z" fill="#FEFA02"/>
<path d="M103.026 233.997C104.448 234.406 105.657 235.087 106.652 236.039C107.623 237.005 108.294 238.145 108.665 239.459C109.011 240.787 108.972 242.191 108.546 243.671C108.109 245.189 107.384 246.406 106.371 247.322C105.358 248.237 104.177 248.834 102.828 249.111C101.454 249.403 100.017 249.333 98.5179 248.901C96.865 248.426 95.6356 247.708 94.8298 246.747C93.9992 245.801 93.5164 244.694 93.3815 243.427C93.2466 242.16 93.381 240.826 93.7848 239.423C94.0281 238.577 94.4116 237.751 94.9351 236.944C95.4531 236.157 96.0986 235.468 96.8717 234.879C97.6393 234.309 98.5411 233.923 99.5772 233.722C100.608 233.54 101.757 233.632 103.026 233.997ZM100.985 236.531C99.8513 236.205 98.8158 236.115 97.8787 236.261C96.9416 236.408 96.1525 236.764 95.5113 237.328C94.8701 237.893 94.4195 238.627 94.1596 239.53C93.8775 240.511 93.8703 241.403 94.1379 242.209C94.3809 243.028 94.8658 243.73 95.5927 244.313C96.2948 244.911 97.2129 245.373 98.3469 245.699C99.9421 246.158 101.303 246.092 102.431 245.501C103.553 244.929 104.313 243.951 104.711 242.567C104.977 241.644 104.998 240.776 104.774 239.963C104.545 239.168 104.111 238.471 103.472 237.871C102.813 237.265 101.985 236.819 100.985 236.531ZM92.0936 246.709L88.3458 245.63L92.4693 231.302L95.9577 232.306C95.9577 232.306 95.934 232.497 95.8865 232.879C95.8144 233.274 95.7145 233.766 95.587 234.353C95.4595 234.941 95.3156 235.513 95.1552 236.071L92.0936 246.709Z" fill="#FEFA02"/>
<path d="M84.5414 229.744L85.818 230.343L75.6269 239.215L71.7699 237.407L84.5919 226.951L87.9328 228.518L87.9583 244.998L84.0742 243.177L84.5414 229.744Z" fill="#FEFA02"/>
<path d="M63.7578 239.505L65.564 236.601L69.4107 238.994L67.6044 241.898L63.7578 239.505ZM70.8038 236.186L67.4921 234.126L75.3668 221.465L78.6785 223.525L70.8038 236.186Z" fill="#FEFA02"/>
<path d="M62.1159 230.526L59.0847 228.072L68.4665 216.484L71.4977 218.938L62.1159 230.526ZM53.4909 223.968C52.7759 223.39 52.1908 222.761 51.7356 222.084C51.2803 221.407 50.9846 220.691 50.8485 219.938C50.7123 219.184 50.7652 218.404 51.0073 217.596C51.2368 216.804 51.6851 215.996 52.3521 215.172L58.0906 208.084L61.1218 210.538L55.8174 217.09C55.0246 218.069 54.6866 218.979 54.8035 219.82C54.8923 220.664 55.473 221.52 56.5456 222.388C57.3539 223.043 58.2103 223.479 59.1149 223.697C60.0194 223.914 60.8689 223.946 61.6631 223.791C62.4448 223.652 63.0744 223.351 63.5519 222.888L62.6125 224.096C62.0943 224.578 61.4876 224.961 60.7926 225.248C60.0975 225.534 59.3469 225.699 58.5408 225.741C57.7065 225.786 56.8623 225.668 56.0081 225.389C55.1538 225.109 54.3148 224.635 53.4909 223.968Z" fill="#FEFA02"/>
<path d="M51.9562 203.897C53.0352 205.105 53.8086 206.332 54.2764 207.577C54.716 208.82 54.8041 210.014 54.5409 211.161C54.2777 212.308 53.6389 213.334 52.6244 214.24C51.6249 215.132 50.5398 215.659 49.3692 215.819C48.1986 215.979 47.0057 215.784 45.7903 215.234C44.5616 214.669 43.3945 213.767 42.2889 212.529C41.9826 212.185 41.7119 211.837 41.4769 211.484C41.2286 211.116 41.0019 210.742 40.7968 210.362L35.804 204.725L37.9971 202.767C38.6913 203.514 39.2945 204.37 39.8065 205.334C40.2903 206.296 40.6793 207.182 40.9734 207.992L40.8767 208.199C40.6625 207.479 40.5346 206.735 40.493 205.968C40.4366 205.214 40.5197 204.496 40.7424 203.815C40.9369 203.132 41.3325 202.524 41.9292 201.991C42.8989 201.125 43.9542 200.625 45.0949 200.492C46.2208 200.371 47.3764 200.599 48.5619 201.176C49.7192 201.752 50.8506 202.659 51.9562 203.897ZM54.9077 194.545L54.3706 195.025C53.6844 195.638 53.4068 196.288 53.5379 196.975C53.6556 197.647 54.0542 198.364 54.7335 199.125L57.8305 202.593C58.4299 203.265 58.8839 203.878 59.1924 204.434C59.4875 204.975 59.658 205.466 59.7039 205.908C59.7497 206.349 59.6916 206.75 59.5296 207.109C59.3826 207.455 59.1599 207.761 58.8615 208.027C58.2648 208.56 57.644 208.766 56.9993 208.644C56.3397 208.536 55.6646 208.201 54.9741 207.637C54.2836 207.074 53.6152 206.371 52.9689 205.527L51.9562 203.897C52.8253 204.81 53.5334 205.438 54.0806 205.781C54.5995 206.122 55.0455 206.126 55.4185 205.793C55.6422 205.593 55.7413 205.344 55.7158 205.045C55.6753 204.759 55.5085 204.452 55.2155 204.124L51.9586 200.476C51.0662 199.477 50.4113 198.533 49.9941 197.646C49.5785 196.73 49.4578 195.859 49.6321 195.033C49.8212 194.194 50.3633 193.374 51.2585 192.575L52.3102 191.636L54.9077 194.545ZM49.8527 205.775C49.2799 205.134 48.676 204.667 48.0409 204.377C47.3924 204.071 46.7544 203.957 46.1267 204.034C45.4842 204.126 44.8869 204.418 44.3349 204.91C43.768 205.417 43.403 205.984 43.24 206.612C43.0769 207.24 43.1041 207.886 43.3215 208.55C43.524 209.227 43.9182 209.894 44.5043 210.551C45.0771 211.192 45.6952 211.659 46.3585 211.952C47.007 212.257 47.6525 212.365 48.295 212.274C48.9376 212.183 49.5424 211.884 50.1093 211.378C50.6613 210.885 51.0188 210.324 51.1818 209.696C51.3299 209.081 51.2953 208.442 51.0779 207.778C50.8472 207.099 50.4388 206.432 49.8527 205.775Z" fill="#FEFA02"/>
<path d="M30.7106 195.711L24.8681 185.229L27.4623 183.783L33.3048 194.265L30.7106 195.711ZM20.7936 190.798L19.2892 188.099L22.0406 186.565L23.0923 188.452C23.3572 188.968 23.653 189.376 23.9798 189.674C24.3066 189.973 24.6895 190.126 25.1285 190.133C25.5501 190.15 26.0578 189.993 26.6518 189.662L39.9635 182.242L41.8623 185.648L28.1314 193.302C27.0832 193.886 26.1201 194.171 25.242 194.157C24.3465 194.152 23.5322 193.862 22.799 193.286C22.0658 192.71 21.3974 191.881 20.7936 190.798Z" fill="#FEFA02"/>
<path d="M34.448 168.621C35.1204 170.377 35.4339 172.035 35.3886 173.594C35.3362 175.135 34.9207 176.482 34.1423 177.637C33.3451 178.799 32.1621 179.681 30.5932 180.281C29.0244 180.882 27.5552 181.017 26.1858 180.684C24.7978 180.359 23.5696 179.641 22.5015 178.53C21.4261 177.399 20.5523 175.957 19.8799 174.201C19.2075 172.445 18.9011 170.806 18.9607 169.284C19.0131 167.744 19.4473 166.389 20.2631 165.22C21.0602 164.058 22.2432 163.176 23.8121 162.576C25.381 161.975 26.8501 161.84 28.2195 162.173C29.5702 162.512 30.7797 163.237 31.8479 164.349C32.9089 165.442 33.7756 166.866 34.448 168.621ZM31.6464 169.694C31.2745 168.723 30.7738 167.919 30.1443 167.282C29.489 166.634 28.7487 166.21 27.9233 166.012C27.0792 165.822 26.181 165.909 25.2284 166.274C24.2759 166.638 23.5493 167.174 23.0486 167.879C22.5292 168.592 22.2387 169.4 22.1771 170.301C22.1155 171.203 22.2743 172.149 22.6534 173.139C23.0254 174.11 23.539 174.92 24.1943 175.568C24.8496 176.217 25.6028 176.646 26.454 176.855C27.2981 177.046 28.2057 176.955 29.1769 176.583C30.1295 176.219 30.8561 175.683 31.3568 174.977C31.8388 174.279 32.107 173.469 32.1615 172.549C32.1972 171.636 32.0255 170.684 31.6464 169.694Z" fill="#FEFA02"/>
<path d="M16.9256 163.405L16.0513 159.604L30.5818 156.261L31.4561 160.062L16.9256 163.405ZM17.895 153.3C18.1461 154.392 18.578 155.288 19.1906 155.988C19.7837 156.693 20.4385 157.22 21.1548 157.568C21.8711 157.916 22.5343 158.123 23.1443 158.188L21.5431 158.587C21.3047 158.621 20.9457 158.622 20.466 158.588C19.9668 158.56 19.4227 158.469 18.8337 158.317C18.2252 158.17 17.6257 157.928 17.0353 157.592C16.4254 157.26 15.8906 156.809 15.4308 156.237C14.971 155.666 14.6424 154.951 14.4451 154.094L17.895 153.3Z" fill="#FEFA02"/>
<path d="M22.9314 135.728L22.5934 131.963C23.6236 132.031 24.5684 132.378 25.4278 133.003C26.2854 133.609 26.9961 134.479 27.5597 135.613C28.1234 136.747 28.4813 138.161 28.6333 139.854C28.8032 141.747 28.6547 143.447 28.1876 144.954C27.7007 146.464 26.9162 147.679 25.8342 148.6C24.7522 149.52 23.3944 150.054 21.761 150.2C20.1276 150.347 18.6974 150.074 17.4705 149.381C16.2237 148.689 15.2281 147.664 14.4835 146.305C13.7373 144.927 13.2783 143.281 13.1066 141.369C12.9313 139.417 13.0943 137.765 13.5955 136.415C14.0968 135.065 14.9472 134.025 16.1467 133.295C17.3245 132.546 18.8839 132.135 20.8251 132.061L22.0968 146.224C22.8448 146.057 23.507 145.716 24.0834 145.202C24.658 144.669 25.0888 143.988 25.3758 143.159C25.661 142.31 25.7535 141.328 25.6534 140.212C25.5425 138.977 25.2412 137.97 24.7496 137.191C24.2362 136.393 23.6302 135.906 22.9314 135.728ZM16.0808 141.282C16.2095 142.717 16.6329 143.853 17.3508 144.693C18.0488 145.533 18.8676 146.042 19.8072 146.219L18.9003 136.12C17.9133 136.309 17.1694 136.857 16.6686 137.766C16.1461 138.656 15.9502 139.828 16.0808 141.282Z" fill="#FEFA02"/>
<path d="M23.1021 132.091L23.3158 128.497C24.0077 128.318 24.5934 127.902 25.073 127.249C25.5339 126.575 25.7975 125.679 25.864 124.561C25.9092 123.803 25.8743 123.21 25.7595 122.782C25.6447 122.354 25.4623 122.053 25.2122 121.878C24.9422 121.701 24.6375 121.603 24.2981 121.583C23.8789 121.558 23.5517 121.669 23.3167 121.915C23.0617 122.161 22.8482 122.549 22.6764 123.079C22.5046 123.61 22.3339 124.291 22.1642 125.123C21.9746 125.953 21.7568 126.751 21.5108 127.518C21.2648 128.285 20.9643 128.958 20.6092 129.538C20.2342 130.117 19.7865 130.571 19.266 130.901C18.7267 131.209 18.0877 131.341 17.349 131.298C16.6303 131.255 16.0015 131.047 15.4627 130.674C14.925 130.282 14.485 129.765 14.1425 129.123C13.8011 128.462 13.5556 127.706 13.4058 126.856C13.2572 125.985 13.2121 125.061 13.2702 124.083C13.3581 122.605 13.6508 121.39 14.1482 120.438C14.6257 119.485 15.2679 118.792 16.0751 118.359C16.8634 117.905 17.7567 117.708 18.7549 117.767L18.5501 121.211C17.8019 121.327 17.2538 121.615 16.9059 122.075C16.538 122.534 16.3243 123.262 16.265 124.261C16.2068 125.239 16.3126 125.987 16.5823 126.504C16.8521 127.02 17.2465 127.294 17.7656 127.325C18.1849 127.35 18.5232 127.22 18.7806 126.935C19.0192 126.628 19.2262 126.18 19.4016 125.589C19.5782 124.979 19.7736 124.219 19.988 123.31C20.194 122.541 20.4176 121.813 20.6588 121.126C20.9012 120.419 21.1988 119.796 21.5515 119.256C21.8842 118.715 22.3196 118.3 22.8577 118.011C23.377 117.701 24.026 117.57 24.8046 117.616C25.7629 117.673 26.5548 118.001 27.1804 118.599C27.8072 119.177 28.27 119.986 28.5688 121.026C28.8476 122.064 28.9449 123.292 28.8605 124.709C28.7857 125.967 28.5912 127.048 28.277 127.951C27.9441 128.832 27.5502 129.56 27.0953 130.134C26.6204 130.707 26.1333 131.149 25.634 131.46C25.1159 131.75 24.6336 131.941 24.1873 132.035C23.7409 132.129 23.3792 132.147 23.1021 132.091Z" fill="#FEFA02"/>
<path d="M14.5316 115.684L16.6806 104.305L19.6579 104.867L17.509 116.246L14.5316 115.684ZM11.2351 111.153L11.9588 107.321L30.619 110.845L29.8952 114.677L11.2351 111.153Z" fill="#FEFA02"/>
<path d="M27.0662 104.446L28.1778 101.021C28.8925 101.022 29.5641 100.767 30.1925 100.256C30.8081 99.72 31.2889 98.9193 31.6347 97.854C31.8693 97.1312 31.9849 96.5484 31.9815 96.1057C31.978 95.663 31.8773 95.3254 31.6794 95.0929C31.4625 94.8543 31.1923 94.6825 30.869 94.5775C30.4695 94.4478 30.125 94.4727 29.8354 94.652C29.5269 94.8252 29.2227 95.147 28.9228 95.6174C28.6229 96.0878 28.2862 96.7039 27.9127 97.4658C27.5202 98.2216 27.1084 98.9395 26.6773 99.6196C26.2462 100.3 25.7859 100.876 25.2962 101.348C24.7876 101.813 24.2399 102.14 23.6532 102.328C23.0536 102.491 22.4019 102.458 21.6981 102.23C21.0132 102.007 20.457 101.648 20.0294 101.152C19.6079 100.636 19.3121 100.025 19.1421 99.3183C18.9783 98.5922 18.931 97.7988 19.0001 96.9381C19.0754 96.0584 19.2644 95.1525 19.567 94.2203C20.024 92.8127 20.613 91.7107 21.3341 90.9144C22.0362 90.112 22.8323 89.6029 23.7224 89.3872C24.5996 89.1463 25.5138 89.1803 26.4649 89.489L25.3997 92.7705C24.6464 92.6942 24.0435 92.8349 23.5909 93.1926C23.1194 93.5442 22.7292 94.1955 22.4204 95.1467C22.1178 96.0788 22.032 96.8289 22.1629 97.3971C22.2939 97.9653 22.6067 98.3297 23.1013 98.4903C23.5007 98.62 23.8609 98.5792 24.1818 98.3679C24.4899 98.1315 24.8031 97.7496 25.1215 97.2221C25.4461 96.6756 25.8266 95.9896 26.2628 95.1639C26.6558 94.4714 27.0555 93.8232 27.4619 93.2191C27.8744 92.5961 28.3194 92.0676 28.7966 91.6338C29.2549 91.1938 29.7807 90.9019 30.3741 90.7581C30.9547 90.5891 31.6159 90.625 32.3578 90.8658C33.2709 91.1623 33.9548 91.6787 34.4097 92.4151C34.8707 93.1325 35.1149 94.0319 35.1424 95.1132C35.1508 96.1883 34.9358 97.4012 34.4974 98.7518C34.1083 99.9503 33.6481 100.947 33.1167 101.742C32.5725 102.511 32.008 103.116 31.4233 103.557C30.8195 103.992 30.2369 104.297 29.6754 104.472C29.101 104.622 28.586 104.687 28.1305 104.665C27.6749 104.643 27.3202 104.57 27.0662 104.446Z" fill="#FEFA02"/>
<path d="M45.4136 67.3164L47.7121 64.5457C48.3759 64.8106 49.0942 64.8218 49.8671 64.5794C50.6372 64.3088 51.3799 63.7425 52.095 62.8805C52.5802 62.2956 52.903 61.7968 53.0635 61.3842C53.2239 60.9715 53.2551 60.6206 53.1571 60.3315C53.0438 60.0296 52.8563 59.7701 52.5946 59.553C52.2714 59.2848 51.9421 59.1806 51.6068 59.2402C51.256 59.2871 50.8544 59.4736 50.4019 59.7998C49.9494 60.1261 49.4088 60.5741 48.7801 61.144C48.136 61.7011 47.488 62.216 46.8361 62.6886C46.1841 63.1612 45.5435 63.5263 44.9141 63.7837C44.2693 64.0284 43.6396 64.1297 43.0249 64.0875C42.4076 64.0172 41.8142 63.7458 41.2447 63.2733C40.6905 62.8136 40.3065 62.2741 40.0926 61.6549C39.8915 61.0203 39.8426 60.3431 39.946 59.6233C40.0621 58.8881 40.3114 58.1334 40.6938 57.3592C41.089 56.5696 41.5994 55.7977 42.2251 55.0435C43.1701 53.9044 44.1247 53.0982 45.0891 52.6249C46.038 52.1388 46.9659 51.9601 47.8727 52.0886C48.7769 52.1891 49.6138 52.5585 50.3834 53.197L48.1807 55.8523C47.509 55.5029 46.8967 55.4108 46.344 55.5759C45.7758 55.7283 45.1725 56.1893 44.534 56.9589C43.9083 57.7132 43.5513 58.3785 43.463 58.9548C43.3746 59.5312 43.5305 59.9854 43.9308 60.3174C44.254 60.5855 44.6038 60.6808 44.98 60.6031C45.3536 60.4973 45.7859 60.2582 46.2767 59.8858C46.7803 59.498 47.3874 59.0012 48.0979 58.3953C48.7191 57.8971 49.3301 57.4425 49.931 57.0314C50.5446 56.605 51.1533 56.2784 51.7572 56.0517C52.3456 55.8123 52.9421 55.7354 53.5466 55.8212C54.1485 55.8787 54.7496 56.1565 55.35 56.6545C56.0888 57.2675 56.5334 58.0001 56.6839 58.8525C56.847 59.6895 56.7415 60.6155 56.3674 61.6303C55.9778 62.6325 55.3297 63.68 54.423 64.7729C53.6186 65.7426 52.8226 66.4985 52.0351 67.0406C51.2449 67.5545 50.4967 67.9082 49.7904 68.1019C49.0686 68.2827 48.4145 68.3507 47.828 68.3059C47.2389 68.233 46.7367 68.1022 46.3214 67.9136C45.9062 67.7251 45.6035 67.526 45.4136 67.3164Z" fill="#FEFA02"/>
<path d="M64.5405 54.7092C63.4339 55.692 62.212 56.3492 60.8748 56.6808C59.5393 56.9841 58.2172 56.9412 56.9086 56.552C55.6016 56.1345 54.4369 55.3501 53.4142 54.1986C52.3651 53.0172 51.7245 51.7538 51.4926 50.4084C51.2606 49.063 51.3883 47.7459 51.8755 46.4573C52.3643 45.1404 53.192 43.964 54.3584 42.9281C55.6444 41.7859 56.9087 41.1313 58.1511 40.9641C59.3952 40.7686 60.5885 40.9527 61.731 41.5162C62.8734 42.0797 63.9294 42.9073 64.8989 43.999C65.4832 44.657 65.9762 45.4229 66.3778 46.2967C66.766 47.1555 67.0023 48.0691 67.0866 49.0375C67.1576 49.9909 67.0011 50.9591 66.617 51.9422C66.2196 52.9103 65.5274 53.8327 64.5405 54.7092ZM63.4904 51.6294C64.3727 50.8459 65.0026 50.019 65.38 49.1488C65.7574 48.2787 65.879 47.4217 65.7448 46.5779C65.6107 45.7341 65.2315 44.9608 64.6073 44.258C63.93 43.4953 63.1795 43.0117 62.3557 42.807C61.5337 42.5741 60.6816 42.6086 59.7995 42.9105C58.9191 43.1842 58.0378 43.7128 57.1555 44.4964C55.9143 45.5987 55.242 46.7843 55.1385 48.0532C55.0216 49.3071 55.4413 50.4724 56.3976 51.5491C57.035 52.2669 57.7573 52.7489 58.5644 52.995C59.3582 53.2262 60.1795 53.2324 61.0284 53.0135C61.8921 52.7814 62.7128 52.32 63.4904 51.6294ZM59.6469 38.6726L62.5629 36.0829L72.4638 47.2311L69.7496 49.6415C69.7496 49.6415 69.601 49.5194 69.3038 49.2751C69.0083 49.0026 68.6464 48.6553 68.218 48.2333C67.7897 47.8112 67.383 47.3833 66.9978 46.9497L59.6469 38.6726Z" fill="#FEFA02"/>
<path d="M78.0201 41.3662L76.8314 42.1247L74.786 28.7681L78.3772 26.4767L80.3527 42.9027L77.242 44.8876L63.3041 36.0942L66.9207 33.7866L78.0201 41.3662Z" fill="#FEFA02"/>
<path d="M80.8898 18.5843L82.3774 21.6638L78.2984 23.6342L76.8108 20.5547L80.8898 18.5843ZM79.9256 26.3131L83.4374 24.6167L89.9227 38.0424L86.411 39.7388L79.9256 26.3131Z" fill="#FEFA02"/>
<path d="M89.3542 22L93.049 20.7515L97.8221 34.8768L94.1273 36.1253L89.3542 22ZM99.5086 18.2204C100.38 17.9259 101.224 17.7674 102.04 17.7451C102.855 17.7228 103.618 17.8556 104.328 18.1436C105.037 18.4316 105.668 18.8939 106.221 19.5304C106.768 20.148 107.211 20.9589 107.55 21.9631L110.47 30.6032L106.775 31.8516L104.076 23.8653C103.673 22.6716 103.085 21.8992 102.311 21.5482C101.551 21.1719 100.517 21.2046 99.2097 21.6464C98.2244 21.9793 97.3979 22.4697 96.7301 23.1176C96.0624 23.7654 95.5814 24.4663 95.2873 25.2201C94.9867 25.955 94.9042 26.6479 95.0397 27.2987L94.5215 25.8589C94.3921 25.1637 94.3923 24.4458 94.5221 23.7053C94.6519 22.9648 94.9145 22.2427 95.3101 21.5391C95.7182 20.8101 96.2689 20.1595 96.9623 19.5875C97.6556 19.0154 98.5044 18.5597 99.5086 18.2204Z" fill="#FEFA02"/>
<path d="M117.288 27.6596C115.69 27.9248 114.24 27.9222 112.938 27.6517C111.653 27.3583 110.596 26.7937 109.768 25.958C108.94 25.1223 108.415 24.0336 108.192 22.6919C107.973 21.37 108.108 20.1717 108.599 19.0968C109.089 18.022 109.892 17.1183 111.007 16.3858C112.142 15.6501 113.528 15.1463 115.166 14.8745C115.62 14.7992 116.059 14.7567 116.483 14.7471C116.927 14.7343 117.364 14.7428 117.795 14.7727L125.228 13.5693L125.71 16.4696C124.707 16.6563 123.661 16.7083 122.573 16.6253C121.501 16.5194 120.544 16.3741 119.703 16.1894L119.579 15.997C120.303 16.2013 121 16.4911 121.67 16.8664C122.337 17.2219 122.899 17.6761 123.356 18.2287C123.829 18.7584 124.131 19.4179 124.262 20.2071C124.475 21.4895 124.333 22.6484 123.836 23.6838C123.335 24.6995 122.524 25.5538 121.402 26.2468C120.297 26.9168 118.926 27.3878 117.288 27.6596ZM123.611 35.1554L123.493 34.4452C123.342 33.5376 122.942 32.9553 122.291 32.6984C121.66 32.4383 120.841 32.3917 119.835 32.5587L115.247 33.3201C114.36 33.4675 113.598 33.5229 112.964 33.4863C112.349 33.4464 111.843 33.3277 111.445 33.1302C111.047 32.9326 110.74 32.6694 110.523 32.3404C110.31 32.0312 110.17 31.6793 110.105 31.2847C109.974 30.4955 110.132 29.861 110.58 29.3813C111.024 28.8818 111.668 28.491 112.514 28.2088C113.359 27.9266 114.311 27.7381 115.37 27.6435L117.288 27.6596C116.052 27.9053 115.142 28.1678 114.56 28.4469C113.995 28.703 113.753 29.0776 113.835 29.5709C113.884 29.8668 114.041 30.0839 114.308 30.2222C114.571 30.3407 114.919 30.364 115.353 30.292L120.177 29.4913C121.499 29.2718 122.647 29.2233 123.62 29.3456C124.616 29.4843 125.416 29.8482 126.021 30.4372C126.629 31.0458 127.031 31.9421 127.227 33.1259L127.458 34.5168L123.611 35.1554ZM116.826 24.8776C117.675 24.7368 118.392 24.4759 118.977 24.0949C119.583 23.7106 120.02 23.2325 120.29 22.6605C120.557 22.0689 120.63 21.4081 120.508 20.678C120.384 19.9283 120.1 19.3165 119.656 18.8428C119.213 18.369 118.652 18.0464 117.975 17.875C117.295 17.6838 116.521 17.6603 115.652 17.8044C114.804 17.9452 114.079 18.2176 113.477 18.6217C112.872 19.0059 112.436 19.4939 112.169 20.0856C111.902 20.6772 111.831 21.3479 111.955 22.0977C112.077 22.8277 112.359 23.4296 112.803 23.9034C113.243 24.3574 113.802 24.6701 114.479 24.8415C115.176 25.0097 115.958 25.0217 116.826 24.8776Z" fill="#FEFA02"/>
<path d="M135.569 14.0872L147.55 14.7572L147.384 17.7226L135.403 17.0526L135.569 14.0872ZM145.025 8.33619L148.11 8.50871L147.934 11.6538L145.777 11.5332C145.199 11.4808 144.697 11.5128 144.27 11.6292C143.842 11.7455 143.508 11.9872 143.268 12.3544C143.028 12.7015 142.889 13.2146 142.851 13.8935L142 29.1097L138.106 28.892L138.984 13.1965C139.051 11.9984 139.325 11.0322 139.807 10.2979C140.29 9.54371 140.971 9.01089 141.849 8.69947C142.728 8.38805 143.787 8.26696 145.025 8.33619Z" fill="#FEFA02"/>
<path d="M156.458 31.735C154.615 31.3641 153.047 30.7424 151.754 29.8701C150.48 29.0017 149.564 27.9298 149.004 26.6543C148.449 25.3593 148.337 23.8883 148.668 22.2413C149 20.5943 149.672 19.2812 150.685 18.3018C151.702 17.3029 152.966 16.6494 154.477 16.3414C156.007 16.0373 157.693 16.0708 159.536 16.4417C161.379 16.8127 162.928 17.4304 164.182 18.2948C165.456 19.1632 166.368 20.2548 166.92 21.5694C167.475 22.8645 167.587 24.3355 167.256 25.9825C166.924 27.6294 166.252 28.9426 165.239 29.9219C164.229 30.8817 162.97 31.5155 161.459 31.8235C159.968 32.1355 158.301 32.106 156.458 31.735ZM157.05 28.794C158.07 28.9992 159.017 29.0063 159.892 28.8152C160.79 28.6084 161.544 28.2092 162.153 27.6177C162.765 27.0066 163.172 26.201 163.373 25.2011C163.575 24.2011 163.511 23.3009 163.183 22.5003C162.858 21.6802 162.331 21.0029 161.602 20.4686C160.874 19.9343 159.99 19.5625 158.95 19.3534C157.931 19.1481 156.972 19.1489 156.073 19.3557C155.175 19.5625 154.41 19.9695 153.777 20.5767C153.165 21.1878 152.756 22.0031 152.551 23.0227C152.349 24.0226 152.413 24.9229 152.741 25.7234C153.074 26.5044 153.614 27.164 154.363 27.7023C155.115 28.221 156.011 28.5849 157.05 28.794Z" fill="#FEFA02"/>
<path d="M170.239 19.7199L173.918 21.0142L168.97 35.0792L165.291 33.785L170.239 19.7199ZM178.258 25.9438C177.201 25.5722 176.213 25.4578 175.294 25.6007C174.381 25.7248 173.585 25.9963 172.908 26.4152C172.231 26.8342 171.701 27.284 171.32 27.7648L171.839 26.1983C171.938 25.9786 172.13 25.6749 172.414 25.2875C172.706 24.8811 173.073 24.4697 173.516 24.0532C173.966 23.6179 174.491 23.2407 175.091 22.9217C175.698 22.5838 176.365 22.3735 177.094 22.2907C177.823 22.2078 178.602 22.3124 179.432 22.6045L178.258 25.9438Z" fill="#FEFA02"/>
<path d="M190.411 39.5991L193.773 41.3272C193.164 42.1613 192.366 42.774 191.377 43.1655C190.407 43.5661 189.292 43.7012 188.032 43.5708C186.772 43.4405 185.386 42.9867 183.874 42.2095C182.185 41.3408 180.828 40.3059 179.804 39.1048C178.788 37.8859 178.181 36.5732 177.983 35.1666C177.784 33.76 178.059 32.3275 178.809 30.8689C179.559 29.4103 180.554 28.3481 181.796 27.6822C183.047 26.9985 184.446 26.7055 185.992 26.8033C187.556 26.9102 189.192 27.4026 190.9 28.2804C192.643 29.1765 193.951 30.1974 194.824 31.3431C195.696 32.4889 196.12 33.7638 196.096 35.1679C196.098 36.5633 195.611 38.1008 194.635 39.7805L181.989 33.2793C181.73 34.001 181.664 34.7426 181.789 35.5043C181.933 36.2752 182.278 37.0036 182.825 37.6895C183.389 38.3846 184.17 38.9881 185.166 39.5002C186.269 40.0671 187.281 40.3512 188.202 40.3526C189.15 40.3453 189.887 40.0941 190.411 39.5991ZM189.382 30.8395C188.101 30.1812 186.914 29.9309 185.821 30.0886C184.737 30.2286 183.87 30.6482 183.218 31.3476L192.236 35.9834C192.604 35.0483 192.538 34.1263 192.039 33.2173C191.566 32.2996 190.68 31.507 189.382 30.8395Z" fill="#FEFA02"/>
<path d="M193.393 41.6886L196.315 43.7914C196.096 44.4719 196.134 45.1892 196.429 45.9436C196.752 46.6934 197.368 47.3954 198.277 48.0496C198.894 48.4935 199.414 48.7813 199.837 48.913C200.259 49.0447 200.611 49.0518 200.893 48.9342C201.187 48.8004 201.433 48.5955 201.631 48.3195C201.876 47.9786 201.958 47.643 201.875 47.3125C201.805 46.9659 201.591 46.578 201.234 46.1489C200.878 45.7199 200.394 45.2113 199.782 44.6233C199.182 44.019 198.624 43.4078 198.108 42.7899C197.591 42.1719 197.183 41.5579 196.883 40.9477C196.595 40.3212 196.45 39.7 196.45 39.0838C196.478 38.4632 196.708 37.8525 197.14 37.2519C197.561 36.6675 198.073 36.2473 198.676 35.9914C199.295 35.7471 199.967 35.6519 200.692 35.7056C201.434 35.771 202.204 35.9678 203.002 36.2962C203.817 36.6362 204.622 37.0924 205.418 37.6648C206.619 38.5293 207.489 39.4264 208.027 40.3559C208.578 41.2693 208.82 42.1827 208.754 43.0962C208.716 44.0051 208.404 44.8654 207.82 45.677L205.02 43.6618C205.322 42.9677 205.372 42.3506 205.17 41.8105C204.979 41.2542 204.477 40.684 203.666 40.0998C202.87 39.5274 202.182 39.2169 201.601 39.1684C201.02 39.1198 200.577 39.3065 200.274 39.7286C200.028 40.0695 199.957 40.425 200.061 40.795C200.192 41.1605 200.46 41.5753 200.865 42.0394C201.287 42.5152 201.824 43.0867 202.477 43.754C203.017 44.3394 203.512 44.9178 203.964 45.489C204.431 46.0719 204.799 46.6568 205.067 47.2436C205.346 47.8142 205.464 48.404 205.42 49.013C205.403 49.6174 205.168 50.2362 204.712 50.8693C204.151 51.6485 203.451 52.1424 202.611 52.351C201.787 52.5713 200.856 52.5296 199.818 52.226C198.791 51.9062 197.702 51.3316 196.549 50.5021C195.526 49.7661 194.718 49.0239 194.123 48.2755C193.556 47.5225 193.152 46.8003 192.91 46.109C192.68 45.4014 192.567 44.7535 192.572 44.1653C192.604 43.5725 192.7 43.0625 192.859 42.6353C193.019 42.2081 193.197 41.8925 193.393 41.6886Z" fill="#FEFA02"/>
<path d="M211.84 43.2231L220.305 51.1252L218.237 53.3401L209.772 45.4379L211.84 43.2231ZM217.431 42.8611L220.282 45.5224L207.323 59.4038L204.472 56.7424L217.431 42.8611Z" fill="#FEFA02"/>
<path d="M214.63 59.8248L216.929 62.5955C216.546 63.199 216.402 63.9029 216.498 64.7072C216.622 65.5141 217.041 66.3486 217.756 67.2106C218.241 67.7955 218.672 68.2049 219.048 68.4387C219.424 68.6726 219.763 68.7681 220.065 68.7252C220.383 68.6696 220.672 68.5332 220.934 68.3162C221.257 68.048 221.421 67.7436 221.424 67.4031C221.443 67.0497 221.334 66.6206 221.096 66.1156C220.859 65.6106 220.519 64.9965 220.075 64.2734C219.646 63.5375 219.26 62.8056 218.916 62.0776C218.572 61.3495 218.331 60.6525 218.195 59.9864C218.073 59.3075 218.09 58.6699 218.245 58.0736C218.428 57.4799 218.804 56.9469 219.374 56.4744C219.928 56.0147 220.529 55.7369 221.177 55.641C221.838 55.5605 222.513 55.6376 223.201 55.8721C223.902 56.1221 224.598 56.5065 225.288 57.0253C225.991 57.5594 226.655 58.2037 227.281 58.9579C228.226 60.097 228.842 61.1841 229.129 62.2193C229.432 63.2417 229.436 64.1866 229.142 65.054C228.876 65.9241 228.359 66.6784 227.589 67.3169L225.386 64.6616C225.854 64.066 226.057 63.4813 225.997 62.9076C225.952 62.3211 225.611 61.643 224.972 60.8733C224.347 60.1191 223.759 59.6453 223.209 59.4521C222.658 59.2588 222.183 59.3282 221.783 59.6602C221.46 59.9283 221.302 60.2545 221.308 60.6386C221.343 61.0253 221.499 61.4943 221.774 62.0455C222.062 62.612 222.438 63.3004 222.902 64.1107C223.277 64.8131 223.611 65.4976 223.904 66.164C224.21 66.8459 224.419 67.5044 224.53 68.1398C224.656 68.7623 224.622 69.3627 224.426 69.941C224.258 70.5219 223.874 71.0614 223.274 71.5594C222.535 72.1723 221.733 72.474 220.867 72.4644C220.015 72.4702 219.124 72.1955 218.196 71.6403C217.283 71.0724 216.373 70.242 215.466 69.1491C214.662 68.1793 214.066 67.2574 213.679 66.3834C213.32 65.5119 213.11 64.7112 213.05 63.9813C213.006 63.2385 213.06 62.5831 213.212 62.015C213.393 61.4494 213.614 60.98 213.876 60.6067C214.138 60.2335 214.389 59.9728 214.63 59.8248Z" fill="#FEFA02"/>
<path d="M236.188 95.1871L237.299 98.6112C236.72 99.0304 236.327 99.6313 236.118 100.414C235.935 101.209 236.016 102.14 236.362 103.205C236.596 103.928 236.845 104.468 237.108 104.824C237.371 105.18 237.651 105.394 237.947 105.466C238.263 105.532 238.583 105.512 238.906 105.407C239.305 105.277 239.57 105.055 239.699 104.74C239.847 104.418 239.904 103.979 239.87 103.422C239.837 102.866 239.747 102.169 239.602 101.333C239.476 100.491 239.387 99.668 239.337 98.8644C239.286 98.0607 239.32 97.3242 239.44 96.6547C239.578 95.979 239.829 95.3928 240.193 94.896C240.583 94.412 241.13 94.0558 241.834 93.8273C242.518 93.605 243.18 93.5691 243.817 93.7196C244.461 93.8891 245.059 94.21 245.612 94.6824C246.171 95.1738 246.676 95.7881 247.125 96.5253C247.581 97.2815 247.96 98.1257 248.263 99.0578C248.72 100.465 248.89 101.703 248.774 102.771C248.677 103.833 248.332 104.713 247.739 105.41C247.17 106.12 246.41 106.63 245.459 106.939L244.394 103.657C245.048 103.276 245.454 102.808 245.61 102.253C245.785 101.692 245.718 100.935 245.409 99.9841C245.107 99.052 244.736 98.3945 244.296 98.0115C243.856 97.6286 243.389 97.5174 242.894 97.678C242.495 97.8076 242.227 98.0522 242.092 98.4116C241.981 98.7839 241.952 99.277 242.004 99.891C242.062 100.524 242.158 101.303 242.289 102.227C242.378 103.018 242.435 103.778 242.461 104.505C242.493 105.252 242.444 105.941 242.312 106.572C242.2 107.198 241.946 107.743 241.55 108.208C241.179 108.685 240.623 109.045 239.881 109.286C238.968 109.582 238.111 109.566 237.311 109.237C236.516 108.927 235.79 108.343 235.133 107.484C234.494 106.618 233.956 105.511 233.518 104.16C233.129 102.962 232.916 101.885 232.879 100.929C232.867 99.9868 232.969 99.1654 233.183 98.465C233.416 97.7585 233.708 97.1694 234.06 96.6978C234.437 96.2391 234.816 95.8847 235.197 95.6347C235.579 95.3847 235.909 95.2355 236.188 95.1871Z" fill="#FEFA02"/>
<path d="M236.61 118.091C236.371 116.63 236.47 115.246 236.905 113.939C237.363 112.648 238.106 111.554 239.135 110.657C240.187 109.776 241.473 109.211 242.993 108.963C244.552 108.709 245.962 108.843 247.223 109.367C248.484 109.891 249.528 110.703 250.356 111.804C251.208 112.921 251.759 114.25 252.01 115.789C252.287 117.487 252.164 118.905 251.641 120.045C251.141 121.2 250.347 122.11 249.26 122.774C248.172 123.438 246.908 123.887 245.467 124.123C244.599 124.264 243.688 124.271 242.735 124.143C241.802 124.012 240.903 123.723 240.04 123.276C239.197 122.826 238.462 122.176 237.837 121.325C237.232 120.472 236.823 119.394 236.61 118.091ZM239.774 118.851C239.964 120.016 240.326 120.99 240.859 121.774C241.392 122.559 242.051 123.12 242.836 123.458C243.621 123.796 244.477 123.889 245.405 123.738C246.411 123.573 247.221 123.198 247.835 122.611C248.471 122.041 248.898 121.303 249.115 120.396C249.354 119.506 249.379 118.479 249.189 117.314C248.922 115.676 248.279 114.473 247.263 113.707C246.266 112.938 245.057 112.669 243.635 112.901C242.688 113.056 241.894 113.408 241.255 113.959C240.635 114.506 240.19 115.196 239.921 116.03C239.655 116.884 239.606 117.825 239.774 118.851ZM252.777 122.534L253.405 126.383L238.69 128.785L238.105 125.203C238.105 125.203 238.288 125.143 238.653 125.022C239.042 124.918 239.529 124.798 240.114 124.662C240.7 124.526 241.279 124.411 241.852 124.318L252.777 122.534Z" fill="#FEFA02"/>
<path d="M240.674 136.617L240.669 135.207L253.048 140.623L253.063 144.883L238.128 137.766L238.115 134.076L253 127.003L253.015 131.293L240.674 136.617Z" fill="#FEFA02"/>
<path d="M258.387 151.228L254.989 150.837L255.506 146.337L258.904 146.727L258.387 151.228ZM252.373 146.279L251.927 150.153L237.115 148.452L237.56 144.577L252.373 146.279Z" fill="#FEFA02"/>
<path d="M250.973 156.553L250.052 160.342L235.564 156.82L236.486 153.03L250.973 156.553ZM248.735 167.154C248.518 168.048 248.201 168.845 247.783 169.547C247.366 170.248 246.846 170.821 246.223 171.267C245.6 171.712 244.872 171.998 244.038 172.125C243.224 172.256 242.302 172.197 241.272 171.946L232.41 169.792L233.332 166.002L241.523 167.994C242.747 168.291 243.714 168.207 244.424 167.742C245.149 167.301 245.675 166.41 246.001 165.069C246.246 164.058 246.274 163.098 246.084 162.187C245.894 161.276 245.559 160.495 245.079 159.843C244.619 159.196 244.078 158.756 243.455 158.522L244.949 158.854C245.606 159.117 246.212 159.501 246.768 160.007C247.325 160.513 247.794 161.121 248.177 161.831C248.575 162.566 248.83 163.379 248.942 164.271C249.055 165.163 248.986 166.124 248.735 167.154Z" fill="#FEFA02"/>
<path d="M231.25 177.127C231.881 175.635 232.659 174.412 233.583 173.456C234.519 172.527 235.561 171.936 236.71 171.684C237.859 171.431 239.06 171.57 240.313 172.099C241.547 172.621 242.487 173.376 243.133 174.366C243.778 175.355 244.113 176.517 244.135 177.851C244.15 179.203 243.834 180.644 243.188 182.173C243.008 182.597 242.809 182.99 242.591 183.354C242.364 183.736 242.123 184.101 241.867 184.449L238.908 191.373L236.2 190.228C236.579 189.281 237.094 188.37 237.746 187.495C238.409 186.646 239.044 185.915 239.65 185.303L239.878 185.302C239.319 185.803 238.701 186.237 238.026 186.603C237.368 186.976 236.684 187.208 235.973 187.299C235.272 187.415 234.553 187.318 233.817 187.006C232.619 186.5 231.716 185.76 231.107 184.786C230.517 183.82 230.229 182.678 230.243 181.359C230.268 180.067 230.604 178.656 231.25 177.127ZM221.535 178.46L222.198 178.741C223.045 179.099 223.752 179.072 224.317 178.659C224.874 178.265 225.351 177.598 225.748 176.659L227.559 172.375C227.909 171.546 228.27 170.874 228.64 170.357C229.002 169.859 229.374 169.495 229.753 169.264C230.133 169.034 230.52 168.915 230.913 168.908C231.289 168.893 231.661 168.963 232.029 169.119C232.766 169.43 233.218 169.904 233.384 170.538C233.568 171.181 233.553 171.935 233.34 172.8C233.126 173.665 232.776 174.57 232.29 175.515L231.25 177.127C231.704 175.951 231.968 175.043 232.044 174.401C232.13 173.786 231.943 173.382 231.482 173.187C231.206 173.07 230.938 173.087 230.679 173.238C230.438 173.397 230.232 173.679 230.061 174.084L228.157 178.589C227.635 179.823 227.063 180.818 226.439 181.575C225.789 182.343 225.053 182.824 224.232 183.02C223.393 183.208 222.42 183.069 221.315 182.601L220.016 182.052L221.535 178.46ZM233.848 178.225C233.513 179.017 233.35 179.763 233.358 180.461C233.359 181.178 233.529 181.804 233.868 182.338C234.225 182.88 234.745 183.295 235.426 183.583C236.126 183.879 236.795 183.966 237.433 183.844C238.07 183.723 238.643 183.422 239.15 182.942C239.675 182.469 240.109 181.827 240.452 181.017C240.787 180.225 240.944 179.466 240.925 178.741C240.924 178.024 240.745 177.395 240.388 176.853C240.03 176.311 239.502 175.893 238.802 175.597C238.12 175.309 237.461 175.225 236.823 175.347C236.204 175.476 235.641 175.781 235.134 176.261C234.619 176.76 234.19 177.415 233.848 178.225Z" fill="#FEFA02"/>
<path d="M232.939 199.833L225.964 209.598L223.548 207.872L230.522 198.107L232.939 199.833ZM232.74 210.898L230.944 213.413L228.381 211.582L229.637 209.824C229.99 209.364 230.232 208.922 230.362 208.499C230.492 208.076 230.467 207.665 230.285 207.265C230.12 206.876 229.761 206.485 229.208 206.089L216.806 197.231L219.073 194.058L231.865 203.195C232.841 203.892 233.511 204.641 233.874 205.441C234.253 206.252 234.339 207.112 234.132 208.021C233.925 208.93 233.461 209.889 232.74 210.898Z" fill="#FEFA02"/>
<path d="M206.855 208.043C208.154 206.684 209.518 205.692 210.947 205.066C212.362 204.454 213.758 204.253 215.135 204.463C216.526 204.686 217.829 205.378 219.043 206.539C220.257 207.7 221.007 208.971 221.293 210.351C221.593 211.745 221.469 213.162 220.921 214.603C220.36 216.058 219.429 217.465 218.13 218.824C216.831 220.183 215.481 221.161 214.08 221.758C212.665 222.37 211.254 222.557 209.848 222.32C208.457 222.096 207.154 221.404 205.94 220.243C204.726 219.082 203.976 217.812 203.69 216.432C203.419 215.066 203.558 213.662 204.105 212.221C204.639 210.795 205.556 209.402 206.855 208.043ZM209.023 210.116C208.305 210.868 207.792 211.665 207.485 212.506C207.18 213.376 207.114 214.226 207.288 215.057C207.477 215.901 207.94 216.676 208.677 217.381C209.414 218.086 210.209 218.514 211.061 218.664C211.927 218.829 212.781 218.746 213.623 218.416C214.464 218.086 215.251 217.538 215.984 216.772C216.702 216.02 217.215 215.209 217.52 214.34C217.826 213.47 217.892 212.605 217.717 211.746C217.528 210.902 217.058 210.12 216.306 209.402C215.569 208.697 214.775 208.269 213.922 208.118C213.085 207.981 212.238 208.085 211.383 208.43C210.543 208.788 209.756 209.35 209.023 210.116Z" fill="#FEFA02"/>
<path d="M209.636 226.113L206.574 228.529L197.337 216.826L200.398 214.409L209.636 226.113ZM200.088 229.56C200.967 228.866 201.592 228.092 201.963 227.239C202.346 226.401 202.542 225.584 202.551 224.787C202.559 223.991 202.462 223.303 202.26 222.724L203.306 224.001C203.439 224.201 203.593 224.526 203.768 224.974C203.955 225.437 204.106 225.968 204.221 226.565C204.348 227.178 204.386 227.823 204.335 228.501C204.296 229.194 204.117 229.87 203.797 230.531C203.477 231.191 202.972 231.793 202.281 232.338L200.088 229.56Z" fill="#FEFA02"/>
<path d="M182.049 232.524L178.791 234.44C178.412 233.48 178.321 232.478 178.519 231.433C178.7 230.399 179.182 229.384 179.966 228.39C180.75 227.395 181.874 226.467 183.34 225.605C184.978 224.642 186.578 224.049 188.141 223.826C189.713 223.621 191.147 223.81 192.442 224.394C193.737 224.978 194.8 225.977 195.631 227.391C196.463 228.805 196.828 230.214 196.726 231.62C196.634 233.042 196.134 234.381 195.224 235.635C194.297 236.9 193.006 238.018 191.351 238.992C189.662 239.985 188.099 240.544 186.664 240.669C185.23 240.793 183.926 240.47 182.752 239.698C181.572 238.953 180.533 237.72 179.636 235.997L191.894 228.788C191.422 228.184 190.831 227.731 190.121 227.43C189.392 227.139 188.592 227.041 187.72 227.136C186.831 227.241 185.904 227.578 184.938 228.146C183.869 228.774 183.088 229.477 182.594 230.255C182.093 231.06 181.911 231.817 182.049 232.524ZM190.001 236.34C191.242 235.61 192.088 234.741 192.54 233.733C193.001 232.743 193.111 231.785 192.869 230.86L184.128 236C184.721 236.812 185.535 237.249 186.571 237.313C187.599 237.405 188.742 237.08 190.001 236.34Z" fill="#FEFA02"/>
<path d="M178.689 233.926L175.349 235.27C174.891 234.721 174.265 234.37 173.47 234.216C172.664 234.087 171.741 234.232 170.702 234.65C169.997 234.934 169.476 235.219 169.138 235.506C168.801 235.793 168.607 236.087 168.555 236.387C168.511 236.707 168.553 237.024 168.68 237.34C168.837 237.729 169.077 237.978 169.4 238.085C169.731 238.21 170.173 238.237 170.726 238.166C171.279 238.094 171.968 237.957 172.792 237.754C173.624 237.571 174.438 237.426 175.237 237.32C176.035 237.215 176.772 237.198 177.448 237.271C178.132 237.362 178.734 237.573 179.255 237.902C179.764 238.258 180.157 238.779 180.433 239.465C180.702 240.133 180.783 240.79 180.677 241.437C180.552 242.091 180.273 242.71 179.84 243.294C179.388 243.885 178.81 244.43 178.105 244.93C177.382 245.436 176.566 245.873 175.657 246.238C174.284 246.791 173.061 247.046 171.987 247.004C170.921 246.98 170.02 246.696 169.283 246.152C168.536 245.633 167.975 244.91 167.602 243.983L170.803 242.694C171.227 243.321 171.722 243.693 172.287 243.811C172.859 243.947 173.609 243.829 174.537 243.455C175.446 243.089 176.076 242.674 176.428 242.209C176.78 241.744 176.859 241.27 176.665 240.788C176.508 240.398 176.245 240.148 175.878 240.038C175.499 239.953 175.005 239.958 174.396 240.052C173.768 240.153 172.998 240.302 172.085 240.497C171.301 240.64 170.548 240.749 169.824 240.825C169.081 240.908 168.39 240.906 167.751 240.818C167.12 240.749 166.559 240.533 166.068 240.17C165.565 239.833 165.169 239.303 164.878 238.579C164.519 237.688 164.476 236.832 164.75 236.011C165.004 235.197 165.537 234.433 166.349 233.718C167.168 233.022 168.237 232.409 169.554 231.879C170.723 231.408 171.783 231.122 172.733 231.019C173.673 230.943 174.499 230.988 175.213 231.153C175.933 231.338 176.541 231.589 177.036 231.907C177.519 232.252 177.899 232.605 178.175 232.969C178.45 233.332 178.622 233.651 178.689 233.926Z" fill="#FEFA02"/>
<path d="M167.525 248.691L156.321 251.617L155.555 248.685L166.76 245.76L167.525 248.691ZM164.84 253.609L161.067 254.594L156.27 236.22L160.043 235.235L164.84 253.609Z" fill="#FEFA02"/>
<path d="M152.006 242.169L148.435 242.629C148.13 241.983 147.612 241.485 146.882 241.136C146.134 240.809 145.204 240.717 144.094 240.86C143.34 240.957 142.764 241.102 142.365 241.294C141.966 241.487 141.704 241.722 141.579 242C141.456 242.299 141.416 242.616 141.46 242.953C141.513 243.37 141.683 243.671 141.969 243.856C142.258 244.061 142.679 244.198 143.232 244.268C143.785 244.338 144.486 244.378 145.335 244.39C146.186 244.422 147.011 244.487 147.81 244.585C148.609 244.684 149.327 244.854 149.963 245.094C150.601 245.355 151.131 245.71 151.552 246.16C151.956 246.632 152.205 247.235 152.299 247.969C152.391 248.683 152.305 249.34 152.039 249.939C151.753 250.54 151.328 251.069 150.761 251.525C150.175 251.984 149.478 252.366 148.671 252.672C147.843 252.98 146.944 253.197 145.972 253.322C144.504 253.511 143.256 253.45 142.227 253.139C141.202 252.848 140.401 252.346 139.825 251.633C139.232 250.944 138.872 250.103 138.744 249.111L142.166 248.67C142.419 249.384 142.804 249.868 143.321 250.124C143.841 250.4 144.596 250.474 145.588 250.346C146.56 250.221 147.275 249.978 147.732 249.616C148.19 249.255 148.386 248.816 148.319 248.301C148.265 247.884 148.075 247.576 147.746 247.376C147.401 247.199 146.922 247.079 146.309 247.017C145.676 246.957 144.893 246.907 143.96 246.866C143.166 246.807 142.409 246.723 141.689 246.614C140.95 246.508 140.282 246.332 139.685 246.086C139.092 245.86 138.603 245.51 138.219 245.035C137.818 244.582 137.567 243.969 137.468 243.196C137.345 242.243 137.519 241.404 137.99 240.678C138.442 239.955 139.15 239.349 140.116 238.862C141.084 238.394 142.272 238.07 143.68 237.888C144.93 237.727 146.028 237.717 146.973 237.857C147.902 238.02 148.69 238.271 149.339 238.611C149.99 238.971 150.515 239.367 150.914 239.799C151.295 240.254 151.574 240.692 151.749 241.113C151.924 241.535 152.01 241.886 152.006 242.169Z" fill="#FEFA02"/>
</svg>
