<svg width="115" height="155" viewBox="0 0 115 155" fill="none" xmlns="http://www.w3.org/2000/svg">
<path d="M40.4121 106.265L14.7188 91.2485L57.4257 66.6525L100.222 91.1497L74.5381 106.166L74.5678 100.067L90.2369 91.1002L57.4751 72.2182L24.7826 91.1002L40.3825 100.383L40.4121 106.265Z" stroke="#62D14B" stroke-width="2" stroke-miterlimit="10"/>
<path d="M24.4763 18.8346L50.0016 3.82785V53.3363L7.13654 77.9422L6.83008 48.6998L12.1981 51.7545L12.0894 69.5886L44.9005 50.5583V12.646L29.3303 21.5928L24.4763 18.8346Z" stroke="#62D14B" stroke-width="2" stroke-miterlimit="10"/>
<path d="M90.4247 18.8346L64.8994 3.82785V53.3363L107.755 77.9422L108.061 48.6998L102.693 51.7545L102.802 69.5886L70.0005 50.5583V12.646L85.5609 21.5928L90.4247 18.8346Z" stroke="#62D14B" stroke-width="2" stroke-miterlimit="10"/>
<path d="M39.958 15.4833L44.9009 12.6461V50.5583L39.958 47.4641V15.4833Z" stroke="#62D14B" stroke-width="2" stroke-miterlimit="10"/>
<path d="M74.8843 15.3844L69.9414 12.5472V50.4595L74.8843 47.3652V15.3844Z" stroke="#62D14B" stroke-width="2" stroke-miterlimit="10"/>
<path d="M14.7188 18.3699V24.5585L57.4751 49.0062V43.1241L14.7188 18.3699Z" fill="#F6F5F1" stroke="#62D14B" stroke-width="2" stroke-miterlimit="10"/>
<path d="M100.261 18.5182V24.7068L57.5049 49.1545V43.2725L100.261 18.5182Z" fill="#F6F5F1" stroke="#62D14B" stroke-width="2" stroke-miterlimit="10"/>
<path d="M44.9001 50.5583L12.0889 69.5886V63.8647L39.9571 47.4641L44.9001 50.5583Z" stroke="#62D14B" stroke-width="2" stroke-miterlimit="10"/>
<path d="M69.8428 50.6572L102.644 69.6875V63.9636L74.7857 47.5629L69.8428 50.6572Z" stroke="#62D14B" stroke-width="2" stroke-miterlimit="10"/>
<path d="M29.8438 94.1056L24.7822 91.1003L57.4748 72.2183L90.2365 91.1003L84.9773 94.1056L59.6101 79.1779V153.144H55.2801V79.1779L29.8438 94.1056Z" stroke="#62D14B" stroke-width="2" stroke-miterlimit="10"/>
<path d="M2.5 40.3462L44.9005 65.1004L49.2305 62.1643L7.29464 37.5584L2.5 40.3462Z" fill="#F6F5F1" stroke="#62D14B" stroke-width="2" stroke-miterlimit="10"/>
<path d="M112.5 40.3462L70.0995 65.1004L65.7695 62.1643L107.705 37.5584L112.5 40.3462Z" fill="#F6F5F1" stroke="#62D14B" stroke-width="2" stroke-miterlimit="10"/>
<path d="M49.2304 62.1643V111.831L45.2068 114.302L44.9004 65.1004L49.2304 62.1643Z" fill="#F6F5F1" stroke="#62D14B" stroke-width="2" stroke-miterlimit="10"/>
<path d="M65.71 62.1643V111.831L69.7335 114.302L70.04 65.1004L65.71 62.1643Z" fill="#F6F5F1" stroke="#62D14B" stroke-width="2" stroke-miterlimit="10"/>
<path d="M2.5 75.3125V40.3462L44.9005 65.1004L45.2069 114.302L14.7189 96.8242V91.2485L40.4123 106.265L40.2541 67.7301L6.83001 48.6998L7.13647 77.9422L2.5 75.3125Z" fill="#F6F5F1" stroke="#62D14B" stroke-width="2" stroke-miterlimit="10"/>
<path d="M112.45 75.2137V40.2474L70.0496 65.0016L69.7432 114.204L100.221 96.7253V91.1497L74.5378 106.166L74.696 67.6312L108.12 48.6009L107.804 77.8433L112.45 75.2137Z" fill="#F6F5F1" stroke="#62D14B" stroke-width="2" stroke-miterlimit="10"/>
<path d="M49.2306 4.13431L44.9006 1.66284L15.5 18.5281L57.4754 43.1242L99.52 18.8346L70.0403 1.66284L65.7696 3.97613L89.9208 18.6764L57.505 37.5584L24.4764 18.8346L49.2306 4.13431Z" fill="#F6F5F1" stroke="#62D14B" stroke-width="2" stroke-miterlimit="10"/>
</svg>
