<svg width="108" height="147" viewBox="0 0 108 147" fill="none" xmlns="http://www.w3.org/2000/svg">
<path d="M37.6967 101.289L13.1138 86.9217L53.975 63.3887L94.9213 86.8272L70.3478 101.195L70.3762 95.3588L85.3681 86.7799L54.0223 68.7139L22.7426 86.7799L37.6683 95.6615L37.6967 101.289Z" stroke="#2E2E2E" stroke-miterlimit="10"/>
<path d="M22.4495 17.6374L46.8717 3.27924V50.648L5.85914 74.1905L5.56592 46.2119L10.7019 49.1346L10.5979 66.1979L41.991 47.9901V11.7163L27.0937 20.2764L22.4495 17.6374Z" stroke="#2E2E2E" stroke-miterlimit="10"/>
<path d="M85.5476 17.6374L61.1255 3.27924V50.648L102.129 74.1905L102.422 46.2119L97.2858 49.1346L97.3898 66.1979L66.0061 47.9901V11.7163L80.894 20.2764L85.5476 17.6374Z" stroke="#2E2E2E" stroke-miterlimit="10"/>
<path d="M37.2612 14.4309L41.9905 11.7163V47.9901L37.2612 45.0296V14.4309Z" stroke="#2E2E2E" stroke-miterlimit="10"/>
<path d="M70.679 14.3363L65.9497 11.6217V47.8955L70.679 44.9349V14.3363Z" stroke="#2E2E2E" stroke-miterlimit="10"/>
<path d="M13.1138 17.1928V23.1139L54.0223 46.505V40.8772L13.1138 17.1928Z" fill="#74F3C5" stroke="#2E2E2E" stroke-miterlimit="10"/>
<path d="M94.9588 17.3347V23.2558L54.0503 46.647V41.0191L94.9588 17.3347Z" fill="#74F3C5" stroke="#2E2E2E" stroke-miterlimit="10"/>
<path d="M41.9908 47.9901L10.5977 66.1979V60.7213L37.2615 45.0295L41.9908 47.9901Z" stroke="#2E2E2E" stroke-miterlimit="10"/>
<path d="M65.8545 48.0847L97.2382 66.2925V60.816L70.5838 45.1241L65.8545 48.0847Z" stroke="#2E2E2E" stroke-miterlimit="10"/>
<path d="M27.585 89.6553L22.7422 86.7799L54.0218 68.7139L85.3677 86.7799L80.3357 89.6553L56.0649 75.3728V146.142H51.922V75.3728L27.585 89.6553Z" stroke="#2E2E2E" stroke-miterlimit="10"/>
<path d="M1.42285 38.2193L41.9909 61.9037L46.1337 59.0945L6.01028 35.552L1.42285 38.2193Z" fill="#74F3C5" stroke="#2E2E2E" stroke-miterlimit="10"/>
<path d="M106.669 38.2193L66.1009 61.9037L61.958 59.0945L102.081 35.552L106.669 38.2193Z" fill="#74F3C5" stroke="#2E2E2E" stroke-miterlimit="10"/>
<path d="M46.1336 59.0945V106.615L42.2839 108.979L41.9907 61.9037L46.1336 59.0945Z" fill="#74F3C5" stroke="#2E2E2E" stroke-miterlimit="10"/>
<path d="M61.9014 59.0945V106.615L65.751 108.979L66.0442 61.9037L61.9014 59.0945Z" fill="#74F3C5" stroke="#2E2E2E" stroke-miterlimit="10"/>
<path d="M1.42285 71.6744V38.2193L41.9908 61.9037L42.2841 108.979L13.1137 92.2564V86.9217L37.6966 101.289L37.5453 64.4197L5.56572 46.2119L5.85894 74.1904L1.42285 71.6744Z" fill="#74F3C5" stroke="#2E2E2E" stroke-miterlimit="10"/>
<path d="M106.621 71.5799V38.1248L66.0535 61.8091L65.7603 108.885L94.9212 92.1618V86.8272L70.3477 101.195L70.499 64.3251L102.479 46.1173L102.176 74.0959L106.621 71.5799Z" fill="#74F3C5" stroke="#2E2E2E" stroke-miterlimit="10"/>
<path d="M46.1336 3.57242L41.9908 1.20776L13.8608 17.3442L54.0221 40.8772L94.2496 17.6374L66.044 1.20776L61.9579 3.42108L85.0653 17.486L54.0505 35.552L22.4493 17.6374L46.1336 3.57242Z" fill="#74F3C5" stroke="#2E2E2E" stroke-miterlimit="10"/>
</svg>
