<svg width="263" height="264" viewBox="0 0 263 264" fill="none" xmlns="http://www.w3.org/2000/svg">
<path d="M198.938 203.656L209.883 201.831" stroke="white" stroke-width="2"/>
<path d="M93.9207 224.112L99.6531 231.93L97.8293 241.311L93.9207 245.48H87.9268L81.673 241.311H76.2006H72.291" stroke="white" stroke-width="3"/>
<path d="M119.458 232.451L125.713 239.747V247.826L121.804 254.34L113.465 256.686" stroke="white" stroke-width="3"/>
<path d="M128.84 233.493L135.876 238.184L138.221 244.699V247.826L135.876 251.995L128.84 256.946H123.889" stroke="white" stroke-width="3"/>
<path d="M181.739 217.076L183.043 226.978L187.994 231.408L192.163 235.578L197.375 231.408H201.544" stroke="white" stroke-width="3"/>
<path d="M161.935 227.76L159.85 234.536V241.311L163.238 244.699L166.365 247.304H174.182L177.57 244.699H179.394" stroke="white" stroke-width="3"/>
<path d="M142.13 248.347L144.735 241.571L147.602 236.881L149.948 230.366" stroke="white" stroke-width="3"/>
<path d="M156.202 236.36L151.25 237.923L144.996 241.571" stroke="white" stroke-width="3"/>
<path d="M213.792 185.154L223.304 183.851" stroke="white" stroke-width="3"/>
<path d="M235.552 172.124L232.555 157.792L239.721 148.28H244.542L245.324 154.143L244.542 159.616" stroke="white" stroke-width="3"/>
<path d="M234.379 156.619L239.069 169.127" stroke="white" stroke-width="3"/>
<path d="M33.8541 151.277L30.7272 157.14L27.4697 165.74" stroke="white" stroke-width="3"/>
<path d="M33.5937 151.407L32.5517 148.41L27.6003 140.332H23.0398L19.5218 147.368V152.971L18.6104 155.055" stroke="white" stroke-width="3"/>
<path d="M32.0303 148.41L22.6494 162.743" stroke="white" stroke-width="3"/>
<path d="M88.9701 53.4253L75.9399 43.2622H57.4384L32.1616 63.5883V72.9695L16.5257 85.7385L8.18675 106.586L1.67188 118.833V129.778L15.2223 148.541L19.3918 156.88L25.1248 175.903L34.506 208.477L63.6921 237.663L73.8552 241.311L85.0605 246.523L98.6112 253.559H106.429L115.55 257.728L121.283 255.904L128.84 259.031L133.53 257.728L137.179 250.432H141.609L142.912 257.728L151.772 261.376L161.935 255.904L166.625 250.432L176.267 248.868L183.824 241.311L195.03 235.578L211 226.457L223.173 214.21L232.555 196.229L233.858 175.903L237.245 173.557L240.633 167.303L244.542 161.049L257.571 148.541L260.959 143.59V135.251L254.965 126.13L238.548 96.1621L217.962 76.6178L219.265 72.9695L223.173 67.2366V59.1583L205.974 41.6987L182 40.1351L168.449 49.5164" stroke="white" stroke-width="3"/>
<path d="M46.2324 193.232H56.0049" stroke="white" stroke-width="2"/>
<path d="M62.6494 213.558L80.8906 214.991" stroke="white" stroke-width="2"/>
<path d="M33.2031 72.709L55.0928 56.0311" stroke="white" stroke-width="4"/>
<path d="M74.8975 53.6858L82.1943 56.5524" stroke="white" stroke-width="4"/>
<path d="M4.27734 116.488L12.6162 113.361" stroke="white" stroke-width="4"/>
<path d="M38.6758 122.742L27.7305 112.84" stroke="white" stroke-width="4"/>
<path d="M49.6201 79.4843L51.1836 87.302" stroke="white" stroke-width="3"/>
<path d="M195.812 65.9336L216.919 76.8784" stroke="white" stroke-width="4"/>
<path d="M228.125 91.7321L236.203 95.3802" stroke="white" stroke-width="4"/>
<path d="M227.343 137.335L235.421 128.475L242.978 126.651" stroke="white" stroke-width="4"/>
<path d="M23.5615 164.176L29.8154 168.085H34.2454L40.7602 161.31" stroke="white" stroke-width="4"/>
<path d="M232.555 175.642L226.821 172.254L222.131 166.782" stroke="white" stroke-width="4"/>
<circle cx="132.488" cy="137.075" r="92.8761" stroke="white" stroke-width="5"/>
<path d="M84.4092 59.1582L83.4971 57.5948L100.696 49.6467L98.7415 53.295L100.696 54.2071L106.299 53.295L108.905 56.1615H112.292H118.546L120.501 58.3765L123.498 60.3309L124.41 65.2822L121.673 69.0607H119.068L116.462 65.2822L118.546 62.9368L115.81 60.3309L113.204 61.5036L111.51 65.2822L109.817 67.3669L107.862 65.2822L99.5233 69.0607L98.7415 72.0575L104.344 75.5755L103.562 79.354L104.865 80.657L107.08 77.2693L109.817 75.5755L110.468 71.0151L114.898 69.0607L118.546 72.0575L122.716 72.9696L123.498 75.5755L129.491 79.354V82.872L130.794 84.4355V89.1262L125.061 86.6506L126.494 82.872L116.462 85.2173L119.719 85.9991L120.501 89.1262H123.498V90.6897L115.81 93.035V90.6897L103.041 99.1589L100.696 104.631L95.6144 107.237L93.5297 109.843L94.5721 118.312L93.5297 119.876L91.8359 118.312V114.143L86.3635 109.843L83.497 110.755L79.979 109.843L72.9431 112.579L70.207 123.524L72.031 126.781L75.2884 127.954L77.6337 125.739L79.979 123.524L82.8455 125.088L79.979 130.951V133.166L84.7999 134.208L86.3635 136.163V142.026L88.8391 144.762L91.8359 143.85L92.8782 148.801L90.9238 147.368L89.6209 148.801L82.8455 143.85L79.979 137.075L74.246 134.208L72.031 130.951L67.0798 129.387L61.9983 122.091V115.315L60.0439 110.755L59.0017 115.315L57.0469 111.537L59.0017 97.9862L61.9983 85.2173L70.207 78.1814L78.9367 65.2822L84.4092 59.1582Z" stroke="white" stroke-width="2"/>
<path d="M125.321 53.6858V54.9888L129.621 56.1614L131.836 62.2853L129.621 64.37L138.612 71.2757L140.045 65.8033L146.951 60.7218L146.039 58.5067V54.9888L142.912 53.6858L140.045 49.6467H135.094L125.321 53.6858Z" stroke="white" stroke-width="2"/>
<path d="M155.42 61.5035L149.557 63.3277L155.42 66.7153L156.853 64.37L155.42 61.5035Z" stroke="white" stroke-width="2"/>
<path d="M149.557 48.0831H146.039L147.602 49.6467L152.684 51.4708L153.596 50.5588L149.557 48.0831Z" stroke="white" stroke-width="2"/>
<path d="M165.844 51.4708L165.062 50.5588L165.844 48.9952L173.401 53.6858L184.215 58.5067L201.023 72.4483L208.32 80.7872L212.359 87.6929L218.352 99.0286L226.691 130.69L225.91 146.326L223.955 158.443L219.655 172.515L213.271 183.46V182.027L214.835 175.772L218.352 165.74V155.316L216.789 148.28V141.765L214.053 142.547L212.359 140.072H209.883L207.277 144.371H203.89L201.935 146.847L197.766 146.326L191.251 142.547L187.733 138.899V134.078V130.69V126.912L185.648 124.176L183.042 119.876V115.315L185.648 112.71L188.515 109.843L190.469 107.498V105.804L188.515 104.501L187.733 101.634V99.0286H189.818L192.554 98.1165L194.639 95.5106L196.072 92.9047L197.766 91.0806L201.935 91.8623L204.802 95.5106H207.277H209.883V92.9047L212.359 90.2988L211 86.7808L208.32 84.0446L206.235 82.2205L203.89 79.2237L204.802 77.3996L199.199 72.4483L201.935 80.7872L204.802 85.2173L203.89 86.7808L201.023 83.0023V85.999L192.554 82.2205L189.818 87.6929L190.469 92.9047L186.3 95.5106L180.176 88.4746V86.7808L184.215 85.2173V83.0023L177.961 79.2237L180.176 78.3116L181.088 75.7057H178.873H175.485L173.401 72.4483L172.619 77.3996H171.055L169.492 74.2725L166.756 68.8001L168.189 66.7153L181.87 74.2725V72.4483L183.042 68.8001L184.215 65.8033L177.961 61.5035H176.528L178.873 64.37L180.176 67.7577H177.961L176.528 65.8033L172.619 64.37L169.492 62.2853V60.7218L163.889 56.1614L162.977 52.7738L165.844 51.4708Z" stroke="white" stroke-width="2"/>
<path d="M100.045 143.72L95.8753 145.023L95.0933 152.971L88.9697 161.44V167.434L99.3933 183.33L104.605 187.238L107.472 191.278L108.905 210.301L108.253 215.903L113.205 225.675L121.544 229.063V227.369L118.807 224.112L119.589 221.376L118.807 219.552L122.977 215.903L128.579 213.558L126.886 210.301L129.231 211.473L132.749 210.301L139.264 205.089L141.218 200.919L144.475 197.923L150.469 196.75L156.072 187.238L156.723 183.33L158.938 180.463L161.544 171.994L155.29 167.434L148.124 166.782L142.391 163.264H138.221V160.788L135.485 156.88L134.312 155.055L123.889 150.886L117.504 145.023H115.68L113.205 146.065L109.556 145.023L105.387 142.287L103.432 141.375L100.045 143.72Z" stroke="white" stroke-width="2"/>
<path d="M111.03 34.6949C108.871 34.7564 106.908 34.5601 105.143 34.1062C103.401 33.6516 101.88 32.9386 100.58 31.9672C99.3038 30.9951 98.3086 29.7749 97.5946 28.3066C96.8805 26.8384 96.4958 25.1326 96.4405 23.1894C96.3845 21.2222 96.6828 19.473 97.3355 17.9418C98.0115 16.3859 98.9822 15.0618 100.248 13.9693C101.537 12.8762 103.074 12.0401 104.858 11.4611C106.666 10.8574 108.673 10.5242 110.88 10.4613C113.495 10.3869 115.761 10.6945 117.677 11.3843C119.593 12.05 121.109 13.0273 122.226 14.316C123.368 15.6041 124.036 17.1577 124.232 18.9768L119.626 19.108C119.287 18.1572 118.747 17.3442 118.008 16.669C117.291 15.9691 116.352 15.4436 115.19 15.0926C114.027 14.7175 112.629 14.5532 110.998 14.5997C108.911 14.6591 107.133 15.0458 105.665 15.7599C104.22 16.4733 103.132 17.4527 102.399 18.698C101.666 19.9434 101.323 21.3937 101.37 23.0491C101.416 24.6564 101.792 26.0383 102.497 27.1947C103.201 28.3271 104.258 29.1854 105.667 29.7695C107.101 30.353 108.909 30.6136 111.092 30.5514C112.771 30.5036 114.24 30.2457 115.5 29.7777C116.782 29.285 117.845 28.6545 118.687 27.8862C119.529 27.0939 120.116 26.2249 120.45 25.279L122.301 24.542C122.078 27.6456 120.971 30.0901 118.981 31.8755C117.015 33.6602 114.364 34.6 111.03 34.6949ZM121.344 33.9331C121.323 33.1894 121.347 32.3363 121.415 31.374C121.483 30.3877 121.575 29.4006 121.691 28.4129C121.807 27.4013 121.912 26.4739 122.008 25.6308L111.357 25.934L111.27 22.8753L125.16 22.4798L125.483 33.8152L121.344 33.9331Z" fill="white"/>
<path d="M149.453 10.9525C152.068 11.0289 154.242 11.4046 155.975 12.0796C157.708 12.7545 159.074 13.6468 160.074 14.7565C161.099 15.843 161.807 17.0882 162.198 18.4922C162.613 19.8969 162.798 21.367 162.753 22.9023C162.708 24.4377 162.413 25.9057 161.868 27.3063C161.347 28.7077 160.53 29.9444 159.419 31.0163C158.332 32.065 156.903 32.8876 155.133 33.4841C153.387 34.0573 151.267 34.3075 148.772 34.2345L135.458 33.8452L136.138 10.5632L149.453 10.9525ZM140.364 29.8829L148.784 30.1291C150.511 30.1796 151.945 30.0175 153.084 29.6426C154.248 29.2445 155.177 28.6954 155.869 27.9953C156.562 27.2953 157.066 26.4936 157.38 25.5904C157.695 24.6872 157.867 23.7439 157.895 22.7603C157.924 21.7767 157.807 20.8369 157.546 19.9409C157.284 19.0448 156.827 18.2391 156.176 17.5238C155.524 16.8084 154.629 16.23 153.489 15.7885C152.374 15.3477 150.952 15.1021 149.225 15.0516L140.804 14.8054L140.364 29.8829Z" fill="white"/>
</svg>
