<svg width="326" height="111" viewBox="0 0 326 111" fill="none" xmlns="http://www.w3.org/2000/svg">
<path d="M47.2399 81.4858C44.5902 82.439 42.1557 82.7933 39.9366 82.5487C37.7432 82.2496 35.7899 81.5466 34.0768 80.4398C32.3492 79.2929 30.8722 77.8971 29.6458 76.2525C28.4194 74.6079 27.4884 72.9023 26.8529 71.1358C26.0586 68.9277 25.5829 66.7863 25.4261 64.7116C25.3093 62.6224 25.5803 60.6659 26.2391 58.8418C26.8835 56.9777 27.9846 55.3119 29.5426 53.8446C31.1407 52.3628 33.2847 51.1381 35.9746 50.1705C38.9857 49.0872 41.934 48.7748 44.8194 49.2331C47.7049 49.6914 50.2763 50.8522 52.5336 52.7154C54.8166 54.5241 56.5142 56.9741 57.6263 60.0655C58.7672 63.2371 59.0411 66.2673 58.4479 69.156C57.8403 72.0045 56.5631 74.5044 54.6164 76.6557C52.6697 78.807 50.2109 80.417 47.2399 81.4858ZM42.5225 76.3133C44.6504 75.5478 46.3527 74.482 47.6297 73.1157C48.9467 71.7351 49.7741 70.1905 50.1117 68.482C50.475 66.719 50.31 64.8739 49.6168 62.9468C48.5769 60.0561 46.8158 58.0598 44.3335 56.9576C41.8914 55.841 38.9841 55.8893 35.6117 57.1025C33.4838 57.868 31.6739 58.9499 30.1818 60.3482C28.7298 61.732 27.762 63.3271 27.2782 65.1335C26.78 66.8998 26.8992 68.8067 27.6358 70.8542C28.329 72.7813 29.3973 74.3014 30.8407 75.4146C32.2696 76.4876 33.9916 77.115 36.0068 77.2969C38.0221 77.4788 40.194 77.151 42.5225 76.3133ZM14.4126 58.6753L21.8801 55.989L25.1011 63.8083L37.3413 97.8336L29.5125 100.65L14.4126 58.6753Z" fill="black"/>
<path d="M64.7562 41.9426L88.8548 36.507L90.2771 42.8126L66.1785 48.2482L64.7562 41.9426ZM70.8323 31.6495L78.9484 29.8188L87.8622 69.338L79.7461 71.1687L70.8323 31.6495Z" fill="black"/>
<path d="M101.71 34.3778L109.961 33.3086L114.049 64.8528L105.798 65.9221L101.71 34.3778ZM122.964 38.5289C120.595 38.8359 118.603 39.5673 116.989 40.723C115.369 41.8364 114.115 43.1175 113.227 44.5662C112.339 46.015 111.763 47.3804 111.499 48.6623L110.983 45.1797C110.96 44.6664 111.033 43.904 111.203 42.8925C111.368 41.8386 111.672 40.702 112.117 39.4828C112.556 38.2213 113.193 36.9985 114.029 35.8146C114.86 34.5884 115.929 33.5463 117.238 32.6883C118.547 31.8304 120.132 31.2808 121.994 31.0395L122.964 38.5289Z" fill="black"/>
<path d="M143.433 16.4416L143.801 23.7283L134.149 24.2154L133.781 16.9287L143.433 16.4416ZM135.124 30.8307L143.433 30.4113L145.036 62.1789L136.727 62.5983L135.124 30.8307Z" fill="black"/>
<path d="M177.352 63.2288C173.347 63 169.848 62.159 166.854 60.7058C163.903 59.2551 161.645 57.267 160.08 54.7416C158.517 52.1736 157.838 49.1005 158.042 45.5224C158.247 41.9442 159.271 38.9685 161.117 36.5952C162.964 34.1794 165.437 32.4189 168.534 31.3138C171.674 30.2111 175.246 29.7742 179.25 30.003C183.254 30.2318 186.711 31.0703 189.62 32.5186C192.571 33.9694 194.827 36 196.387 38.6106C197.95 41.1786 198.629 44.2517 198.424 47.8299C198.22 51.4081 197.195 54.3838 195.35 56.757C193.507 59.0877 191.037 60.8056 187.94 61.9107C184.885 63.0182 181.356 63.4576 177.352 63.2288ZM177.717 56.8392C179.932 56.9658 181.934 56.6956 183.725 56.0286C185.56 55.3215 187.031 54.2517 188.139 52.8192C189.249 51.3442 189.866 49.5204 189.99 47.3479C190.114 45.1755 189.709 43.2933 188.774 41.7014C187.842 40.0669 186.526 38.795 184.826 37.8859C183.125 36.9768 181.146 36.4577 178.889 36.3287C176.674 36.2021 174.648 36.4924 172.813 37.1995C170.978 37.9066 169.484 38.9965 168.331 40.4691C167.221 41.9442 166.603 43.7893 166.476 46.0043C166.352 48.1768 166.758 50.059 167.692 51.6509C168.629 53.2002 169.969 54.4307 171.712 55.3422C173.458 56.2112 175.459 56.7102 177.717 56.8392Z" fill="black"/>
<path d="M257.943 33.1434L256.475 40.0941L225.291 33.5073L222.99 44.4029L248.538 49.7993L247.163 56.3116L221.614 50.9152L218.202 67.0708L209.874 65.3117L218.431 24.7976L257.943 33.1434Z" fill="black"/>
<path d="M270.034 70.9731L272.579 64.3409L298.152 74.1571L295.606 80.7893L270.034 70.9731ZM257.18 75.7052L290.183 44.0196L298.787 47.3223L302.291 93.0211L293.627 89.6956L291.105 48.761L294.929 50.2288L265.784 79.0079L257.18 75.7052Z" fill="black"/>
</svg>
