<svg width="138" height="137" viewBox="0 0 138 137" fill="none" xmlns="http://www.w3.org/2000/svg">
<path d="M16.4574 32.8729L3.139 21.2197L1.75195 27.0462L4.52652 37.0346L10.0757 44.526L24.7809 50.9075L33.6595 49.5202L37.2664 50.9075L94.9774 108.618L92.7577 111.393V117.22L94.9774 123.879L101.914 132.202L112.457 134.977L124.11 132.202L131.879 125.266L135.486 114.445L131.879 102.237L124.11 95.578L115.232 92.526L108.295 93.9133L51.9716 37.0346L49.4745 32.8729L50.5843 27.0462L46.6999 12.0635L37.2664 3.73983L27.0005 2.0752L21.1739 3.73983L33.6595 16.7803V21.2197L21.1739 32.8729H16.4574Z" stroke="white" stroke-width="3"/>
<path d="M53.3584 47.5781H47.8096V52.5722L88.873 93.0809H92.7574L94.1447 88.6416L53.3584 47.5781Z" stroke="white" stroke-width="3"/>
<path d="M111.902 102.514L103.023 111.116L106.353 122.491L117.174 125.543L125.22 116.942L122.445 105.844L111.902 102.514Z" stroke="white" stroke-width="3"/>
</svg>
