<svg width="1029" height="1048" viewBox="0 0 1029 1048" fill="none" xmlns="http://www.w3.org/2000/svg">
<path d="M836.737 785.391L774.482 812.912L786.084 700.79L888.823 654.259L882.262 721.99L870.993 713.765L875.357 672.705L796.469 708.153L787.687 794.056L825.792 777.567L836.737 785.391Z" stroke="#40C101" stroke-width="4" stroke-miterlimit="10"/>
<path d="M653.297 697.83L659.664 630.406L751.452 696.718L739.656 809.147L685.031 770.547L697.884 764.687L730.803 788.776L739.469 702.455L669.18 651.674L664.912 692.525L653.297 697.83Z" stroke="#40C101" stroke-width="4" stroke-miterlimit="10"/>
<path d="M741.63 575.563L679.619 602.786L771.406 669.098L874.426 622.603L820.622 582.867L819.095 596.911L852.305 620.597L773.089 655.92L702.8 605.14L740.229 588.274L741.63 575.563Z" stroke="#40C101" stroke-width="4" stroke-miterlimit="10"/>
<path d="M667.82 664.639L669.18 651.675L739.469 702.455L727.111 707.475L667.82 664.639Z" stroke="#40C101" stroke-width="4" stroke-miterlimit="10"/>
<path d="M714.418 599.753L702.537 605.117L772.826 655.897L773.71 642.589L714.418 599.753Z" stroke="#40C101" stroke-width="4" stroke-miterlimit="10"/>
<path d="M639.367 715.298L650.84 723.587L753.434 677.063L742.529 669.184L639.367 715.298Z" fill="#E8C85A" stroke="#40C101" stroke-width="4" stroke-miterlimit="10"/>
<path d="M754.218 556.902L765.692 565.191L753.749 677.206L742.844 669.328L754.218 556.902Z" fill="#E8C85A" stroke="#40C101" stroke-width="4" stroke-miterlimit="10"/>
<path d="M739.469 702.455L730.803 788.776L720.191 781.109L727.112 707.474L739.469 702.455Z" stroke="#40C101" stroke-width="4" stroke-miterlimit="10"/>
<path d="M773.06 656.346L852.276 621.022L841.664 613.356L773.944 643.037L773.06 656.346Z" stroke="#40C101" stroke-width="4" stroke-miterlimit="10"/>
<path d="M800.038 788.697L787.687 794.055L796.469 708.153L875.358 672.704L873.885 686.48L812.232 713.516L949.364 812.588L943.564 820.615L806.433 721.544L800.038 788.697Z" stroke="#40C101" stroke-width="4" stroke-miterlimit="10"/>
<path d="M663.744 767.386L766.43 721.933L766.786 709.972L664.998 754.763L663.744 767.386Z" fill="#E8C85A" stroke="#40C101" stroke-width="4" stroke-miterlimit="10"/>
<path d="M811.08 563.448L800.182 675.214L788.939 679.309L799.489 568.604L811.08 563.448Z" fill="#E8C85A" stroke="#40C101" stroke-width="4" stroke-miterlimit="10"/>
<path d="M766.786 709.973L858.867 776.497L858.06 787.267L766.43 721.933L766.786 709.973Z" fill="#E8C85A" stroke="#40C101" stroke-width="4" stroke-miterlimit="10"/>
<path d="M788.859 679.419L880.94 745.943L890.911 741.794L800.103 675.324L788.859 679.419Z" fill="#E8C85A" stroke="#40C101" stroke-width="4" stroke-miterlimit="10"/>
<path d="M728.571 814.221L663.744 767.386L766.43 721.933L858.06 787.267L784.819 820.38L774.482 812.912L836.737 785.391L765.082 734.069L685.031 770.547L739.656 809.147L728.571 814.221Z" fill="#E8C85A" stroke="#40C101" stroke-width="4" stroke-miterlimit="10"/>
<path d="M875.657 610.242L810.83 563.408L799.932 675.173L890.741 741.644L899.16 661.727L888.823 654.259L882.262 721.989L811.031 670.081L820.518 582.624L874.309 622.379L875.657 610.242Z" fill="#E8C85A" stroke="#40C101" stroke-width="4" stroke-miterlimit="10"/>
<path d="M659.2 632.246L648.818 636.963L640.706 714.061L742.529 669.184L753.812 558.7L682.491 590.355L681.059 601.371L740.662 576.285L732.25 661.674L653.298 697.83L659.2 632.246Z" fill="#E8C85A" stroke="#40C101" stroke-width="4" stroke-miterlimit="10"/>
<path d="M192.899 254.57L255.153 227.049L243.552 339.171L140.813 385.702L147.373 317.972L158.642 326.197L154.278 367.257L233.167 331.808L241.949 245.906L203.844 262.394L192.899 254.57Z" stroke="#40C101" stroke-width="4" stroke-miterlimit="10"/>
<path d="M376.338 342.132L369.972 409.555L278.184 343.243L289.979 230.814L344.605 269.414L331.751 275.275L298.833 251.186L290.167 337.507L360.455 388.287L364.723 347.437L376.338 342.132Z" stroke="#40C101" stroke-width="4" stroke-miterlimit="10"/>
<path d="M288.006 464.399L350.018 437.176L258.23 370.863L155.21 417.358L209.014 457.094L210.541 443.05L177.331 419.365L256.548 384.041L326.836 434.822L289.408 451.687L288.006 464.399Z" stroke="#40C101" stroke-width="4" stroke-miterlimit="10"/>
<path d="M361.816 375.322L360.456 388.287L290.167 337.506L302.524 332.487L361.816 375.322Z" stroke="#40C101" stroke-width="4" stroke-miterlimit="10"/>
<path d="M315.218 440.208L327.099 434.844L256.81 384.064L255.926 397.373L315.218 440.208Z" stroke="#40C101" stroke-width="4" stroke-miterlimit="10"/>
<path d="M390.27 324.664L378.796 316.375L276.202 362.898L287.107 370.777L390.27 324.664Z" fill="#E8C85A" stroke="#40C101" stroke-width="4" stroke-miterlimit="10"/>
<path d="M275.417 483.059L263.944 474.77L275.886 362.755L286.792 370.633L275.417 483.059Z" fill="#E8C85A" stroke="#40C101" stroke-width="4" stroke-miterlimit="10"/>
<path d="M290.167 337.506L298.833 251.186L309.445 258.852L302.524 332.487L290.167 337.506Z" stroke="#40C101" stroke-width="4" stroke-miterlimit="10"/>
<path d="M256.576 383.616L177.359 418.939L187.971 426.606L255.692 396.924L256.576 383.616Z" stroke="#40C101" stroke-width="4" stroke-miterlimit="10"/>
<path d="M229.598 251.265L241.949 245.906L233.167 331.808L154.279 367.257L155.751 353.481L217.404 326.445L80.2724 227.374L86.0721 219.346L223.204 318.417L229.598 251.265Z" stroke="#40C101" stroke-width="4" stroke-miterlimit="10"/>
<path d="M365.892 272.575L263.206 318.028L262.85 329.989L364.639 285.198L365.892 272.575Z" fill="#E8C85A" stroke="#40C101" stroke-width="4" stroke-miterlimit="10"/>
<path d="M218.556 476.513L229.454 364.747L240.698 360.652L230.147 471.358L218.556 476.513Z" fill="#E8C85A" stroke="#40C101" stroke-width="4" stroke-miterlimit="10"/>
<path d="M262.85 329.989L170.769 263.464L171.576 252.695L263.206 318.028L262.85 329.989Z" fill="#E8C85A" stroke="#40C101" stroke-width="4" stroke-miterlimit="10"/>
<path d="M240.776 360.542L148.696 294.018L138.724 298.167L229.533 364.637L240.776 360.542Z" fill="#E8C85A" stroke="#40C101" stroke-width="4" stroke-miterlimit="10"/>
<path d="M301.065 225.741L365.892 272.575L263.206 318.029L171.576 252.695L244.816 219.581L255.154 227.049L192.899 254.571L264.554 305.892L344.605 269.414L289.979 230.814L301.065 225.741Z" fill="#E8C85A" stroke="#40C101" stroke-width="4" stroke-miterlimit="10"/>
<path d="M153.979 429.719L218.805 476.554L229.704 364.788L138.895 298.318L130.476 378.234L140.813 385.702L147.373 317.972L218.605 369.88L209.118 457.337L155.327 417.583L153.979 429.719Z" fill="#E8C85A" stroke="#40C101" stroke-width="4" stroke-miterlimit="10"/>
<path d="M370.436 407.715L380.818 402.998L388.929 325.9L287.106 370.777L275.823 481.261L347.145 449.606L348.577 438.59L288.974 463.676L297.385 378.287L376.338 342.132L370.436 407.715Z" fill="#E8C85A" stroke="#40C101" stroke-width="4" stroke-miterlimit="10"/>
<path d="M892.451 347.821L892.002 415.886L794.516 359.297L794.241 246.513L853.314 280.288L841.19 287.19L805.537 266.361L805.492 352.848L880.225 396.107L880.825 354.592L892.451 347.821Z" stroke="#40C101" stroke-width="4" stroke-miterlimit="10"/>
<path d="M737.327 479.174L678.454 445.701L776.591 389.208L874.278 446.099L816.663 480.075L816.593 465.948L852.068 445.814L776.905 402.49L701.755 445.75L737.256 466.405L737.327 479.174Z" stroke="#40C101" stroke-width="4" stroke-miterlimit="10"/>
<path d="M662.076 348.449L661.455 416.17L759.592 359.677L759.465 246.651L701.151 279.412L713.331 286.567L748.558 266.001L748.265 352.736L673.114 395.996L673.093 354.943L662.076 348.449Z" stroke="#40C101" stroke-width="4" stroke-miterlimit="10"/>
<path d="M713.019 452.311L701.755 445.75L776.906 402.49L776.412 415.818L713.019 452.311Z" stroke="#40C101" stroke-width="4" stroke-miterlimit="10"/>
<path d="M672.969 383.191L672.985 396.226L748.136 352.966L736.362 346.698L672.969 383.191Z" stroke="#40C101" stroke-width="4" stroke-miterlimit="10"/>
<path d="M747.541 499.046L759.808 491.985L759.48 379.335L747.821 386.047L747.541 499.046Z" fill="#E8C85A" stroke="#40C101" stroke-width="4" stroke-miterlimit="10"/>
<path d="M650.224 329.312L662.491 322.251L759.74 379.107L748.081 385.819L650.224 329.312Z" fill="#E8C85A" stroke="#40C101" stroke-width="4" stroke-miterlimit="10"/>
<path d="M776.905 402.49L852.068 445.814L840.722 452.345L776.412 415.818L776.905 402.49Z" stroke="#40C101" stroke-width="4" stroke-miterlimit="10"/>
<path d="M748.641 352.936L748.934 266.202L737.588 272.733L736.867 346.669L748.641 352.936Z" stroke="#40C101" stroke-width="4" stroke-miterlimit="10"/>
<path d="M880.406 382.644L880.225 396.106L805.492 352.848L805.537 266.361L817.495 273.357L816.851 340.674L963.468 256.273L968.409 264.856L821.792 349.257L880.406 382.644Z" stroke="#40C101" stroke-width="4" stroke-miterlimit="10"/>
<path d="M805.045 498.19L805.731 385.896L794.971 380.663L794.048 491.867L805.045 498.19Z" fill="#E8C85A" stroke="#40C101" stroke-width="4" stroke-miterlimit="10"/>
<path d="M679.527 280.145L776.977 335.946L776.098 347.879L679.472 292.83L679.527 280.145Z" fill="#E8C85A" stroke="#40C101" stroke-width="4" stroke-miterlimit="10"/>
<path d="M794.97 380.664L893.421 323.99L902.911 329.146L805.731 385.896L794.97 380.664Z" fill="#E8C85A" stroke="#40C101" stroke-width="4" stroke-miterlimit="10"/>
<path d="M776.166 347.996L874.616 291.323L874.924 280.527L777.045 336.063L776.166 347.996Z" fill="#E8C85A" stroke="#40C101" stroke-width="4" stroke-miterlimit="10"/>
<path d="M874.356 458.291L805.045 498.19L805.731 385.896L902.911 329.145L903.054 409.524L892.002 415.886L892.45 347.821L816.246 392.106L816.663 480.075L874.278 446.099L874.356 458.291Z" fill="#E8C85A" stroke="#40C101" stroke-width="4" stroke-miterlimit="10"/>
<path d="M748.698 240.456L679.387 280.356L776.838 336.157L874.717 280.621L805.293 240.15L794.241 246.513L853.314 280.288L776.749 323.946L700.887 279.407L759.213 246.666L748.698 240.456Z" fill="#E8C85A" stroke="#40C101" stroke-width="4" stroke-miterlimit="10"/>
<path d="M679.942 446.88L679.983 458.283L746.963 497.317L747.82 386.046L651.697 330.421L651.297 408.45L660.756 414.276L662.337 349.629L736.754 392.338L737.327 479.174L679.942 446.88Z" fill="#E8C85A" stroke="#40C101" stroke-width="4" stroke-miterlimit="10"/>
<path d="M136.184 694.14L136.633 626.075L234.12 682.664L234.394 795.448L175.321 761.673L187.445 754.772L223.099 775.6L223.143 689.113L148.41 645.855L147.81 687.37L136.184 694.14Z" stroke="#40C101" stroke-width="4" stroke-miterlimit="10"/>
<path d="M291.308 562.787L350.181 596.26L252.044 652.753L154.357 595.862L211.973 561.887L212.043 576.013L176.567 596.147L251.73 639.472L326.881 596.211L291.379 575.556L291.308 562.787Z" stroke="#40C101" stroke-width="4" stroke-miterlimit="10"/>
<path d="M366.56 693.512L367.181 625.791L269.044 682.284L269.17 795.31L327.485 762.55L315.305 755.395L280.077 775.96L280.371 689.226L355.522 645.965L355.543 687.018L366.56 693.512Z" stroke="#40C101" stroke-width="4" stroke-miterlimit="10"/>
<path d="M315.616 589.65L326.88 596.211L251.73 639.472L252.223 626.143L315.616 589.65Z" stroke="#40C101" stroke-width="4" stroke-miterlimit="10"/>
<path d="M355.667 658.77L355.65 645.735L280.5 688.996L292.273 695.263L355.667 658.77Z" stroke="#40C101" stroke-width="4" stroke-miterlimit="10"/>
<path d="M281.095 542.915L268.828 549.977L269.155 662.626L280.814 655.914L281.095 542.915Z" fill="#E8C85A" stroke="#40C101" stroke-width="4" stroke-miterlimit="10"/>
<path d="M378.411 712.649L366.144 719.711L268.895 662.854L280.555 656.143L378.411 712.649Z" fill="#E8C85A" stroke="#40C101" stroke-width="4" stroke-miterlimit="10"/>
<path d="M251.729 639.472L176.567 596.147L187.913 589.616L252.223 626.143L251.729 639.472Z" stroke="#40C101" stroke-width="4" stroke-miterlimit="10"/>
<path d="M279.994 689.025L279.701 775.759L291.047 769.228L291.768 695.292L279.994 689.025Z" stroke="#40C101" stroke-width="4" stroke-miterlimit="10"/>
<path d="M148.229 659.317L148.41 645.855L223.144 689.113L223.099 775.6L211.14 768.604L211.785 701.287L65.167 785.688L60.2262 777.105L206.844 692.704L148.229 659.317Z" stroke="#40C101" stroke-width="4" stroke-miterlimit="10"/>
<path d="M223.59 543.771L222.904 656.065L233.665 661.298L234.587 550.094L223.59 543.771Z" fill="#E8C85A" stroke="#40C101" stroke-width="4" stroke-miterlimit="10"/>
<path d="M349.108 761.816L251.658 706.015L252.537 694.082L349.163 749.131L349.108 761.816Z" fill="#E8C85A" stroke="#40C101" stroke-width="4" stroke-miterlimit="10"/>
<path d="M233.664 661.298L135.214 717.971L125.724 712.816L222.904 656.065L233.664 661.298Z" fill="#E8C85A" stroke="#40C101" stroke-width="4" stroke-miterlimit="10"/>
<path d="M252.47 693.965L154.019 750.638L153.711 761.434L251.591 705.898L252.47 693.965Z" fill="#E8C85A" stroke="#40C101" stroke-width="4" stroke-miterlimit="10"/>
<path d="M154.279 583.671L223.59 543.771L222.904 656.065L125.724 712.816L125.58 632.438L136.633 626.075L136.184 694.141L212.389 649.856L211.972 561.886L154.357 595.862L154.279 583.671Z" fill="#E8C85A" stroke="#40C101" stroke-width="4" stroke-miterlimit="10"/>
<path d="M279.937 801.505L349.248 761.606L251.798 705.805L153.919 761.34L223.342 801.811L234.394 795.449L175.321 761.673L251.887 718.015L327.749 762.555L269.423 795.295L279.937 801.505Z" fill="#E8C85A" stroke="#40C101" stroke-width="4" stroke-miterlimit="10"/>
<path d="M348.694 595.081L348.652 583.678L281.673 544.644L280.815 655.915L376.938 711.541L377.338 633.511L367.879 627.685L366.298 692.332L291.881 649.623L291.308 562.787L348.694 595.081Z" fill="#E8C85A" stroke="#40C101" stroke-width="4" stroke-miterlimit="10"/>
<path d="M552.492 109.221L611.258 143.567L513.579 199.823L415.696 143.793L474.439 109.447L474.371 123.398L438.533 143.906L513.466 187.093L588.24 143.906L552.56 122.675L552.492 109.221Z" stroke="#40C101" stroke-width="4" stroke-miterlimit="10"/>
<path d="M588.94 309.192L530.559 343.516V230.28L628.6 174.001L629.301 240.884L617.023 233.898L617.272 193.108L542.226 236.634V323.347L577.838 302.884L588.94 309.192Z" stroke="#40C101" stroke-width="4" stroke-miterlimit="10"/>
<path d="M438.103 309.192L496.485 343.516L496.485 230.28L398.466 174.001L397.766 240.884L410.043 233.898L409.795 193.108L484.818 236.634L484.818 323.347L449.228 302.884L438.103 309.192Z" stroke="#40C101" stroke-width="4" stroke-miterlimit="10"/>
<path d="M553.532 316.857L542.226 323.347V236.634L553.532 243.711V316.857Z" stroke="#40C101" stroke-width="4" stroke-miterlimit="10"/>
<path d="M473.647 317.083L484.953 323.573L484.953 236.86L473.647 243.937V317.083Z" stroke="#40C101" stroke-width="4" stroke-miterlimit="10"/>
<path d="M611.258 310.255V296.1L513.466 240.184V253.637L611.258 310.255Z" fill="#E8C85A" stroke="#40C101" stroke-width="4" stroke-miterlimit="10"/>
<path d="M415.605 309.916V295.761L513.397 239.844V253.298L415.605 309.916Z" fill="#E8C85A" stroke="#40C101" stroke-width="4" stroke-miterlimit="10"/>
<path d="M542.226 236.634L617.272 193.108V206.199L553.532 243.711L542.226 236.634Z" stroke="#40C101" stroke-width="4" stroke-miterlimit="10"/>
<path d="M485.179 236.408L410.156 192.881V205.973L473.874 243.485L485.179 236.408Z" stroke="#40C101" stroke-width="4" stroke-miterlimit="10"/>
<path d="M576.663 137.032L588.24 143.906L513.465 187.093L438.533 143.906L450.562 137.032L508.581 171.175L508.581 1.9999H518.485L518.485 171.175L576.663 137.032Z" stroke="#40C101" stroke-width="4" stroke-miterlimit="10"/>
<path d="M639.205 259.991L542.226 203.373L532.323 210.088L628.238 266.367L639.205 259.991Z" fill="#E8C85A" stroke="#40C101" stroke-width="4" stroke-miterlimit="10"/>
<path d="M387.613 259.991L484.591 203.373L494.495 210.088L398.579 266.367L387.613 259.991Z" fill="#E8C85A" stroke="#40C101" stroke-width="4" stroke-miterlimit="10"/>
<path d="M532.323 210.088V96.491L541.526 90.8383L542.227 203.373L532.323 210.088Z" fill="#E8C85A" stroke="#40C101" stroke-width="4" stroke-miterlimit="10"/>
<path d="M494.63 210.088L494.63 96.491L485.427 90.8383L484.726 203.373L494.63 210.088Z" fill="#E8C85A" stroke="#40C101" stroke-width="4" stroke-miterlimit="10"/>
<path d="M639.205 180.016V259.991L542.226 203.373L541.525 90.8383L611.257 130.814V143.567L552.492 109.221L552.853 197.358L629.301 240.884L628.6 174.001L639.205 180.016Z" fill="#E8C85A" stroke="#40C101" stroke-width="4" stroke-miterlimit="10"/>
<path d="M387.726 180.242V260.217L484.704 203.599L485.405 91.0644L415.696 131.041V143.793L474.439 109.447L474.077 197.585L397.63 241.111L398.353 174.227L387.726 180.242Z" fill="#E8C85A" stroke="#40C101" stroke-width="4" stroke-miterlimit="10"/>
<path d="M532.323 342.815L542.226 348.467L609.471 309.893L513.465 253.637L417.301 309.192L484.727 348.467L494.495 343.176L439.256 309.554L513.397 266.367L588.94 309.192L532.323 342.815Z" fill="#E8C85A" stroke="#40C101" stroke-width="4" stroke-miterlimit="10"/>
<path d="M475.144 940.74L416.378 906.394L514.058 850.138L611.94 906.168L553.197 940.514L553.265 926.563L589.103 906.055L514.171 862.868L439.396 906.055L475.076 927.287L475.144 940.74Z" stroke="#40C101" stroke-width="4" stroke-miterlimit="10"/>
<path d="M438.695 740.769L497.077 706.446L497.077 819.681L399.036 875.96L398.335 809.077L410.613 816.063L410.364 856.854L485.41 813.328L485.41 726.615L449.797 747.078L438.695 740.769Z" stroke="#40C101" stroke-width="4" stroke-miterlimit="10"/>
<path d="M589.533 740.769L531.151 706.446V819.681L629.17 875.96L629.871 809.077L617.593 816.063L617.842 856.854L542.819 813.328V726.615L578.408 747.078L589.533 740.769Z" stroke="#40C101" stroke-width="4" stroke-miterlimit="10"/>
<path d="M474.104 733.104L485.41 726.615L485.41 813.328L474.104 806.25V733.104Z" stroke="#40C101" stroke-width="4" stroke-miterlimit="10"/>
<path d="M553.989 732.878L542.684 726.389V813.101L553.989 806.024V732.878Z" stroke="#40C101" stroke-width="4" stroke-miterlimit="10"/>
<path d="M416.378 739.706V753.861L514.171 809.778V796.324L416.378 739.706Z" fill="#E8C85A" stroke="#40C101" stroke-width="4" stroke-miterlimit="10"/>
<path d="M612.031 740.046V754.2L514.239 810.117V796.663L612.031 740.046Z" fill="#E8C85A" stroke="#40C101" stroke-width="4" stroke-miterlimit="10"/>
<path d="M485.41 813.328L410.364 856.854V843.762L474.104 806.25L485.41 813.328Z" stroke="#40C101" stroke-width="4" stroke-miterlimit="10"/>
<path d="M542.457 813.554L617.48 857.08V843.988L553.762 806.476L542.457 813.554Z" stroke="#40C101" stroke-width="4" stroke-miterlimit="10"/>
<path d="M450.973 912.929L439.396 906.055L514.171 862.868L589.103 906.055L577.074 912.929L519.055 878.786L519.055 1047.96H509.151L509.151 878.786L450.973 912.929Z" stroke="#40C101" stroke-width="4" stroke-miterlimit="10"/>
<path d="M388.432 789.971L485.41 846.588L495.314 839.873L399.398 783.594L388.432 789.971Z" fill="#E8C85A" stroke="#40C101" stroke-width="4" stroke-miterlimit="10"/>
<path d="M640.023 789.971L543.045 846.588L533.142 839.873L629.057 783.594L640.023 789.971Z" fill="#E8C85A" stroke="#40C101" stroke-width="4" stroke-miterlimit="10"/>
<path d="M495.313 839.873L495.313 953.47L486.111 959.123L485.41 846.588L495.313 839.873Z" fill="#E8C85A" stroke="#40C101" stroke-width="4" stroke-miterlimit="10"/>
<path d="M533.006 839.873V953.47L542.209 959.123L542.91 846.588L533.006 839.873Z" fill="#E8C85A" stroke="#40C101" stroke-width="4" stroke-miterlimit="10"/>
<path d="M388.432 869.945V789.97L485.41 846.588L486.111 959.123L416.379 919.147V906.394L475.145 940.74L474.783 852.603L398.335 809.077L399.036 875.96L388.432 869.945Z" fill="#E8C85A" stroke="#40C101" stroke-width="4" stroke-miterlimit="10"/>
<path d="M639.911 869.719V789.744L542.932 846.362L542.231 958.897L611.941 918.921V906.168L553.198 940.514L553.56 852.377L630.007 808.851L629.284 875.734L639.911 869.719Z" fill="#E8C85A" stroke="#40C101" stroke-width="4" stroke-miterlimit="10"/>
<path d="M495.314 707.147L485.41 701.494L418.165 740.068L514.171 796.324L610.335 740.769L542.91 701.494L533.142 706.785L588.38 740.407L514.239 783.594L438.696 740.769L495.314 707.147Z" fill="#E8C85A" stroke="#40C101" stroke-width="4" stroke-miterlimit="10"/>
</svg>
