<svg width="286" height="286" viewBox="0 0 286 286" fill="none" xmlns="http://www.w3.org/2000/svg">
<path d="M38.8798 80.9348L41.7791 82.7487L39.3765 86.5891L36.4771 84.7751L38.8798 80.9348Z" fill="black"/>
<path d="M255.534 86.3887L252.635 88.2025L250.232 84.3621L253.132 82.5483L255.534 86.3887Z" fill="black"/>
<path d="M144.466 266.711V270.131H139.936V266.711H144.466Z" fill="black"/>
<path d="M133.489 262.229L129.918 261.769C129.787 261.066 129.412 260.454 128.794 259.93C128.154 259.424 127.278 259.1 126.167 258.957C125.413 258.859 124.819 258.853 124.385 258.939C123.95 259.024 123.637 259.185 123.445 259.423C123.251 259.68 123.132 259.977 123.088 260.314C123.035 260.731 123.123 261.065 123.352 261.316C123.58 261.587 123.952 261.827 124.47 262.035C124.987 262.243 125.655 262.46 126.473 262.686C127.288 262.932 128.07 263.205 128.818 263.503C129.566 263.801 130.217 264.147 130.771 264.541C131.323 264.955 131.745 265.433 132.038 265.974C132.309 266.534 132.397 267.18 132.303 267.914C132.211 268.628 131.96 269.241 131.551 269.753C131.123 270.263 130.577 270.666 129.913 270.964C129.23 271.259 128.459 271.452 127.6 271.543C126.722 271.631 125.797 271.613 124.825 271.488C123.357 271.299 122.165 270.923 121.249 270.362C120.331 269.82 119.684 269.131 119.307 268.296C118.908 267.479 118.773 266.574 118.901 265.582L122.322 266.023C122.387 266.778 122.636 267.344 123.071 267.723C123.504 268.121 124.216 268.385 125.208 268.512C126.18 268.638 126.933 268.583 127.467 268.35C128.002 268.116 128.302 267.741 128.368 267.226C128.422 266.809 128.315 266.463 128.049 266.186C127.759 265.927 127.326 265.69 126.749 265.474C126.152 265.256 125.407 265.009 124.515 264.733C123.762 264.474 123.051 264.201 122.383 263.914C121.694 263.623 121.092 263.284 120.578 262.895C120.061 262.525 119.677 262.063 119.426 261.506C119.153 260.967 119.066 260.31 119.166 259.537C119.288 258.584 119.669 257.817 120.309 257.234C120.929 256.648 121.768 256.242 122.826 256.015C123.881 255.809 125.112 255.796 126.521 255.977C127.77 256.138 128.835 256.407 129.714 256.782C130.571 257.175 131.27 257.618 131.811 258.111C132.35 258.624 132.758 259.14 133.033 259.66C133.287 260.197 133.445 260.691 133.508 261.143C133.571 261.594 133.564 261.956 133.489 262.229Z" fill="black"/>
<path d="M111.312 252.621C112.735 253.03 113.944 253.711 114.939 254.664C115.91 255.63 116.581 256.77 116.952 258.084C117.298 259.411 117.258 260.815 116.832 262.295C116.395 263.813 115.67 265.03 114.658 265.946C113.645 266.862 112.464 267.458 111.115 267.736C109.74 268.027 108.304 267.957 106.805 267.526C105.152 267.05 103.922 266.332 103.116 265.372C102.286 264.425 101.803 263.318 101.668 262.052C101.533 260.785 101.668 259.45 102.071 258.047C102.315 257.201 102.698 256.375 103.222 255.568C103.74 254.781 104.385 254.093 105.158 253.503C105.926 252.934 106.828 252.548 107.864 252.347C108.894 252.165 110.044 252.256 111.312 252.621ZM109.272 255.156C108.138 254.829 107.102 254.739 106.165 254.886C105.228 255.032 104.439 255.388 103.798 255.953C103.157 256.517 102.706 257.251 102.446 258.155C102.164 259.135 102.157 260.028 102.425 260.833C102.668 261.652 103.152 262.354 103.879 262.938C104.581 263.535 105.5 263.997 106.633 264.323C108.229 264.783 109.59 264.716 110.718 264.125C111.84 263.553 112.6 262.575 112.998 261.191C113.263 260.269 113.284 259.401 113.061 258.587C112.831 257.793 112.397 257.096 111.758 256.495C111.1 255.89 110.271 255.443 109.272 255.156ZM100.38 265.333L96.6324 264.255L100.756 249.926L104.244 250.93C104.244 250.93 104.221 251.121 104.173 251.503C104.101 251.898 104.001 252.39 103.874 252.978C103.746 253.565 103.602 254.138 103.442 254.695L100.38 265.333Z" fill="black"/>
<path d="M91.3339 247.895L92.6105 248.493L82.4193 257.366L78.5624 255.557L91.3844 245.102L94.7253 246.669L94.7508 263.149L90.8667 261.327L91.3339 247.895Z" fill="black"/>
<path d="M69.332 257.042L71.1383 254.138L74.9849 256.531L73.1786 259.435L69.332 257.042ZM76.378 253.723L73.0663 251.663L80.941 239.002L84.2527 241.062L76.378 253.723Z" fill="black"/>
<path d="M66.9572 247.599L63.926 245.145L73.3078 233.557L76.339 236.011L66.9572 247.599ZM58.3323 241.041C57.6172 240.462 57.0321 239.834 56.5769 239.157C56.1216 238.48 55.8259 237.764 55.6898 237.011C55.5536 236.257 55.6066 235.476 55.8486 234.669C56.0781 233.877 56.5264 233.069 57.1934 232.245L62.9319 225.157L65.9631 227.611L60.6587 234.163C59.8659 235.142 59.5279 236.052 59.6448 236.893C59.7336 237.737 60.3143 238.593 61.3869 239.461C62.1952 240.116 63.0516 240.552 63.9562 240.769C64.8607 240.987 65.7102 241.019 66.5044 240.864C67.2861 240.725 67.9157 240.424 68.3932 239.961L67.4538 241.169C66.9356 241.65 66.329 242.034 65.6339 242.321C64.9388 242.607 64.1882 242.771 63.3821 242.814C62.5478 242.859 61.7036 242.741 60.8494 242.462C59.9951 242.182 59.1561 241.708 58.3323 241.041Z" fill="black"/>
<path d="M55.6389 219.984C56.7178 221.192 57.4912 222.419 57.959 223.664C58.3986 224.907 58.4868 226.102 58.2236 227.248C57.9604 228.395 57.3215 229.421 56.307 230.327C55.3075 231.219 54.2224 231.746 53.0518 231.906C51.8812 232.066 50.6883 231.871 49.4729 231.321C48.2443 230.756 47.0771 229.854 45.9715 228.616C45.6652 228.273 45.3945 227.924 45.1595 227.571C44.9112 227.203 44.6845 226.829 44.4794 226.449L39.4866 220.812L41.6797 218.854C42.3739 219.602 42.9771 220.457 43.4891 221.421C43.9729 222.383 44.3619 223.269 44.656 224.079L44.5593 224.286C44.3451 223.566 44.2172 222.822 44.1757 222.055C44.1192 221.301 44.2023 220.583 44.425 219.902C44.6195 219.219 45.0151 218.611 45.6118 218.078C46.5816 217.212 47.6368 216.712 48.7775 216.579C49.9034 216.458 51.059 216.686 52.2446 217.263C53.4018 217.839 54.5333 218.746 55.6389 219.984ZM58.5903 210.632L58.0533 211.112C57.367 211.725 57.0894 212.375 57.2205 213.062C57.3382 213.734 57.7368 214.451 58.4161 215.212L61.5131 218.68C62.1125 219.352 62.5665 219.965 62.875 220.521C63.1702 221.062 63.3407 221.553 63.3865 221.995C63.4323 222.437 63.3742 222.837 63.2123 223.196C63.0652 223.542 62.8425 223.848 62.5441 224.114C61.9474 224.647 61.3266 224.853 60.6819 224.731C60.0223 224.623 59.3472 224.288 58.6567 223.724C57.9662 223.161 57.2978 222.458 56.6515 221.614L55.6389 219.984C56.5079 220.897 57.216 221.525 57.7632 221.868C58.2821 222.209 58.7281 222.213 59.1011 221.88C59.3249 221.68 59.424 221.431 59.3984 221.132C59.3579 220.846 59.1911 220.539 58.8981 220.211L55.6412 216.563C54.7488 215.564 54.0939 214.62 53.6767 213.733C53.2611 212.817 53.1405 211.946 53.3147 211.12C53.5038 210.281 54.046 209.462 54.9411 208.662L55.9929 207.723L58.5903 210.632ZM53.5353 221.862C52.9625 221.221 52.3586 220.754 51.7235 220.464C51.075 220.158 50.437 220.044 49.8094 220.122C49.1668 220.213 48.5695 220.505 48.0175 220.997C47.4506 221.504 47.0856 222.071 46.9226 222.699C46.7595 223.327 46.7867 223.973 47.0041 224.637C47.2066 225.314 47.6009 225.981 48.187 226.638C48.7597 227.279 49.3778 227.746 50.0412 228.039C50.6896 228.344 51.3351 228.452 51.9777 228.361C52.6202 228.27 53.225 227.971 53.7919 227.465C54.3439 226.972 54.7014 226.411 54.8644 225.783C55.0126 225.168 54.9779 224.529 54.7605 223.865C54.5298 223.186 54.1214 222.519 53.5353 221.862Z" fill="black"/>
<path d="M33.01 210.023L27.1674 199.541L29.7616 198.095L35.6042 208.577L33.01 210.023ZM23.093 205.11L21.5885 202.411L24.3399 200.877L25.3916 202.764C25.6565 203.28 25.9524 203.688 26.2791 203.986C26.6059 204.285 26.9888 204.438 27.4278 204.445C27.8494 204.462 28.3572 204.305 28.9511 203.974L42.2628 196.554L44.1616 199.96L30.4307 207.614C29.3825 208.198 28.4194 208.483 27.5413 208.469C26.6458 208.464 25.8315 208.174 25.0983 207.598C24.3651 207.022 23.6967 206.193 23.093 205.11Z" fill="black"/>
<path d="M36.2048 181.926C36.8772 183.682 37.1908 185.339 37.1455 186.899C37.093 188.439 36.6776 189.787 35.8991 190.942C35.102 192.104 33.919 192.985 32.3501 193.586C30.7812 194.187 29.3121 194.321 27.9427 193.989C26.5546 193.664 25.3265 192.946 24.2583 191.834C23.183 190.704 22.3091 189.261 21.6367 187.505C20.9643 185.75 20.6579 184.111 20.7175 182.589C20.77 181.048 21.2041 179.693 22.0199 178.524C22.8171 177.362 24.0001 176.481 25.5689 175.88C27.1378 175.279 28.607 175.145 29.9764 175.477C31.3271 175.816 32.5365 176.542 33.6047 177.653C34.6657 178.746 35.5324 180.17 36.2048 181.926ZM33.4033 182.999C33.0313 182.028 32.5306 181.224 31.9011 180.587C31.2458 179.938 30.5055 179.515 29.6801 179.317C28.8361 179.126 27.9378 179.213 26.9853 179.578C26.0327 179.943 25.3061 180.478 24.8054 181.184C24.286 181.897 23.9956 182.704 23.934 183.606C23.8724 184.508 24.0311 185.453 24.4103 186.443C24.7822 187.414 25.2958 188.224 25.9511 188.873C26.6064 189.521 27.3597 189.95 28.2109 190.16C29.0549 190.35 29.9626 190.26 30.9338 189.888C31.8863 189.523 32.6129 188.988 33.1136 188.282C33.5956 187.583 33.8639 186.774 33.9183 185.854C33.9541 184.94 33.7824 183.989 33.4033 182.999Z" fill="black"/>
<path d="M18.1736 175.252L17.2993 171.452L31.8298 168.109L32.7041 171.91L18.1736 175.252ZM19.1431 165.148C19.3942 166.239 19.826 167.135 20.4386 167.836C21.0318 168.541 21.6865 169.067 22.4028 169.416C23.1191 169.764 23.7823 169.971 24.3924 170.035L22.7911 170.435C22.5527 170.469 22.1937 170.469 21.714 170.436C21.2149 170.407 20.6708 170.317 20.0817 170.165C19.4732 170.018 18.8738 169.776 18.2834 169.44C17.6735 169.108 17.1386 168.656 16.6788 168.085C16.219 167.514 15.8905 166.799 15.6932 165.941L19.1431 165.148Z" fill="black"/>
<path d="M23.9515 146.514L23.6134 142.749C24.6436 142.817 25.5884 143.164 26.4478 143.79C27.3054 144.395 28.0161 145.265 28.5798 146.399C29.1435 147.534 29.5013 148.947 29.6533 150.64C29.8233 152.533 29.6747 154.233 29.2077 155.741C28.7207 157.25 27.9362 158.465 26.8542 159.386C25.7722 160.306 24.4145 160.84 22.781 160.986C21.1476 161.133 19.7174 160.86 18.4905 160.167C17.2437 159.476 16.2481 158.451 15.5036 157.092C14.7573 155.713 14.2983 154.067 14.1266 152.155C13.9513 150.203 14.1143 148.552 14.6155 147.201C15.1168 145.851 15.9672 144.811 17.1667 144.081C18.3445 143.332 19.904 142.921 21.8451 142.847L23.1168 157.01C23.8648 156.843 24.527 156.502 25.1034 155.989C25.678 155.455 26.1088 154.774 26.3958 153.945C26.681 153.096 26.7736 152.114 26.6734 150.998C26.5625 149.763 26.2612 148.756 25.7696 147.977C25.2562 147.18 24.6502 146.692 23.9515 146.514ZM17.1008 152.069C17.2295 153.503 17.6529 154.64 18.3708 155.479C19.0688 156.32 19.8876 156.829 20.8272 157.005L19.9204 146.906C18.9333 147.095 18.1894 147.644 17.6886 148.552C17.1662 149.442 16.9702 150.615 17.1008 152.069Z" fill="black"/>
<path d="M24.0278 141.375L24.2416 137.781C24.9335 137.602 25.5192 137.186 25.9988 136.533C26.4597 135.859 26.7233 134.964 26.7898 133.846C26.835 133.087 26.8001 132.494 26.6853 132.066C26.5705 131.639 26.3881 131.337 26.138 131.162C25.868 130.986 25.5633 130.887 25.2239 130.867C24.8047 130.842 24.4775 130.953 24.2425 131.2C23.9874 131.445 23.774 131.833 23.6022 132.364C23.4304 132.894 23.2596 133.575 23.09 134.407C22.9003 135.237 22.6825 136.035 22.4366 136.802C22.1906 137.569 21.8901 138.242 21.535 138.822C21.16 139.401 20.7122 139.855 20.1917 140.185C19.6525 140.493 19.0135 140.626 18.2748 140.582C17.5561 140.539 16.9273 140.331 16.3885 139.959C15.8508 139.566 15.4108 139.049 15.0682 138.408C14.7269 137.746 14.4814 136.99 14.3316 136.14C14.183 135.269 14.1378 134.345 14.196 133.367C14.2839 131.889 14.5766 130.675 15.074 129.723C15.5514 128.769 16.1937 128.076 17.0009 127.643C17.7892 127.189 18.6825 126.992 19.6807 127.051L19.4759 130.495C18.7277 130.611 18.1796 130.899 17.8317 131.359C17.4638 131.818 17.2501 132.547 17.1907 133.545C17.1325 134.523 17.2383 135.271 17.5081 135.788C17.7779 136.305 18.1723 136.579 18.6914 136.609C19.1107 136.634 19.449 136.504 19.7064 136.219C19.945 135.913 20.152 135.464 20.3274 134.874C20.5039 134.263 20.6994 133.503 20.9138 132.594C21.1198 131.825 21.3434 131.097 21.5846 130.41C21.827 129.704 22.1246 129.08 22.4773 128.54C22.81 127.999 23.2454 127.584 23.7835 127.295C24.3028 126.986 24.9518 126.854 25.7304 126.9C26.6887 126.957 27.4806 127.285 28.1062 127.883C28.733 128.461 29.1958 129.27 29.4946 130.31C29.7734 131.348 29.8706 132.576 29.7863 133.994C29.7115 135.251 29.517 136.332 29.2028 137.235C28.8699 138.117 28.476 138.844 28.0211 139.418C27.5462 139.991 27.0591 140.433 26.5598 140.744C26.0417 141.034 25.5594 141.225 25.1131 141.319C24.6667 141.413 24.305 141.431 24.0278 141.375Z" fill="black"/>
<path d="M15.5643 123.697L17.7133 112.318L20.6906 112.881L18.5417 124.26L15.5643 123.697ZM12.2678 119.167L12.9915 115.335L31.6517 118.859L30.9279 122.691L12.2678 119.167Z" fill="black"/>
<path d="M28.3284 111.359L29.44 107.935C30.1547 107.936 30.8263 107.681 31.4547 107.17C32.0703 106.634 32.5511 105.833 32.8969 104.768C33.1316 104.045 33.2471 103.462 33.2437 103.02C33.2402 102.577 33.1395 102.239 32.9416 102.007C32.7247 101.768 32.4546 101.596 32.1312 101.491C31.7317 101.362 31.3872 101.386 31.0977 101.566C30.7891 101.739 30.4849 102.061 30.185 102.531C29.8851 103.002 29.5484 103.618 29.1749 104.38C28.7824 105.135 28.3706 105.853 27.9395 106.533C27.5084 107.214 27.0481 107.79 26.5585 108.261C26.0498 108.727 25.5021 109.054 24.9154 109.242C24.3158 109.405 23.6641 109.372 22.9603 109.144C22.2755 108.921 21.7192 108.562 21.2916 108.066C20.8701 107.55 20.5743 106.939 20.4043 106.232C20.2405 105.506 20.1932 104.713 20.2623 103.852C20.3376 102.972 20.5266 102.066 20.8292 101.134C21.2862 99.7265 21.8752 98.6245 22.5963 97.8283C23.2984 97.0258 24.0945 96.5168 24.9846 96.3011C25.8618 96.0602 26.776 96.0941 27.7271 96.4029L26.6619 99.6843C25.9086 99.608 25.3057 99.7487 24.8532 100.106C24.3816 100.458 23.9914 101.109 23.6826 102.06C23.38 102.993 23.2942 103.743 23.4251 104.311C23.5561 104.879 23.8689 105.244 24.3635 105.404C24.7629 105.534 25.1231 105.493 25.444 105.282C25.7521 105.045 26.0653 104.663 26.3838 104.136C26.7084 103.589 27.0888 102.903 27.525 102.078C27.918 101.385 28.3177 100.737 28.7241 100.133C29.1367 99.5099 29.5816 98.9815 30.0588 98.5476C30.5171 98.1076 31.0429 97.8157 31.6363 97.6719C32.2169 97.5029 32.8781 97.5388 33.62 97.7797C34.5331 98.0761 35.217 98.5925 35.6719 99.3289C36.1329 100.046 36.3771 100.946 36.4046 102.027C36.413 103.102 36.198 104.315 35.7596 105.666C35.3705 106.864 34.9103 107.861 34.3789 108.655C33.8347 109.425 33.2703 110.03 32.6855 110.471C32.0817 110.906 31.4991 111.211 30.9376 111.386C30.3632 111.536 29.8482 111.6 29.3927 111.579C28.9371 111.557 28.5824 111.484 28.3284 111.359Z" fill="black"/>
<path d="M48.2446 71.0452L50.5432 68.2745C51.207 68.5394 51.9253 68.5506 52.6981 68.3082C53.4683 68.0376 54.2109 67.4713 54.926 66.6093C55.4113 66.0244 55.7341 65.5256 55.8945 65.113C56.0549 64.7003 56.0862 64.3494 55.9882 64.0603C55.8749 63.7584 55.6874 63.4989 55.4257 63.2818C55.1024 63.0136 54.7731 62.9094 54.4378 62.969C54.0871 63.0159 53.6855 63.2024 53.2329 63.5286C52.7804 63.8549 52.2398 64.3029 51.6111 64.8728C50.9671 65.4299 50.3191 65.9448 49.6671 66.4174C49.0152 66.89 48.3745 67.2551 47.7451 67.5125C47.1004 67.7572 46.4707 67.8585 45.856 67.8163C45.2387 67.746 44.6453 67.4746 44.0757 67.0021C43.5216 66.5424 43.1376 66.0029 42.9237 65.3837C42.7225 64.7491 42.6736 64.0719 42.777 63.3521C42.8932 62.6169 43.1425 61.8622 43.5249 61.088C43.92 60.2984 44.4305 59.5265 45.0562 58.7723C46.0011 57.6332 46.9558 56.827 47.9201 56.3537C48.8691 55.8676 49.797 55.6889 50.7038 55.8174C51.6079 55.9179 52.4448 56.2873 53.2145 56.9258L51.0117 59.5811C50.34 59.2317 49.7278 59.1396 49.175 59.3047C48.6069 59.4571 48.0036 59.9181 47.3651 60.6877C46.7394 61.4419 46.3824 62.1073 46.294 62.6836C46.2057 63.26 46.3616 63.7142 46.7618 64.0462C47.0851 64.3143 47.4348 64.4096 47.8111 64.3319C48.1847 64.2261 48.6169 63.987 49.1078 63.6146C49.6114 63.2268 50.2185 62.73 50.929 62.1241C51.5502 61.6259 52.1612 61.1713 52.762 60.7602C53.3757 60.3338 53.9844 60.0072 54.5882 59.7805C55.1767 59.5411 55.7731 59.4642 56.3777 59.5499C56.9796 59.6075 57.5807 59.8853 58.181 60.3833C58.9199 60.9963 59.3645 61.7289 59.5149 62.5813C59.6781 63.4183 59.5726 64.3443 59.1984 65.3591C58.8088 66.3613 58.1607 67.4088 57.2541 68.5016C56.4496 69.4714 55.6536 70.2273 54.8661 70.7694C54.076 71.2833 53.3277 71.637 52.6214 71.8306C51.8997 72.0115 51.2456 72.0795 50.6591 72.0347C50.0699 71.9618 49.5677 71.831 49.1525 71.6424C48.7372 71.4539 48.4346 71.2548 48.2446 71.0452Z" fill="black"/>
<path d="M68.225 57.4473C67.1184 58.43 65.8965 59.0872 64.5594 59.4188C63.2239 59.7222 61.9018 59.6793 60.5932 59.29C59.2862 58.8726 58.1214 58.0881 57.0988 56.9367C56.0496 55.7553 55.4091 54.4919 55.1771 53.1465C54.9452 51.801 55.0728 50.484 55.56 49.1953C56.0489 47.8784 56.8766 46.702 58.043 45.6661C59.329 44.524 60.5932 43.8693 61.8357 43.7021C63.0798 43.5067 64.2731 43.6907 65.4155 44.2543C66.558 44.8178 67.614 45.6454 68.5835 46.737C69.1678 47.395 69.6608 48.1609 70.0623 49.0347C70.4506 49.8936 70.6869 50.8072 70.7712 51.7755C70.8422 52.7289 70.6856 53.6972 70.3015 54.6803C69.9042 55.6484 69.212 56.5707 68.225 57.4473ZM67.175 54.3675C68.0573 53.5839 68.6871 52.7571 69.0645 51.8869C69.442 51.0167 69.5636 50.1598 69.4294 49.316C69.2952 48.4722 68.9161 47.6989 68.2919 46.996C67.6145 46.2334 66.864 45.7497 66.0403 45.5451C65.2183 45.3122 64.3662 45.3467 63.4841 45.6486C62.6037 45.9222 61.7224 46.4509 60.8401 47.2344C59.5989 48.3367 58.9266 49.5223 58.823 50.7912C58.7062 52.0452 59.1259 53.2105 60.0821 54.2872C60.7196 55.0049 61.4419 55.4869 62.249 55.7331C63.0428 55.9643 63.8641 55.9705 64.7129 55.7516C65.5767 55.5195 66.3974 55.0581 67.175 54.3675ZM63.3315 41.4107L66.2475 38.821L76.1483 49.9691L73.4342 52.3796C73.4342 52.3796 73.2856 52.2575 72.9884 52.0132C72.6929 51.7407 72.3309 51.3934 71.9026 50.9713C71.4743 50.5493 71.0675 50.1214 70.6824 49.6877L63.3315 41.4107Z" fill="black"/>
<path d="M82.9044 43.0952L81.7157 43.8536L79.6703 30.4971L83.2615 28.2057L85.237 44.6317L82.1263 46.6165L68.1884 37.8231L71.8049 35.5156L82.9044 43.0952Z" fill="black"/>
<path d="M86.944 19.6125L88.4316 22.6921L84.3526 24.6625L82.865 21.5829L86.944 19.6125ZM85.9798 27.3414L89.4916 25.645L95.9769 39.0707L92.4652 40.767L85.9798 27.3414Z" fill="black"/>
<path d="M96.1926 22.657L99.8874 21.4086L104.66 35.5339L100.966 36.7824L96.1926 22.657ZM106.347 18.8774C107.219 18.5829 108.062 18.4245 108.878 18.4022C109.694 18.3799 110.457 18.5127 111.166 18.8007C111.876 19.0887 112.507 19.551 113.06 20.1875C113.606 20.8051 114.049 21.616 114.388 22.6202L117.308 31.2602L113.613 32.5087L110.914 24.5224C110.511 23.3287 109.923 22.5563 109.15 22.2053C108.389 21.829 107.355 21.8617 106.048 22.3035C105.063 22.6364 104.236 23.1268 103.569 23.7746C102.901 24.4225 102.42 25.1233 102.126 25.8772C101.825 26.6121 101.743 27.3049 101.878 27.9558L101.36 26.5159C101.231 25.8208 101.231 25.1029 101.36 24.3624C101.49 23.6219 101.753 22.8998 102.148 22.1962C102.557 21.4671 103.107 20.8166 103.801 20.2445C104.494 19.6725 105.343 19.2168 106.347 18.8774Z" fill="black"/>
<path d="M125.579 27.8649C123.981 28.1301 122.531 28.1275 121.229 27.857C119.944 27.5635 118.887 26.9989 118.059 26.1632C117.231 25.3275 116.706 24.2389 116.483 22.8972C116.264 21.5753 116.399 20.3769 116.89 19.3021C117.38 18.2273 118.183 17.3236 119.298 16.5911C120.433 15.8554 121.819 15.3516 123.457 15.0798C123.911 15.0044 124.35 14.962 124.774 14.9524C125.218 14.9396 125.655 14.9481 126.086 14.9779L133.519 13.7746L134.001 16.6749C132.998 16.8616 131.952 16.9135 130.864 16.8306C129.792 16.7247 128.835 16.5794 127.994 16.3947L127.87 16.2023C128.594 16.4066 129.291 16.6964 129.961 17.0717C130.628 17.4272 131.19 17.8813 131.647 18.434C132.12 18.9637 132.422 19.6232 132.553 20.4124C132.766 21.6948 132.624 22.8537 132.127 23.8891C131.626 24.9048 130.815 25.7591 129.693 26.4521C128.588 27.1221 127.217 27.593 125.579 27.8649ZM131.902 35.3607L131.784 34.6504C131.633 33.7429 131.233 33.1606 130.582 32.9037C129.951 32.6436 129.132 32.597 128.126 32.764L123.539 33.5254C122.651 33.6728 121.889 33.7282 121.255 33.6916C120.64 33.6517 120.134 33.533 119.736 33.3354C119.338 33.1379 119.031 32.8747 118.814 32.5457C118.601 32.2365 118.461 31.8846 118.396 31.49C118.265 30.7008 118.423 30.0663 118.871 29.5866C119.315 29.0871 119.959 28.6963 120.805 28.4141C121.65 28.1318 122.602 27.9434 123.661 27.8488L125.579 27.8649C124.343 28.1106 123.433 28.3731 122.851 28.6522C122.286 28.9082 122.044 29.2829 122.126 29.7762C122.175 30.0721 122.332 30.2892 122.599 30.4275C122.862 30.546 123.21 30.5693 123.644 30.4972L128.468 29.6965C129.79 29.4771 130.938 29.4286 131.911 29.5509C132.907 29.6896 133.707 30.0535 134.312 30.6424C134.92 31.2511 135.322 32.1474 135.518 33.3312L135.749 34.7221L131.902 35.3607ZM125.117 25.0829C125.966 24.9421 126.683 24.6812 127.268 24.3002C127.874 23.9159 128.311 23.4378 128.581 22.8658C128.848 22.2742 128.921 21.6133 128.799 20.8833C128.675 20.1336 128.391 19.5218 127.947 19.0481C127.504 18.5743 126.944 18.2517 126.266 18.0803C125.586 17.8891 124.812 17.8656 123.943 18.0097C123.095 18.1505 122.37 18.4229 121.768 18.8269C121.163 19.2112 120.727 19.6992 120.46 20.2909C120.193 20.8825 120.122 21.5532 120.246 22.303C120.368 23.033 120.65 23.6349 121.094 24.1086C121.534 24.5627 122.093 24.8754 122.77 25.0468C123.467 25.215 124.249 25.227 125.117 25.0829Z" fill="black"/>
<path d="M146.1 14.0732L158.081 14.7432L157.915 17.7086L145.934 17.0386L146.1 14.0732ZM155.555 8.32223L158.641 8.49475L158.465 11.6398L156.308 11.5192C155.73 11.4669 155.228 11.4989 154.8 11.6152C154.373 11.7315 154.039 11.9733 153.798 12.3404C153.559 12.6875 153.42 13.2006 153.382 13.8795L152.531 29.0958L148.637 28.878L149.515 13.1825C149.582 11.9844 149.856 11.0182 150.338 10.284C150.821 9.52975 151.501 8.99693 152.38 8.68551C153.259 8.37409 154.317 8.25299 155.555 8.32223Z" fill="black"/>
<path d="M168.131 31.8016C166.288 31.4306 164.719 30.809 163.426 29.9367C162.152 29.0683 161.236 27.9963 160.677 26.7209C160.121 25.4259 160.009 23.9548 160.341 22.3079C160.672 20.6609 161.345 19.3477 162.358 18.3684C163.375 17.3695 164.639 16.716 166.149 16.408C167.679 16.1039 169.366 16.1373 171.209 16.5083C173.052 16.8793 174.6 17.497 175.854 18.3614C177.128 19.2298 178.041 20.3213 178.592 21.636C179.148 22.931 179.259 24.402 178.928 26.049C178.596 27.696 177.924 29.0091 176.911 29.9885C175.902 30.9482 174.642 31.5821 173.131 31.8901C171.641 32.2021 169.974 32.1726 168.131 31.8016ZM168.723 28.8606C169.742 29.0658 170.689 29.0728 171.564 28.8817C172.463 28.6749 173.216 28.2758 173.825 27.6843C174.438 27.0731 174.845 26.2676 175.046 25.2676C175.247 24.2677 175.183 23.3674 174.855 22.5669C174.53 21.7467 174.004 21.0695 173.275 20.5351C172.546 20.0008 171.662 19.6291 170.623 19.4199C169.603 19.2147 168.644 19.2155 167.746 19.4223C166.847 19.6291 166.082 20.036 165.45 20.6432C164.837 21.2544 164.428 22.0697 164.223 23.0893C164.022 24.0892 164.085 24.9894 164.414 25.79C164.746 26.571 165.287 27.2306 166.035 27.7688C166.788 28.2875 167.683 28.6514 168.723 28.8606Z" fill="black"/>
<path d="M183.414 20.136L187.093 21.4302L182.145 35.4953L178.466 34.201L183.414 20.136ZM191.433 26.3599C190.376 25.9882 189.388 25.8738 188.469 26.0168C187.556 26.1408 186.761 26.4123 186.083 26.8313C185.406 27.2502 184.877 27.7 184.496 28.1808L185.015 26.6144C185.113 26.3946 185.305 26.091 185.59 25.7035C185.881 25.2972 186.248 24.8858 186.692 24.4693C187.142 24.034 187.667 23.6568 188.266 23.3378C188.873 22.9999 189.541 22.7895 190.269 22.7067C190.998 22.6239 191.778 22.7285 192.608 23.0205L191.433 26.3599Z" fill="black"/>
<path d="M204.605 40.3899L207.967 42.118C207.359 42.952 206.56 43.5648 205.572 43.9562C204.601 44.3568 203.486 44.492 202.226 44.3616C200.967 44.2312 199.581 43.7774 198.069 43.0002C196.379 42.1316 195.022 41.0967 193.998 39.8956C192.983 38.6767 192.376 37.3639 192.177 35.9574C191.978 34.5508 192.253 33.1183 193.003 31.6597C193.753 30.2011 194.749 29.1389 195.991 28.4729C197.242 27.7892 198.64 27.4963 200.187 27.5941C201.751 27.701 203.387 28.1934 205.094 29.0712C206.837 29.9673 208.145 30.9882 209.018 32.1339C209.891 33.2797 210.315 34.5546 210.29 35.9586C210.292 37.3541 209.806 38.8916 208.83 40.5713L196.183 34.0701C195.924 34.7917 195.858 35.5334 195.984 36.2951C196.127 37.066 196.472 37.7944 197.019 38.4803C197.584 39.1754 198.364 39.7789 199.36 40.291C200.463 40.8579 201.475 41.142 202.397 41.1434C203.345 41.1361 204.081 40.8849 204.605 40.3899ZM203.576 31.6303C202.296 30.972 201.109 30.7217 200.016 30.8794C198.932 31.0193 198.064 31.439 197.412 32.1383L206.43 36.7742C206.799 35.8391 206.733 34.917 206.233 34.008C205.76 33.0904 204.875 32.2978 203.576 31.6303Z" fill="black"/>
<path d="M208.907 43.2033L211.829 45.3061C211.61 45.9865 211.648 46.7039 211.943 47.4583C212.266 48.208 212.882 48.91 213.791 49.5642C214.408 50.0082 214.928 50.296 215.35 50.4277C215.773 50.5594 216.125 50.5664 216.407 50.4489C216.7 50.3151 216.946 50.1102 217.145 49.8342C217.39 49.4933 217.472 49.1576 217.389 48.8272C217.318 48.4805 217.105 48.0927 216.748 47.6636C216.391 47.2345 215.907 46.726 215.296 46.1379C214.696 45.5336 214.137 44.9225 213.621 44.3046C213.105 43.6866 212.697 43.0725 212.397 42.4623C212.108 41.8359 211.964 41.2146 211.964 40.5985C211.992 39.9778 212.222 39.3672 212.654 38.7666C213.074 38.1822 213.586 37.762 214.189 37.5061C214.809 37.2618 215.481 37.1665 216.206 37.2203C216.948 37.2857 217.718 37.4825 218.516 37.8108C219.331 38.1509 220.136 38.6071 220.932 39.1795C222.133 40.044 223.003 40.941 223.541 41.8706C224.091 42.7839 224.333 43.6974 224.267 44.6108C224.229 45.5198 223.918 46.3801 223.334 47.1917L220.534 45.1765C220.836 44.4824 220.886 43.8653 220.683 43.3252C220.492 42.7689 219.991 42.1986 219.179 41.6145C218.384 41.0421 217.696 40.7316 217.114 40.683C216.533 40.6345 216.091 40.8212 215.787 41.2433C215.542 41.5842 215.471 41.9397 215.574 42.3097C215.705 42.6752 215.974 43.09 216.379 43.5541C216.8 44.0299 217.338 44.6014 217.991 45.2686C218.531 45.8541 219.026 46.4325 219.478 47.0037C219.945 47.5866 220.313 48.1715 220.58 48.7583C220.86 49.3289 220.977 49.9187 220.933 50.5277C220.917 51.1321 220.681 51.7509 220.226 52.384C219.665 53.1632 218.965 53.6571 218.124 53.8657C217.301 54.086 216.37 54.0443 215.331 53.7407C214.305 53.4209 213.215 52.8462 212.063 52.0168C211.04 51.2808 210.231 50.5386 209.637 49.7902C209.07 49.0372 208.665 48.315 208.424 47.6236C208.194 46.916 208.081 46.2681 208.085 45.6799C208.118 45.0872 208.214 44.5772 208.373 44.15C208.533 43.7227 208.711 43.4072 208.907 43.2033Z" fill="black"/>
<path d="M228.37 45.5077L236.834 53.4098L234.767 55.6247L226.302 47.7226L228.37 45.5077ZM233.961 45.1457L236.812 47.807L223.853 61.6884L221.002 59.027L233.961 45.1457Z" fill="black"/>
<path d="M231.967 62.8918L234.265 65.6625C233.883 66.266 233.739 66.9699 233.834 67.7741C233.958 68.5811 234.377 69.4155 235.093 70.2775C235.578 70.8624 236.008 71.2718 236.384 71.5057C236.76 71.7395 237.099 71.835 237.402 71.7922C237.719 71.7366 238.009 71.6002 238.271 71.3831C238.594 71.1149 238.757 70.8106 238.76 70.47C238.779 70.1167 238.67 69.6875 238.433 69.1825C238.196 68.6775 237.855 68.0635 237.411 67.3404C236.983 66.6045 236.597 65.8725 236.252 65.1445C235.908 64.4165 235.668 63.7194 235.531 63.0533C235.41 62.3745 235.426 61.7369 235.581 61.1406C235.765 60.5469 236.141 60.0138 236.71 59.5413C237.265 59.0816 237.866 58.8038 238.514 58.708C239.175 58.6275 239.849 58.7045 240.538 58.9391C241.239 59.189 241.934 59.5734 242.625 60.0922C243.328 60.6264 243.992 61.2706 244.618 62.0249C245.563 63.1639 246.179 64.2511 246.466 65.2862C246.768 66.3086 246.772 67.2536 246.479 68.121C246.213 68.9911 245.695 69.7453 244.926 70.3838L242.723 67.7286C243.19 67.1329 243.394 66.5483 243.334 65.9745C243.289 65.388 242.947 64.7099 242.309 63.9403C241.683 63.1861 241.095 62.7123 240.545 62.519C239.995 62.3257 239.52 62.3951 239.119 62.7271C238.796 62.9953 238.638 63.3214 238.645 63.7055C238.68 64.0923 238.835 64.5613 239.11 65.1124C239.398 65.679 239.775 66.3674 240.239 67.1776C240.614 67.8801 240.948 68.5645 241.241 69.231C241.546 69.9128 241.755 70.5714 241.866 71.2067C241.993 71.8293 241.958 72.4297 241.762 73.008C241.595 73.5889 241.211 74.1283 240.61 74.6264C239.871 75.2393 239.069 75.541 238.204 75.5314C237.351 75.5372 236.46 75.2625 235.532 74.7073C234.619 74.1393 233.709 73.3089 232.803 72.216C231.998 71.2463 231.402 70.3244 231.015 69.4503C230.656 68.5789 230.447 67.7782 230.387 67.0482C230.342 66.3055 230.396 65.6501 230.549 65.0819C230.729 64.5164 230.95 64.047 231.212 63.6737C231.474 63.3004 231.726 63.0398 231.967 62.8918Z" fill="black"/>
<path d="M255.377 101.283L256.488 104.707C255.909 105.126 255.516 105.727 255.307 106.51C255.124 107.305 255.205 108.236 255.551 109.301C255.785 110.024 256.034 110.564 256.297 110.92C256.56 111.276 256.84 111.49 257.136 111.562C257.452 111.628 257.772 111.608 258.095 111.503C258.494 111.373 258.759 111.151 258.888 110.836C259.036 110.514 259.093 110.075 259.059 109.518C259.026 108.962 258.936 108.265 258.791 107.429C258.665 106.587 258.576 105.764 258.526 104.96C258.475 104.157 258.509 103.42 258.629 102.751C258.767 102.075 259.018 101.489 259.382 100.992C259.772 100.508 260.319 100.152 261.023 99.9234C261.707 99.701 262.369 99.6651 263.006 99.8156C263.65 99.9851 264.248 100.306 264.801 100.778C265.36 101.27 265.865 101.884 266.314 102.621C266.77 103.378 267.149 104.222 267.452 105.154C267.909 106.561 268.079 107.799 267.963 108.867C267.866 109.929 267.521 110.809 266.927 111.506C266.359 112.216 265.599 112.726 264.648 113.035L263.583 109.753C264.237 109.372 264.643 108.904 264.799 108.349C264.974 107.788 264.907 107.031 264.598 106.08C264.296 105.148 263.925 104.49 263.485 104.108C263.045 103.725 262.578 103.613 262.083 103.774C261.684 103.904 261.416 104.148 261.281 104.508C261.17 104.88 261.141 105.373 261.193 105.987C261.251 106.62 261.346 107.399 261.478 108.323C261.567 109.114 261.624 109.874 261.65 110.601C261.682 111.348 261.633 112.037 261.501 112.668C261.389 113.294 261.135 113.839 260.739 114.304C260.368 114.781 259.812 115.141 259.07 115.382C258.157 115.678 257.3 115.662 256.5 115.333C255.705 115.023 254.979 114.439 254.322 113.58C253.683 112.714 253.145 111.607 252.707 110.256C252.318 109.058 252.105 107.981 252.068 107.025C252.056 106.083 252.158 105.261 252.372 104.561C252.605 103.855 252.897 103.265 253.249 102.794C253.626 102.335 254.005 101.981 254.386 101.731C254.768 101.481 255.098 101.332 255.377 101.283Z" fill="black"/>
<path d="M256.179 125.438C255.94 123.977 256.039 122.593 256.474 121.286C256.932 119.996 257.675 118.901 258.704 118.004C259.756 117.123 261.041 116.558 262.561 116.31C264.121 116.056 265.531 116.19 266.792 116.714C268.053 117.238 269.097 118.05 269.925 119.151C270.776 120.268 271.328 121.597 271.579 123.136C271.856 124.834 271.733 126.252 271.21 127.392C270.71 128.547 269.916 129.457 268.828 130.121C267.741 130.785 266.477 131.234 265.036 131.47C264.168 131.611 263.257 131.618 262.304 131.49C261.371 131.359 260.472 131.07 259.609 130.623C258.765 130.173 258.031 129.523 257.406 128.672C256.8 127.819 256.391 126.741 256.179 125.438ZM259.342 126.198C259.533 127.363 259.894 128.337 260.428 129.121C260.961 129.906 261.62 130.467 262.405 130.805C263.189 131.143 264.046 131.236 264.973 131.085C265.98 130.92 266.79 130.545 267.404 129.958C268.04 129.388 268.467 128.65 268.683 127.743C268.923 126.853 268.948 125.826 268.758 124.661C268.49 123.023 267.848 121.82 266.832 121.054C265.835 120.285 264.625 120.016 263.204 120.248C262.257 120.403 261.463 120.755 260.824 121.306C260.204 121.853 259.759 122.543 259.49 123.378C259.224 124.232 259.175 125.172 259.342 126.198ZM272.346 129.881L272.974 133.73L258.259 136.132L257.674 132.55C257.674 132.55 257.857 132.49 258.222 132.369C258.611 132.265 259.098 132.145 259.683 132.009C260.269 131.873 260.848 131.758 261.42 131.665L272.346 129.881Z" fill="black"/>
<path d="M260.453 145.518L260.448 144.108L272.827 149.524L272.842 153.784L257.907 146.667L257.894 142.977L272.779 135.904L272.794 140.194L260.453 145.518Z" fill="black"/>
<path d="M278.133 161.492L274.736 161.101L275.253 156.601L278.65 156.991L278.133 161.492ZM272.119 156.543L271.674 160.417L256.861 158.716L257.306 154.841L272.119 156.543Z" fill="black"/>
<path d="M270.614 167.677L269.693 171.467L255.205 167.944L256.126 164.155L270.614 167.677ZM268.376 178.279C268.159 179.173 267.841 179.97 267.424 180.672C267.006 181.373 266.486 181.946 265.863 182.392C265.24 182.837 264.512 183.123 263.679 183.25C262.865 183.381 261.943 183.322 260.913 183.071L252.051 180.917L252.972 177.127L261.163 179.119C262.388 179.416 263.355 179.332 264.065 178.867C264.79 178.426 265.315 177.535 265.641 176.194C265.887 175.183 265.915 174.223 265.725 173.312C265.534 172.401 265.199 171.62 264.72 170.968C264.26 170.321 263.718 169.881 263.096 169.647L264.59 169.979C265.246 170.242 265.853 170.626 266.409 171.132C266.965 171.638 267.435 172.246 267.818 172.956C268.215 173.691 268.471 174.504 268.583 175.396C268.695 176.288 268.627 177.249 268.376 178.279Z" fill="black"/>
<path d="M250.495 189.722C251.126 188.229 251.904 187.006 252.829 186.05C253.764 185.121 254.806 184.53 255.955 184.278C257.104 184.025 258.305 184.164 259.558 184.693C260.792 185.215 261.732 185.97 262.378 186.96C263.024 187.949 263.358 189.111 263.38 190.445C263.395 191.797 263.079 193.238 262.433 194.767C262.254 195.191 262.055 195.584 261.836 195.948C261.609 196.33 261.368 196.695 261.113 197.043L258.153 203.967L255.445 202.822C255.824 201.875 256.339 200.964 256.992 200.089C257.654 199.24 258.289 198.509 258.895 197.897L259.124 197.896C258.564 198.397 257.946 198.831 257.271 199.197C256.613 199.571 255.929 199.803 255.218 199.893C254.517 200.009 253.799 199.912 253.062 199.6C251.864 199.094 250.961 198.354 250.352 197.38C249.762 196.414 249.474 195.272 249.488 193.953C249.513 192.661 249.849 191.251 250.495 189.722ZM240.78 191.054L241.443 191.335C242.29 191.693 242.997 191.666 243.562 191.253C244.119 190.859 244.596 190.192 244.994 189.253L246.804 184.97C247.154 184.141 247.515 183.468 247.885 182.951C248.248 182.453 248.619 182.089 248.998 181.858C249.378 181.628 249.765 181.509 250.159 181.502C250.534 181.487 250.906 181.557 251.274 181.713C252.011 182.025 252.463 182.498 252.629 183.132C252.813 183.775 252.799 184.529 252.585 185.394C252.371 186.259 252.021 187.164 251.535 188.109L250.495 189.722C250.949 188.545 251.213 187.637 251.289 186.996C251.375 186.381 251.188 185.976 250.728 185.781C250.451 185.664 250.183 185.681 249.924 185.832C249.683 185.991 249.477 186.273 249.306 186.679L247.402 191.183C246.881 192.417 246.308 193.413 245.684 194.169C245.034 194.937 244.298 195.418 243.477 195.614C242.638 195.802 241.665 195.663 240.56 195.196L239.261 194.647L240.78 191.054ZM253.093 190.819C252.758 191.612 252.595 192.357 252.604 193.055C252.604 193.772 252.774 194.398 253.113 194.932C253.47 195.474 253.99 195.889 254.671 196.177C255.372 196.473 256.04 196.56 256.678 196.439C257.315 196.317 257.888 196.016 258.395 195.536C258.92 195.063 259.354 194.421 259.697 193.611C260.032 192.819 260.189 192.06 260.17 191.336C260.169 190.619 259.99 189.989 259.633 189.447C259.276 188.906 258.747 188.487 258.047 188.191C257.365 187.903 256.706 187.819 256.068 187.941C255.449 188.07 254.886 188.375 254.379 188.855C253.864 189.354 253.435 190.009 253.093 190.819Z" fill="black"/>
<path d="M251.172 214.437L244.197 224.201L241.78 222.475L248.755 212.71L251.172 214.437ZM250.973 225.502L249.177 228.017L246.614 226.186L247.869 224.428C248.222 223.968 248.464 223.526 248.594 223.103C248.725 222.68 248.699 222.268 248.518 221.868C248.353 221.48 247.993 221.088 247.44 220.693L235.039 211.835L237.305 208.662L250.097 217.798C251.074 218.496 251.744 219.245 252.106 220.044C252.485 220.856 252.571 221.716 252.364 222.625C252.157 223.534 251.694 224.493 250.973 225.502Z" fill="black"/>
<path d="M224.409 223.568C225.708 222.209 227.072 221.217 228.501 220.591C229.916 219.979 231.312 219.778 232.689 219.988C234.08 220.211 235.383 220.903 236.597 222.064C237.811 223.225 238.561 224.496 238.847 225.876C239.147 227.269 239.023 228.687 238.475 230.128C237.914 231.583 236.983 232.99 235.684 234.349C234.385 235.708 233.034 236.686 231.633 237.283C230.218 237.895 228.808 238.082 227.402 237.845C226.011 237.621 224.708 236.929 223.494 235.768C222.28 234.607 221.53 233.337 221.244 231.957C220.973 230.591 221.111 229.187 221.659 227.746C222.193 226.32 223.109 224.927 224.409 223.568ZM226.577 225.641C225.858 226.393 225.346 227.19 225.039 228.031C224.733 228.901 224.668 229.751 224.842 230.582C225.03 231.426 225.493 232.201 226.231 232.906C226.968 233.611 227.762 234.039 228.615 234.189C229.481 234.354 230.335 234.271 231.176 233.941C232.018 233.611 232.805 233.063 233.537 232.297C234.256 231.545 234.768 230.734 235.074 229.864C235.38 228.995 235.446 228.13 235.271 227.271C235.082 226.427 234.612 225.645 233.86 224.927C233.123 224.222 232.328 223.794 231.476 223.643C230.639 223.506 229.792 223.61 228.937 223.955C228.096 224.313 227.31 224.875 226.577 225.641Z" fill="black"/>
<path d="M226.09 242.722L223.029 245.138L213.792 233.434L216.853 231.018L226.09 242.722ZM216.542 246.168C217.421 245.474 218.047 244.7 218.418 243.847C218.801 243.009 218.997 242.192 219.005 241.396C219.014 240.599 218.917 239.911 218.714 239.332L219.76 240.609C219.893 240.81 220.047 241.134 220.222 241.582C220.41 242.045 220.561 242.576 220.676 243.173C220.803 243.786 220.841 244.431 220.789 245.109C220.75 245.802 220.571 246.479 220.251 247.139C219.931 247.799 219.426 248.401 218.735 248.947L216.542 246.168Z" fill="black"/>
<path d="M197.642 249.793L194.384 251.709C194.004 250.749 193.914 249.746 194.112 248.702C194.292 247.667 194.775 246.653 195.559 245.658C196.343 244.664 197.467 243.735 198.933 242.874C200.57 241.911 202.171 241.318 203.733 241.095C205.306 240.889 206.74 241.078 208.035 241.663C209.33 242.247 210.393 243.246 211.224 244.66C212.055 246.073 212.42 247.483 212.319 248.888C212.227 250.311 211.727 251.649 210.817 252.904C209.89 254.168 208.599 255.287 206.944 256.26C205.254 257.254 203.692 257.813 202.257 257.937C200.822 258.062 199.518 257.738 198.345 256.966C197.165 256.222 196.126 254.988 195.229 253.265L207.487 246.057C207.015 245.452 206.424 245 205.713 244.698C204.985 244.407 204.185 244.309 203.313 244.404C202.424 244.51 201.496 244.846 200.531 245.414C199.462 246.043 198.681 246.746 198.187 247.523C197.686 248.329 197.504 249.085 197.642 249.793ZM205.593 253.609C206.835 252.879 207.681 252.01 208.132 251.002C208.594 250.011 208.704 249.054 208.461 248.129L199.721 253.269C200.314 254.08 201.128 254.518 202.163 254.582C203.192 254.673 204.335 254.349 205.593 253.609Z" fill="black"/>
<path d="M192.964 251.922L189.625 253.266C189.167 252.718 188.54 252.366 187.745 252.212C186.939 252.083 186.016 252.228 184.977 252.647C184.272 252.93 183.751 253.216 183.414 253.502C183.076 253.789 182.882 254.083 182.831 254.384C182.787 254.703 182.828 255.021 182.955 255.336C183.112 255.726 183.352 255.974 183.675 256.081C184.006 256.207 184.448 256.233 185.002 256.162C185.555 256.09 186.243 255.953 187.067 255.751C187.899 255.567 188.714 255.422 189.512 255.317C190.31 255.211 191.048 255.194 191.724 255.267C192.407 255.359 193.009 255.569 193.53 255.899C194.04 256.254 194.432 256.775 194.709 257.461C194.978 258.129 195.059 258.787 194.952 259.433C194.828 260.087 194.548 260.706 194.115 261.29C193.663 261.881 193.085 262.427 192.381 262.926C191.657 263.432 190.841 263.869 189.932 264.235C188.559 264.787 187.336 265.042 186.263 265C185.197 264.976 184.295 264.692 183.559 264.148C182.811 263.63 182.251 262.906 181.877 261.979L185.078 260.691C185.503 261.317 185.997 261.69 186.562 261.807C187.134 261.944 187.884 261.825 188.812 261.452C189.721 261.086 190.352 260.67 190.704 260.205C191.055 259.74 191.134 259.267 190.94 258.784C190.783 258.395 190.521 258.144 190.153 258.034C189.774 257.949 189.28 257.954 188.671 258.048C188.044 258.15 187.273 258.298 186.36 258.493C185.577 258.636 184.823 258.745 184.099 258.821C183.356 258.904 182.666 258.902 182.027 258.814C181.395 258.745 180.834 258.529 180.343 258.166C179.841 257.829 179.444 257.299 179.153 256.575C178.795 255.685 178.752 254.829 179.025 254.007C179.28 253.193 179.813 252.429 180.625 251.714C181.444 251.018 182.512 250.405 183.829 249.875C184.998 249.404 186.058 249.118 187.009 249.016C187.948 248.939 188.774 248.984 189.488 249.15C190.209 249.334 190.817 249.585 191.311 249.903C191.795 250.248 192.174 250.602 192.45 250.965C192.725 251.328 192.897 251.647 192.964 251.922Z" fill="black"/>
<path d="M180.607 267.134L169.402 270.06L168.637 267.128L179.841 264.203L180.607 267.134ZM177.922 272.052L174.148 273.037L169.351 254.663L173.125 253.678L177.922 272.052Z" fill="black"/>
<path d="M163.995 260.875L160.424 261.335C160.119 260.689 159.601 260.191 158.87 259.842C158.123 259.515 157.193 259.423 156.082 259.566C155.329 259.663 154.752 259.808 154.354 260C153.955 260.193 153.693 260.428 153.567 260.706C153.445 261.005 153.405 261.322 153.448 261.659C153.502 262.076 153.672 262.377 153.958 262.562C154.246 262.767 154.667 262.904 155.221 262.974C155.774 263.044 156.475 263.084 157.324 263.096C158.175 263.127 159 263.193 159.799 263.291C160.598 263.39 161.316 263.56 161.952 263.8C162.59 264.061 163.12 264.416 163.541 264.866C163.944 265.338 164.194 265.941 164.288 266.675C164.38 267.389 164.293 268.046 164.028 268.645C163.742 269.246 163.316 269.775 162.75 270.231C162.164 270.69 161.467 271.072 160.659 271.378C159.832 271.686 158.932 271.903 157.96 272.028C156.492 272.217 155.244 272.156 154.216 271.845C153.191 271.553 152.39 271.052 151.814 270.339C151.221 269.65 150.861 268.809 150.733 267.817L154.155 267.376C154.408 268.09 154.793 268.574 155.31 268.83C155.829 269.106 156.585 269.18 157.577 269.052C158.549 268.927 159.264 268.684 159.721 268.322C160.179 267.961 160.374 267.522 160.308 267.007C160.254 266.59 160.063 266.282 159.735 266.082C159.39 265.905 158.91 265.785 158.297 265.723C157.665 265.663 156.882 265.613 155.949 265.572C155.155 265.513 154.398 265.429 153.678 265.32C152.938 265.214 152.27 265.038 151.674 264.792C151.08 264.566 150.592 264.215 150.208 263.741C149.807 263.288 149.556 262.675 149.457 261.902C149.334 260.949 149.508 260.11 149.979 259.384C150.43 258.661 151.139 258.055 152.104 257.568C153.073 257.1 154.261 256.776 155.669 256.594C156.919 256.433 158.017 256.423 158.962 256.563C159.891 256.726 160.679 256.977 161.328 257.317C161.979 257.677 162.504 258.073 162.903 258.505C163.284 258.96 163.562 259.398 163.738 259.819C163.913 260.241 163.998 260.592 163.995 260.875Z" fill="black"/>
</svg>
